<?xml version="1.0" standalone="no"?>
<!DOCTYPE svg PUBLIC "-//W3C//DTD SVG 1.1//EN" "http://www.w3.org/Graphics/SVG/1.1/DTD/svg11.dtd" >
<svg>
<metadata>
Created by FontForge 20090914 at Thu Apr 28 11:21:42 2016
 By www-data
&#194;&#169; 1992, Tilde Ltd. AG Fonts Collection. Created by Andrejs Grinbergs.
</metadata>
<defs>
<font id="AGBenguiatCyrBook" horiz-adv-x="1270" >
  <font-face 
    font-family="Benguiat"
    font-weight="400"
    font-stretch="normal"
    units-per-em="2048"
    panose-1="2 11 5 0 0 0 0 0 0 0"
    ascent="1638"
    descent="-410"
    x-height="1010"
    cap-height="1348"
    bbox="-262 -449 2554 1739"
    underline-thickness="20"
    underline-position="-123"
    unicode-range="U+0020-U+2219"
  />
<missing-glyph horiz-adv-x="1536" 
d="M256 0v1280h1024v-1280h-1024zM1247 33v1214h-958v-1214h958z" />
    <glyph glyph-name=".notdef" horiz-adv-x="1536" 
d="M256 0v1280h1024v-1280h-1024zM1247 33v1214h-958v-1214h958z" />
    <glyph glyph-name="space" unicode=" " horiz-adv-x="655" 
 />
    <glyph glyph-name="exclam" unicode="!" horiz-adv-x="696" 
d="M528 1348c-58.667 -126.667 -87.999 -259.331 -87.999 -397.998v-200c0 -42.667 1.83301 -87.834 5.5 -135.501s10.167 -94.334 19.5 -140.001s20.333 -87.834 33 -126.501c-45.333 41.333 -96 62 -152 62c-27.333 0 -53.333 -5.16699 -78 -15.5
s-48.334 -25.833 -71.001 -46.5c38 112 57 246 57 402v200c0 138.667 -29.333 271.334 -88 398.001h362zM207.001 123.003c0 41.333 13 76.166 39 104.499s59.333 42.5 100 42.5c38 0 69 -14.167 93 -42.5s36 -61.166 36 -98.499c0 -38.667 -13 -73.167 -39 -103.5
s-58 -45.5 -96 -45.5c-36.667 0 -68 14.5 -94 43.5s-39 62.167 -39 99.5z" />
    <glyph glyph-name="quotedbl" unicode="&#x22;" horiz-adv-x="573" 
d="M129 1348h102v-412h-102v412zM340 1348h102v-412h-102v412z" />
    <glyph glyph-name="numbersign" unicode="#" horiz-adv-x="1311" 
d="M948 969h232l-31 -103h-227l-91 -368h240l-31 -103h-233l-94 -395h-109l94 395h-225l-94 -395h-113l94 395h-231l31 103h225l92 368h-239l30 103h232l88 379h112l-90 -379h226l90 379h108zM588 866l-90 -368h223l90 368h-223z" />
    <glyph glyph-name="dollar" unicode="$" horiz-adv-x="1311" 
d="M555 649l-18 4c-74.667 13.333 -138.667 29 -192 47s-98.833 46.833 -136.5 86.5s-56.5 93.5 -56.5 161.5c0 63.333 20.5 117.666 61.5 162.999s92.5 79.333 154.5 102s124.333 34.667 187 36v54c0 52 -3.5 91.667 -10.5 119s-24.5 42.666 -52.5 45.999v19h237v-19
c-34 0 -51 -30.667 -51 -92c0.666992 -10.667 1.16699 -20.5 1.5 -29.5s0.5 -18.833 0.5 -29.5v-68c28 0 67.333 -4 118 -12s85.667 -12 105 -12c30 0 52 6.66699 66 20l55 -377h-16c-27.333 86 -76.333 154.333 -147 205s-151.667 76 -243 76c-162 0 -243 -47 -243 -141
c0 -71.333 73 -120.666 219 -147.999l225 -45c102 -20 180.833 -51.5 236.5 -94.5s83.5 -111.833 83.5 -206.5c0 -80 -21.667 -152 -65 -216s-99.833 -114.333 -169.5 -151s-144.5 -57.667 -224.5 -63v-53c0 -17.333 -0.166992 -30.5 -0.5 -39.5
s-0.833008 -19.167 -1.5 -30.5c0 -23.333 3.66699 -41.666 11 -54.999s22.666 -23 45.999 -29v-18h-235v18c38 1.33301 57 31.333 57 90c0 14 -0.166992 24.667 -0.5 32s-0.833008 15.333 -1.5 24v61c-37.333 0 -81.166 5.33301 -131.499 16s-82.166 16.334 -95.499 17.001
c-33.333 0 -60 -16.333 -80 -49l-125 477l18 2c37.333 -72.667 73.166 -131.334 107.499 -176.001s75.5 -81.5 123.5 -110.5s109 -51.5 183 -67.5v456zM680 190c74.667 7.33301 138.333 33.6699 191 79.0029s79 103.666 79 174.999c0 36.667 -8 66.5 -24 89.5
s-37 40.167 -63 51.5s-52 19.666 -78 24.999s-61 11.666 -105 18.999v-439z" />
    <glyph glyph-name="percent" unicode="%" horiz-adv-x="1843" 
d="M1077 1180l19 42.999c6.66699 15.333 12 28.833 16 40.5s6 21.834 6 30.501c0 23.333 -14.333 35 -43 35v19h230v-19c-20 0 -37.833 -9.83301 -53.5 -29.5s-29.5 -43.667 -41.5 -72l-30 -72.5l-432 -1024c-19.333 -52 -29 -81.333 -29 -88c0 -16.667 13 -25 39 -25v-18
h-230v18c16 4.66699 29 10.5 39 17.5s18 14.833 24 23.5s11.5 18.167 16.5 28.5s11.5 24.833 19.5 43.5zM748 949.999c0 -50.667 -6.5 -100.5 -19.5 -149.5s-33 -93.833 -60 -134.5s-61.333 -73.167 -103 -97.5s-89.5 -36.5 -143.5 -36.5
c-75.333 0 -138.333 19.833 -189 59.5s-87.834 91.334 -111.501 155.001s-35.5 131.5 -35.5 203.5c0 71.333 12.667 139.5 38 204.5s63.5 117.833 114.5 158.5s112.833 61 185.5 61c74.667 0 136.334 -20.167 185.001 -60.5s84 -92.333 106 -156s33 -132.834 33 -207.501z
M233 925.999c0 -79.333 13.5 -152.5 40.5 -219.5s73.833 -100.5 140.5 -100.5c50.667 0 90 21.833 118 65.5s46.333 94 55 151s13 113.167 13 168.5c0 78 -12.333 149 -37 213s-69 96 -133 96c-74.667 0 -126.167 -39 -154.5 -117s-42.5 -163.667 -42.5 -257zM1749 396.999
c0 -50.667 -6.6709 -101 -20.0039 -151s-33.166 -94.833 -59.499 -134.5s-60.666 -71.5 -102.999 -95.5s-90.166 -36 -143.499 -36c-56.667 0 -106 11.333 -148 34s-77 53.834 -105 93.501s-48.833 84.5 -62.5 134.5s-20.5 101.667 -20.5 155
c0 71.333 12.667 139.5 38 204.5s63.5 117.833 114.5 158.5s112.833 61 185.5 61c74.667 0 136.334 -20.167 185.001 -60.5s84 -92.333 106 -156s33 -132.834 33 -207.501zM1235 372.999c0 -79.333 13.5 -152.499 40.5 -219.499s73.5 -100.5 139.5 -100.5
c50.667 0 90 21.667 118 65s46.5 93.666 55.5 150.999s13.5 113.666 13.5 168.999c0 45.333 -4.66699 91.5 -14 138.5s-26.5 87.333 -51.5 121s-59.833 50.5 -104.5 50.5c-75.333 0 -127 -39.167 -155 -117.5s-42 -164.166 -42 -257.499z" />
    <glyph glyph-name="ampersand" unicode="&#x26;" horiz-adv-x="1802" 
d="M1174 0l0.000976562 17.999c60 12.667 90 40 90 82c0 22.667 -8.16699 48.5 -24.5 77.5s-38.166 57.167 -65.499 84.5c-37.333 -62 -84.166 -114.667 -140.499 -158s-119.333 -76 -189 -98s-140.167 -33 -211.5 -33c-87.333 0 -171.333 18.167 -252 54.5
s-146.167 88.5 -196.5 156.5s-75.5 146 -75.5 234c0 52.667 9.16699 102 27.5 148s44.166 87.333 77.499 124s71.333 66.834 114 90.501s89.667 40.5 141 50.5c-106.667 64.667 -160 151 -160 259c0 60.667 17.833 112.5 53.5 155.5s81.334 75.167 137.001 96.5
s112.5 32 170.5 32c56.667 0 110.167 -10.333 160.5 -31s90.666 -51.5 120.999 -92.5s45.5 -90.5 45.5 -148.5c0 -30 -6 -58 -18 -84c64.667 -40.667 126.5 -72 185.5 -94s119.5 -33 181.5 -33c43.333 0 83.5 10.5 120.5 31.5s55.5 51.5 55.5 91.5
c0 12 -1.66699 22.667 -5 32s-9 18 -17 26s-16.667 13.667 -26 17s-20 5 -32 5c-28.667 0 -60.667 -12.333 -96 -37c17.333 32.667 42.166 60.667 74.499 84s66.166 35 101.499 35c52 0 93.333 -16.833 124 -50.5s46 -77.167 46 -130.5c0 -50.667 -14 -95.834 -42 -135.501
s-64.833 -70 -110.5 -91s-93.834 -31.5 -144.501 -31.5c-30.667 0 -59.834 4 -87.501 12s-57.834 20.333 -90.501 37c34 -72.667 51 -147.667 51 -225c0 -42.667 -4.33301 -77.334 -13 -104.001c102.667 -91.333 192.334 -204.666 269.001 -339.999
c16.667 -30 33.334 -52.667 50.001 -68s40.334 -25.666 71.001 -30.999v-18h-471zM1065 364.999l-467 369.999l-68 51c-66 -42 -115.167 -88.5 -147.5 -139.5s-48.5 -114.833 -48.5 -191.5c0 -68 14.833 -130.167 44.5 -186.5s71.167 -100.166 124.5 -131.499
s115 -47 185 -47c82 0 160.333 23.167 235 69.5s131.667 105.833 171 178.5zM844.001 1114c0 52 -16.165 93.334 -48.498 124.001s-74.833 46 -127.5 46c-44 0 -82.667 -12.833 -116 -38.5s-50 -59.834 -50 -102.501c0 -44.667 18.667 -88.167 56 -130.5
s80.666 -77.5 129.999 -105.5c45.333 21.333 82.666 49.833 111.999 85.5s44 76.167 44 121.5zM1159 544.999c1.33301 13.333 2.00098 33.666 2.00098 60.999c0 54 -7.33301 106.333 -22 157s-36.167 96.834 -64.5 138.501s-62.833 75.834 -103.5 102.501
c-24.667 -40 -55.334 -70.333 -92.001 -91s-82 -36.334 -136 -47.001z" />
    <glyph glyph-name="quotesingle" unicode="'" horiz-adv-x="369" 
d="M133 1348h103v-412h-103v412z" />
    <glyph glyph-name="parenleft" unicode="(" horiz-adv-x="696" 
d="M532 -295c-56 53.333 -106.166 111.333 -150.499 174s-83 131.834 -116 207.501s-57.5 151.667 -73.5 228s-24 151.833 -24 226.5c0 77.333 8 155.833 24 235.5s39.833 157.667 71.5 234s69.834 147.833 114.501 214.5s96 125.334 154 176.001l62 -55
c-34 -19.333 -67 -54 -99 -104s-59.833 -109.833 -83.5 -179.5s-42.167 -144.834 -55.5 -225.501s-20 -162.334 -20 -245.001c0 -106.667 8.83301 -209 26.5 -307s40.667 -184.667 69 -260s58.166 -135 89.499 -179s59.666 -69 84.999 -75z" />
    <glyph glyph-name="parenright" unicode=")" horiz-adv-x="696" 
d="M164 1401c74.667 -68.667 139.333 -148.333 194 -239s96.667 -187.334 126 -290.001s44 -205 44 -307c0 -158 -32 -315.667 -96 -473s-153.333 -286.333 -268 -387l-62 55c36 20.667 69.833 56 101.5 106s59 108.5 82 175.5s41.167 142 54.5 225s20 165.5 20 247.5
c0 107.333 -9.16699 211.5 -27.5 312.5s-41 187.333 -68 259s-56.5 129.834 -88.5 174.501s-60.667 69.667 -86 75z" />
    <glyph glyph-name="asterisk" unicode="*" horiz-adv-x="1065" 
d="M446 1034l14.998 21.001l-19 6c-56 17.333 -104.333 26 -145 26c-14 0 -34.333 -2.66699 -61 -8l55 158c22.667 -23.333 47.167 -41.833 73.5 -55.5s58.5 -26.5 96.5 -38.5l22 -6v16c0 39.333 -3.5 75.333 -10.5 108s-19.167 61.667 -36.5 87h170
c-26 -40 -39 -101.667 -39 -185v-26l17 4c90.667 28.667 148.667 62.667 174 102l55 -153l-37 2c-13.333 0 -26.333 -0.666992 -39 -2s-27.167 -4 -43.5 -8l-45 -11.5l-27.5 -7.5l-25 -8l41 -49c28 -30.667 49.333 -52.334 64 -65.001s33.667 -24 57 -34l-135 -98
c-7.33301 53.333 -34.666 112 -81.999 176l-15 21l-10 -15c-45.333 -62 -73.333 -122.667 -84 -182l-135 98c28 10 49.333 21 64 33s32.334 30.333 53.001 55z" />
    <glyph glyph-name="plus" unicode="+" horiz-adv-x="1229" 
d="M555 537v421h115v-421h422v-115h-422v-422h-115v422h-420v115h420z" />
    <glyph glyph-name="comma" unicode="," horiz-adv-x="655" 
d="M264 -174h-169.999c23.333 17.333 48.666 57 75.999 119l74 157c24.667 55.333 37 94.333 37 117c0 11.333 -1.66699 19 -5 23h222z" />
    <glyph glyph-name="hyphen" unicode="-" horiz-adv-x="532" 
d="M442 412c-16 10.667 -45.333 16 -88 16h-178c-40.667 0 -72.834 -2.83301 -96.501 -8.5s-43.5 -20.5 -59.5 -44.5h-16l86 229c16.667 -10.667 46 -16 88 -16h178c40.667 0 72.834 2.83301 96.501 8.5s43.5 20.5 59.5 44.5h16z" />
    <glyph glyph-name="period" unicode="." horiz-adv-x="655" 
d="M162 123c0 41.333 13 76.166 39 104.499s59.333 42.5 100 42.5c38 0 69 -14.167 93 -42.5s36 -61.166 36 -98.499c0 -38.667 -13 -73.167 -39 -103.5s-58 -45.5 -96 -45.5c-36.667 0 -68 14.5 -94 43.5s-39 62.167 -39 99.5z" />
    <glyph glyph-name="slash" unicode="/" horiz-adv-x="860" 
d="M229 -119c-21.333 -55.333 -31.999 -92.6699 -31.999 -112.003c0 -13.333 2.33301 -22.666 7 -27.999s16 -12 34 -20v-16h-244v16c31.333 8.66699 53.5 23.167 66.5 43.5s28.167 51.833 45.5 94.5l525 1321c22 52.667 33 86.667 33 102c0 26.667 -16 42.334 -48 47.001
v19h250v-19c-28 -2.66699 -48.833 -12.667 -62.5 -30s-26.834 -42.666 -39.501 -75.999l-21 -58z" />
    <glyph glyph-name="zero" unicode="0" horiz-adv-x="1311" 
d="M1182 674c0 -104.667 -13.167 -200.167 -39.5 -286.5s-64.333 -160.666 -114 -222.999s-108.334 -109.833 -176.001 -142.5s-142.834 -49 -225.501 -49c-112.667 0 -210.167 31.167 -292.5 93.5s-145.333 146.833 -189 253.5s-65.5 222.667 -65.5 348
c0 122.667 22.833 238.167 68.5 346.5s111.834 195.333 198.501 261s186 98.5 298 98.5c103.333 0 195.833 -28.333 277.5 -85s145.334 -138.334 191.001 -245.001s68.5 -230 68.5 -370zM627 72c76 0 138.667 30.6689 188 92.002s85.166 141.833 107.499 241.5
s33.5 206.167 33.5 319.5c0 83.333 -6.5 158.666 -19.5 225.999s-32.167 125 -57.5 173s-57.166 85.333 -95.499 112s-82.5 40 -132.5 40c-68.667 0 -126.5 -21.833 -173.5 -65.5s-83 -99.834 -108 -168.501s-42 -138.167 -51 -208.5s-13.5 -138.5 -13.5 -204.5
c0 -82.667 9.33301 -166.167 28 -250.5s52 -156.5 100 -216.5s112.667 -90 194 -90z" />
    <glyph glyph-name="one" unicode="1" horiz-adv-x="1311" 
d="M543 1020c0 75.333 -7.5 135.5 -22.5 180.5s-49.833 67.5 -104.5 67.5l-90 -8v18l450 123v-1071c0 -75.333 3.66699 -133 11 -173s26.5 -72.667 57.5 -98s80.5 -39 148.5 -41v-18h-667v18c68 0.666992 117.5 13.667 148.5 39s50.167 58 57.5 98s11 98.333 11 175v690z
" />
    <glyph glyph-name="two" unicode="2" horiz-adv-x="1311" 
d="M1067 -27c-6 11.333 -14.499 18.665 -25.499 21.998s-32.5 5 -64.5 5h-918l31 25c122 100.667 214.333 179 277 235s125.334 119.667 188.001 191c40.667 45.333 77.667 89.333 111 132s64.5 86.334 93.5 131.001s52.667 91.667 71 141s27.5 97.333 27.5 144
c0 86 -25.333 151 -76 195s-119.667 66 -207 66c-36 0 -71.5 -5 -106.5 -15s-67.5 -25 -97.5 -45s-56.667 -44.667 -80 -74c-22.667 -28 -37.167 -58.167 -43.5 -90.5s-9.5 -71.5 -9.5 -117.5l-21 -5l-78 357c38 18.667 83.333 36.334 136 53.001s106.667 29.334 162 38.001
s105.666 13 150.999 13c78.667 0 156.5 -12.833 233.5 -38.5s141.333 -65.667 193 -120s77.5 -121.5 77.5 -201.5c0 -48.667 -7.83301 -94.834 -23.5 -138.501s-36 -83.667 -61 -120s-57.167 -77.166 -96.5 -122.499l-309 -303l-151 -129h346
c73.333 3.33301 123.666 6.33301 150.999 9s55 9 83 19s55 27.667 81 53s48 59.666 66 102.999l20 -4z" />
    <glyph glyph-name="three" unicode="3" horiz-adv-x="1311" 
d="M731 979c62.667 -6.66699 122.336 -22.166 179.003 -46.499s106.667 -56.333 150 -96s77.5 -87 102.5 -142s37.5 -115.167 37.5 -180.5c0 -80.667 -17.5 -155 -52.5 -223s-82.5 -125.333 -142.5 -172s-128 -82.667 -204 -108s-152.667 -38 -230 -38
c-87.333 0 -174.833 14.5 -262.5 43.5s-172.834 68.5 -255.501 118.5l211 314l12 -9c-14.667 -35.333 -22 -70 -22 -104c0 -36.667 10 -71 30 -103s46 -58.5 78 -79.5s67.5 -37.167 106.5 -48.5s75.5 -17 109.5 -17c68 0 134.167 16.667 198.5 50
s116.166 78.833 155.499 136.5s59 121.167 59 190.5c0 58 -13.167 109.833 -39.5 155.5s-61.5 83.667 -105.5 114s-92.333 53 -145 68s-107.334 22.5 -164.001 22.5c-38.667 0 -94.667 -5.33301 -168 -16l456 358h-319c-56 0 -98.833 -2.16699 -128.5 -6.5
s-57 -15.833 -82 -34.5s-47.833 -49.334 -68.5 -92.001l-18 4l96 336c10 -10.667 23.5 -17.667 40.5 -21s41.833 -5 74.5 -5h651l41 -70z" />
    <glyph glyph-name="four" unicode="4" horiz-adv-x="1311" 
d="M1159 334c-8 18.667 -18.167 30.5 -30.5 35.5s-35.5 7.5 -69.5 7.5h-133v-117c0 -50.667 2 -91.167 6 -121.5s15 -57 33 -80s46 -36.5 84 -40.5v-18h-455v18c38 4.66699 66 18.834 84 42.501s29 50.667 33 81s6 69.833 6 118.5v117h-502
c-72.667 0 -125.334 -6.33301 -158.001 -19c0 26 5 51.833 15 77.5s24 53.167 42 82.5s39.167 60.666 63.5 93.999l70.5 97c61.333 85.333 113.833 170.166 157.5 254.499s65.5 159.833 65.5 226.5c0 52.667 -18.333 80.667 -55 84l284 213c8.66699 -30 13 -62 13 -96
c0 -60 -8.5 -115.667 -25.5 -167s-42.833 -107 -77.5 -167l-200 -301l-84 -113l-39 -53c-11.333 -15.333 -21.333 -30 -30 -44s-16.667 -28.667 -24 -44h484v575c102.667 32.667 172.334 110.667 209.001 234h26c-10.667 -50 -17.667 -103.833 -21 -161.5
s-5 -128.167 -5 -211.5v-436h51c45.333 0 81.5 1.83301 108.5 5.5s50.167 12.334 69.5 26.001s36.333 35.167 51 64.5l19 -4z" />
    <glyph glyph-name="five" unicode="5" horiz-adv-x="1311" 
d="M930 1090l-18.9971 3.99805v14c-2 23.333 -10 38.333 -24 45s-41.333 10 -82 10h-453c0 -81.333 -11 -158.333 -33 -231c25.333 4 49.666 7 72.999 9s46.666 3.83301 69.999 5.5s50.333 3.5 81 5.5c13.333 1.33301 34.333 2 63 2c96 0 189.5 -18.5 280.5 -55.5
s165 -91.5 222 -163.5s85.5 -157.333 85.5 -256c0 -74.667 -17.667 -143.5 -53 -206.5s-83.666 -117 -144.999 -162s-131.333 -79.833 -210 -104.5s-158.334 -37 -239.001 -37c-175.333 0 -339.333 47.333 -492 142l193 319l16 -10c-12 -30 -18 -58.667 -18 -86
c0 -42 10.333 -82.5 31 -121.5s54.167 -71.167 100.5 -96.5s105.5 -38 177.5 -38c70 0 137.167 15.667 201.5 47s116.5 75.333 156.5 132s60 120.667 60 192c0 75.333 -22.667 137 -68 185s-102.333 82.333 -171 103s-140.667 31 -216 31c-126.667 0 -248.667 -24 -366 -72
c30.667 72.667 54.334 150.834 71.001 234.501s25 168.167 25 253.5c0 68 -5 130.667 -15 188c26 -16 68.333 -24 127 -24h545c29.333 0 50.666 1.33301 63.999 4s25.666 9.33398 36.999 20.001z" />
    <glyph glyph-name="six" unicode="6" horiz-adv-x="1311" 
d="M973 997l-21.002 7.00195v45c0 67.333 -19.667 120.666 -59 159.999s-92.666 59 -159.999 59c-82.667 0 -156.667 -25 -222 -75s-116 -116 -152 -198s-54 -167.333 -54 -256c52 54 112.333 94.833 181 122.5s140.667 41.5 216 41.5
c68.667 0 132.334 -10.833 191.001 -32.5s110 -52.834 154 -93.501s78.167 -89 102.5 -145s36.5 -118.667 36.5 -188c0 -93.333 -24.167 -176.166 -72.5 -248.499s-113.333 -127.5 -195 -165.5s-168.834 -57 -261.501 -57c-95.333 0 -179 17.833 -251 53.5
s-131.167 84.5 -177.5 146.5s-80.666 133.5 -102.999 214.5s-33.5 166.833 -33.5 257.5c0 115.333 15.667 218.666 47 309.999s76.5 168 135.5 230s129.333 109 211 141s172.5 48 272.5 48c114.667 0 223.667 -18.333 327 -55zM405.998 690.002
c-59.333 -60 -89.002 -141.999 -89.002 -245.999c0 -62 14 -121.833 42 -179.5s67.5 -104.167 118.5 -139.5s108.833 -53 173.5 -53c66.667 0 124.5 16.167 173.5 48.5s86.667 75.333 113 129s39.5 113.167 39.5 178.5c0 53.333 -7.16699 103.166 -21.5 149.499
s-37.166 86.5 -68.499 120.5c-59.333 66 -131.666 99 -216.999 99c-103.333 0 -191.333 -35.667 -264 -107z" />
    <glyph glyph-name="seven" unicode="7" horiz-adv-x="1311" 
d="M926 1348h49c31.333 0 57.833 3.16699 79.5 9.5s37.5 18.833 47.5 37.5c5.33301 -28 8 -49.333 8 -64c0 -54.667 -8 -108.167 -24 -160.5s-36.5 -103 -61.5 -152s-55.833 -104.5 -92.5 -166.5l-133 -236c-32.667 -60.667 -62.667 -123.667 -90 -189
s-49.333 -134.666 -66 -207.999s-25 -146.333 -25 -219h-258c4.66699 94.667 23 185.167 55 271.5s71 166.666 117 240.999s94.5 142.666 145.5 204.999l104.5 126.5c50.667 62.667 92.167 118.334 124.5 167.001s56.5 100 72.5 154h-578c-58 0 -102.167 -2.5 -132.5 -7.5
s-58.5 -18.5 -84.5 -40.5s-48.333 -56.333 -67 -103l-19 6l103 356c7.33301 -12 18.5 -19.667 33.5 -23s37.167 -5 66.5 -5h625z" />
    <glyph glyph-name="eight" unicode="8" horiz-adv-x="1311" 
d="M1190 401c0 -71.333 -16 -134.336 -48 -189.003s-74.667 -99.5 -128 -134.5s-112.833 -61.167 -178.5 -78.5s-132.5 -26 -200.5 -26c-66.667 0 -133.334 8 -200.001 24s-126.834 40.333 -180.501 73s-97.167 75.834 -130.5 129.501s-50 116.167 -50 187.5
c0 94 30.833 172.5 92.5 235.5s140.5 106.833 236.5 131.5c-70 10.667 -130.5 41.834 -181.5 93.501s-76.5 111.834 -76.5 180.501c0 80.667 25 147 75 199s113.167 89.5 189.5 112.5s153.5 34.5 231.5 34.5c56 0 111.5 -6.33301 166.5 -19s105.333 -32 151 -58
s83 -60.667 112 -104s43.5 -94.333 43.5 -153c0 -76.667 -25.667 -141 -77 -193s-115.666 -83 -192.999 -93c58.667 -8 114.834 -28.333 168.501 -61s96.667 -74.5 129 -125.5s48.5 -106.5 48.5 -166.5zM633 1276c-52 0 -99.499 -8.83203 -142.499 -26.499
s-77.5 -44.334 -103.5 -80.001s-39 -79.5 -39 -131.5c0 -49.333 13.167 -91.833 39.5 -127.5s61.333 -62.167 105 -79.5s90.5 -26 140.5 -26c77.333 0 142.333 20.5 195 61.5s79 99.5 79 175.5c0 52 -12.333 95.5 -37 130.5s-57.834 61 -99.501 78s-87.5 25.5 -137.5 25.5z
M387.001 611.998c-53.333 -51.333 -79.998 -124.998 -79.998 -220.998c0 -62 13.333 -117.333 40 -166s64.167 -86.334 112.5 -113.001s104.166 -40 167.499 -40c64 0 120.667 12.167 170 36.5s88.166 60.166 116.499 107.499s42.5 102.333 42.5 165
c0 98 -30.167 175.333 -90.5 232s-139.833 85 -238.5 85c-43.333 0 -86.5 -7.16699 -129.5 -21.5s-79.833 -35.833 -110.5 -64.5z" />
    <glyph glyph-name="nine" unicode="9" horiz-adv-x="1311" 
d="M274 295c0 -66 22.002 -119.667 66.002 -161s100 -62 168 -62c65.333 0 128.666 16.5 189.999 49.5s113.333 76.5 156 130.5c43.333 54.667 73.333 112.834 90 174.501s25.667 132.5 27 212.5c-49.333 -54.667 -109.833 -96.334 -181.5 -125.001
s-147.834 -43 -228.501 -43c-85.333 0 -164.333 17.667 -237 53s-130.834 86.166 -174.501 152.499s-65.5 142.5 -65.5 228.5c0 94 24.167 176.833 72.5 248.5s113 126.334 194 164.001s168.833 56.5 263.5 56.5c126.667 0 232.834 -30.667 318.501 -92
s149 -143.666 190 -246.999s61.5 -217 61.5 -341c0 -106 -16.167 -203.333 -48.5 -292s-79.5 -165.334 -141.5 -230.001s-136.333 -114 -223 -148s-184 -51 -292 -51c-112.667 0 -226.667 21.333 -342 64l123 319l21 -4zM606.002 569c64 0 123.164 15.167 177.497 45.5
s97 71.5 128 123.5s46.5 110.333 46.5 175c0 65.333 -14.333 125.666 -43 180.999s-69 99.5 -121 132.5s-110.667 49.5 -176 49.5s-122.666 -16 -171.999 -48s-87.166 -75 -113.499 -129s-39.5 -113.667 -39.5 -179c0 -64.667 12.167 -123.667 36.5 -177
s60.333 -95.666 108 -126.999s103.834 -47 168.501 -47z" />
    <glyph glyph-name="colon" unicode=":" horiz-adv-x="655" 
d="M162 123c0 41.333 13 76.166 39 104.499s59.333 42.5 100 42.5c38 0 69 -14.167 93 -42.5s36 -61.166 36 -98.499c0 -38.667 -13 -73.167 -39 -103.5s-58 -45.5 -96 -45.5c-36.667 0 -68 14.5 -94 43.5s-39 62.167 -39 99.5zM162 729c0 41.333 13 76.333 39 105
s59.333 43 100 43c38 0 69 -14.167 93 -42.5s36 -61.5 36 -99.5c0 -38.667 -13 -73.167 -39 -103.5s-58 -45.5 -96 -45.5c-36.667 0 -68 14.5 -94 43.5s-39 62.167 -39 99.5z" />
    <glyph glyph-name="semicolon" unicode=";" horiz-adv-x="655" 
d="M264 -174h-169.999c23.333 17.333 48.666 57 75.999 119l74 157c24.667 55.333 37 94.333 37 117c0 11.333 -1.66699 19 -5 23h222zM262.001 731c0 41.333 12.832 76.002 38.499 104.002s59.167 42 100.5 42c36.667 0 67.334 -14 92.001 -42s37 -61.333 37 -100
c0 -37.333 -13.5 -71.5 -40.5 -102.5s-59.167 -46.5 -96.5 -46.5c-24 0 -46 6.66699 -66 20s-35.833 31.166 -47.5 53.499s-17.5 46.166 -17.5 71.499z" />
    <glyph glyph-name="less" unicode="&#x3c;" horiz-adv-x="1229" 
d="M135 532l957 441v-119l-824 -377l824 -373v-116l-957 438v106z" />
    <glyph glyph-name="equal" unicode="=" horiz-adv-x="1229" 
d="M1092 678v-115h-957v115h957zM1092 395v-114h-957v114h957z" />
    <glyph glyph-name="greater" unicode="&#x3e;" horiz-adv-x="1229" 
d="M135 -12v116l823 373l-823 377v119l957 -441v-106z" />
    <glyph glyph-name="question" unicode="?" horiz-adv-x="1065" 
d="M653 707c-54.667 -30 -96.3369 -56.334 -125.004 -79.001s-43 -52.334 -43 -89.001c0 -31.333 12 -56 36 -74s52.333 -27.667 85 -29v-18h-16c-50 0 -92 -4.66699 -126 -14s-69.333 -28 -106 -56c-38 46 -57 91 -57 135c0 27.333 5.5 52.666 16.5 75.999s24.5 43 40.5 59
s38.667 36 68 60l137 115c64.667 54.667 113.334 102.167 146.001 142.5s49 88.833 49 145.5c0 43.333 -10.667 80.333 -32 111s-50 54.334 -86 71.001s-75.333 25 -118 25c-62 0 -121.333 -14.167 -178 -42.5s-102.167 -68.166 -136.5 -119.499
s-51.5 -108.666 -51.5 -171.999c0 -14 2.66699 -35.667 8 -65h-19l-86 393c14.667 -5.33301 26.334 -8 35.001 -8c18.667 0 41.334 5 68.001 15l95 36c36.667 14 78.834 25.667 126.501 35s102.167 14 163.5 14c69.333 0 138.333 -11.333 207 -34s125.667 -58 171 -106
s68 -107.667 68 -179c0 -41.333 -10.167 -79.833 -30.5 -115.5s-47 -67 -80 -94s-67.833 -50.167 -104.5 -69.5zM316.997 124.999c0 40 13.165 74.167 39.498 102.5s59.833 42.5 100.5 42.5c36.667 0 67.334 -14 92.001 -42s37 -61 37 -99
c0 -38.667 -13.167 -73.167 -39.5 -103.5s-58.833 -45.5 -97.5 -45.5c-37.333 0 -68.666 14.667 -93.999 44s-38 63 -38 101z" />
    <glyph glyph-name="at" unicode="@" horiz-adv-x="1597" 
d="M1442 369c-22 -58.667 -54.667 -113.002 -98 -163.002s-92.5 -92 -147.5 -126s-114.5 -60.333 -178.5 -79s-127.667 -28 -191 -28c-126.667 0 -243.167 31.333 -349.5 94s-190 147.834 -251 255.501s-91.5 225.5 -91.5 353.5c0 122.667 30.667 238 92 346
s144.5 193.667 249.5 257s219.833 95 344.5 95c86 0 167.5 -13.833 244.5 -41.5s145.167 -67.334 204.5 -119.001s105.833 -114 139.5 -187s50.5 -153.167 50.5 -240.5c0 -130 -41 -244.667 -123 -344c-38 -50.667 -87.667 -93.667 -149 -129s-122.666 -53 -183.999 -53
c-36 0 -69.833 9.66699 -101.5 29s-49.834 46 -54.501 80c-28 -31.333 -62.833 -57.333 -104.5 -78s-82.5 -31 -122.5 -31c-70.667 0 -126.334 26.167 -167.001 78.5s-61 114.166 -61 185.499c0 81.333 18 165.833 54 253.5s87.333 160.5 154 218.5s142.667 87 228 87
c28.667 0 56.167 -4 82.5 -12s49 -20.167 68 -36.5s32.5 -37.5 40.5 -63.5l27 88h159l-178 -518c-31.333 -92 -47 -152.333 -47 -181c0 -25.333 15 -38 45 -38c58.667 0 124.334 31.333 197.001 94c49.333 45.333 86.166 100.833 110.499 166.5s36.5 135.834 36.5 210.501
c0 71.333 -14.667 137.5 -44 198.5s-69.333 114.167 -120 159.5s-108.334 80.166 -173.001 104.499s-132 36.5 -202 36.5c-82 0 -160.167 -15.667 -234.5 -47s-139.166 -74.666 -194.499 -129.999s-98.666 -120.5 -129.999 -195.5s-47 -154.167 -47 -237.5
c0 -87.333 12.667 -167.166 38 -239.499s66 -138.5 122 -198.5c37.333 -39.333 79.833 -72.666 127.5 -99.999s98.834 -48 153.501 -62s109 -21 163 -21c72.667 0 143.167 12.167 211.5 36.5s130.666 60.333 186.999 108s100.5 102.167 132.5 163.5h82zM969 835.998
c8 29.333 12.001 49.6689 12.001 61.002c0 36 -9.5 67.5 -28.5 94.5s-46.5 40.5 -82.5 40.5c-46.667 0 -90.334 -22.333 -131.001 -67s-76 -100.834 -106 -168.501s-53.167 -135 -69.5 -202s-24.5 -122.5 -24.5 -166.5c0 -34.667 9.83301 -62.5 29.5 -83.5
s46.5 -31.5 80.5 -31.5c54 0 99.5 24.667 136.5 74s65.833 106.666 86.5 171.999z" />
    <glyph glyph-name="A" unicode="A" horiz-adv-x="1352" 
d="M322 274c-22 -60.667 -33.001 -108.998 -33.001 -144.998c0 -31.333 10.833 -56.833 32.5 -76.5s48.167 -31.167 79.5 -34.5v-18h-417v18c27.333 6.66699 48.333 14.5 63 23.5s29 23.167 43 42.5c30 43.333 60.667 106.666 92 189.999l330 871
c6.66699 17.333 12.167 32.333 16.5 45s7.83301 25.167 10.5 37.5s4 24.5 4 36.5c0 18 -5.83301 32.5 -17.5 43.5s-27.167 18.167 -46.5 21.5v19h455v-19c-40 -10.667 -60 -35.334 -60 -74.001c0 -18 6.33301 -44.333 19 -79l350 -1008
c24.667 -57.333 42.834 -94.333 54.501 -111s35.167 -29.667 70.5 -39v-18h-465v18c67.333 15.333 101 63.333 101 144c0 62.667 -24.667 128 -74 196s-117 124.833 -203 170.5s-181.667 69.5 -287 71.5zM656.999 1194l-186 -492c79.333 0 155.333 -13.833 228 -41.5
s134.667 -68.167 186 -121.5z" />
    <glyph glyph-name="B" unicode="B" horiz-adv-x="1352" 
d="M823 1348c93.333 0 171.667 -10.5029 235 -31.5029s95 -68.5 95 -142.5c0 -46.667 -15.5 -88.667 -46.5 -126s-65 -67.166 -102 -89.499s-89.167 -51.166 -156.5 -86.499c59.333 -18.667 114.666 -41.667 165.999 -69s98 -60.166 140 -98.499s75.5 -82.333 100.5 -132
s37.5 -105.167 37.5 -166.5c0 -81.333 -20.5 -153 -61.5 -215s-98.833 -107.333 -173.5 -136c-44 -16 -92 -28.333 -144 -37s-102.167 -13.834 -150.5 -15.501s-107.166 -2.5 -176.499 -2.5h-514v18c58 8.66699 94.333 31.334 109 68.001s22.667 92.667 24 168v825
c-1.33301 78.667 -9.5 138 -24.5 178s-51.167 64 -108.5 72v19h751zM430.001 810.997c67.333 19.333 136.332 43.333 206.999 72s133.667 64.5 189 107.5s83 91.167 83 144.5c0 35.333 -14.167 61.833 -42.5 79.5s-60.166 28.5 -95.499 32.5s-75.333 6 -120 6
c-112 0 -178.667 -13.667 -200 -41c-14 -18 -21 -61 -21 -129v-272zM430 255.997c0 -49.333 3.16797 -84.502 9.50098 -105.502s20.5 -35.667 42.5 -44s58 -12.5 108 -12.5c144.667 0 253 22.667 325 68c30.667 20.667 56.834 45.334 78.501 74.001s38 60 49 94
s16.5 68.667 16.5 104c0 58 -14.833 113.167 -44.5 165.5s-69.334 98.333 -119.001 138s-101.834 70.834 -156.501 93.501l-309 -116v-459z" />
    <glyph glyph-name="C" unicode="C" horiz-adv-x="1434" 
d="M1255 -20c-13.333 4 -35.6699 5.99902 -67.0029 5.99902l-248 -13c-250.667 0 -450 61.667 -598 185c-44 36.667 -82.667 77.334 -116 122.001s-60.666 91.334 -81.999 140.001s-37.666 100.667 -48.999 156s-17 110.333 -17 165c0 60 7.16699 119.167 21.5 177.5
s37 113.166 68 164.499s68.833 96 113.5 134c70 56.667 147.167 97 231.5 121s177.166 36 278.499 36l225 -18l65 -6c40.667 0 67.334 14.333 80.001 43l94 -387l-16 -7c-36.667 86.667 -96 153.167 -178 199.5s-172 69.5 -270 69.5c-72 0 -135.167 -10.333 -189.5 -31
s-103.166 -56.334 -146.499 -107.001c-43.333 -50 -76 -107.667 -98 -173s-33 -132.333 -33 -201c0 -88.667 14.5 -173.667 43.5 -255s70.833 -153.833 125.5 -217.5s120 -113.5 196 -149.5s159.667 -54 251 -54c70 0 133.667 12.833 191 38.5s108 62.834 152 111.501
s80.667 105 110 169l20 -8z" />
    <glyph glyph-name="D" unicode="D" horiz-adv-x="1475" 
d="M561 1348c57.333 0 112.5 -2.83203 165.5 -8.49902s102.167 -15 147.5 -28s90 -31 134 -54s86.333 -51.833 127 -86.5c52.667 -44.667 98 -96 136 -154s67.167 -120.333 87.5 -187s30.5 -133.667 30.5 -201c0 -95.333 -18.5 -186 -55.5 -272
s-91.167 -158.667 -162.5 -218c-40 -32.667 -80 -58.334 -120 -77.001s-82.5 -32.667 -127.5 -42s-87.5 -15 -127.5 -17s-93 -3 -159 -3h-563v18c41.333 6.66699 71.5 21 90.5 43s30.833 47.5 35.5 76.5s7 67.833 7 116.5v825c0 50.667 -2.33301 91.667 -7 123
s-16.5 58.833 -35.5 82.5s-49.167 38.5 -90.5 44.5v19h487zM432 358.001c0 -56 1.66797 -98.502 5.00098 -127.502s11.166 -53.667 23.499 -74s32.833 -35.833 61.5 -46.5s69 -16 121 -16c160 0 283.333 46.5 370 139.5s130 219.833 130 380.5c0 88 -12.5 170.333 -37.5 247
s-61.167 144.334 -108.5 203.001s-106.333 104.834 -177 138.501s-148.667 50.5 -234 50.5c-66.667 0 -109 -13 -127 -39s-27 -70.333 -27 -133v-43v-680z" />
    <glyph glyph-name="E" unicode="E" 
d="M1151 961l-15.999 -7.00098c-28 66.667 -68.667 122.334 -122 167.001s-114.333 77.834 -183 99.501s-139.334 32.5 -212.001 32.5c-74 0 -123.833 -10.667 -149.5 -32s-38.5 -68 -38.5 -140v-116h158h45c35.333 0 65.833 2.5 91.5 7.5s47.167 16.667 64.5 35
s26 44.833 26 79.5l19 7l79 -459l-16 -6c-22.667 76 -52.167 131 -88.5 165s-78 54.833 -125 62.5s-115.167 11.5 -204.5 11.5h-49v-549c0 -63.333 3.5 -109.166 10.5 -137.499s25.333 -50 55 -65s78.167 -22.5 145.5 -22.5c280 0 484.667 131.667 614 395l21 -6l-174 -510
c-8 11.333 -19.5 18.666 -34.5 21.999s-33.5 5 -55.5 5h-940v18c41.333 6.66699 71.5 21 90.5 43s30.833 47.5 35.5 76.5s7 67.833 7 116.5v825c0 75.333 -7.66699 133.666 -23 174.999s-52 66.333 -110 75v19h876c53.333 0 90.333 8 111 24z" />
    <glyph glyph-name="F" unicode="F" horiz-adv-x="1147" 
d="M1165 952l-16.001 -3.99707c-17.333 51.333 -49.166 100.166 -95.499 146.499s-106 84.333 -179 114s-154.167 44.5 -243.5 44.5c-58.667 0 -101.5 -5.33301 -128.5 -16s-44.167 -27.5 -51.5 -50.5s-11 -60.833 -11 -113.5v-108h219c56.667 0 98.667 7 126 21
s41.333 46.333 42 97l19 7l80 -459l-17 -4c-25.333 75.333 -54.833 130.166 -88.5 164.499s-73.5 55.666 -119.5 63.999s-111.667 12.5 -197 12.5h-64v-602c0 -76 7.66699 -134.833 23 -176.5s52.666 -66.167 111.999 -73.5v-16h-493v18
c58.667 8.66699 95.5 31.834 110.5 69.501s22.5 93.167 22.5 166.5v825c0 75.333 -7.66699 133.666 -23 174.999s-52 66.333 -110 75v19h883c30.667 0 54.334 1.66699 71.001 5s29 10.333 37 21z" />
    <glyph glyph-name="G" unicode="G" horiz-adv-x="1556" 
d="M940 0c-64.667 0 -122.667 2.33594 -174 7.00293s-100 12.5 -146 23.5s-92.5 27.667 -139.5 50s-93.167 52.166 -138.5 89.499c-56 45.333 -103.667 98.166 -143 158.499s-68.666 124.666 -87.999 192.999s-29 140.833 -29 217.5c0 135.333 29.5 250.833 88.5 346.5
s140.5 167.667 244.5 216s222.333 72.5 355 72.5l250 -22c30 -6 51 -9 63 -9c36.667 0 67 16 91 48l71 -379l-20 -4c-40 84 -99 148.333 -177 193s-164.667 67 -260 67c-97.333 0 -180.833 -21 -250.5 -63s-122 -100.667 -157 -176s-52.5 -161 -52.5 -257
c0 -115.333 23.833 -225.166 71.5 -329.499s116.5 -188.5 206.5 -252.5s194 -96 312 -96c51.333 0 92 4.83301 122 14.5s51.833 24 65.5 43s22.667 42.667 27 71s6.5 64.833 6.5 109.5v323c0 75.333 -7.33301 133.666 -22 174.999s-50.334 66.333 -107.001 75v19h458v-19
c-33.333 -6.66699 -57.333 -16.667 -72 -30s-23.667 -29.5 -27 -48.5s-5 -47.5 -5 -85.5v-544c0 -40 1.66699 -70.667 5 -92s12.333 -39.5 27 -54.5s38.667 -26.5 72 -34.5v-16h-528z" />
    <glyph glyph-name="H" unicode="H" horiz-adv-x="1475" 
d="M432 268c0 -76 7.5 -135.168 22.5 -177.501s51.833 -66.5 110.5 -72.5v-18h-491v18c58.667 8.66699 95.5 31.834 110.5 69.501s22.5 93.167 22.5 166.5v825c0 50.667 -2.33301 91.667 -7 123s-16.5 58.833 -35.5 82.5s-49.167 38.5 -90.5 44.5v19h491v-19
c-41.333 -4.66699 -71.5 -17.834 -90.5 -39.501s-30.833 -47.167 -35.5 -76.5s-7 -69 -7 -119v-121h610v106c-1.33301 82 -9.33301 143 -24 183s-51 62.333 -109 67v19h492v-19c-40.667 -4.66699 -70.667 -18.167 -90 -40.5s-31 -46.666 -35 -72.999
s-6.66699 -66.833 -8 -121.5v-826c1.33301 -56.667 4 -99.167 8 -127.5s15.5 -54.333 34.5 -78s49.167 -38.5 90.5 -44.5v-18h-492v18c41.333 4 71.5 16.667 90.5 38s30.5 45.5 34.5 72.5s6.66699 68.833 8 125.5v620h-610v-606z" />
    <glyph glyph-name="I" unicode="I" horiz-adv-x="655" 
d="M440 268c0 -74 7.5 -132 22.5 -174s51.833 -67.333 110.5 -76v-18h-491v18c41.333 6 71.5 19.667 90.5 41s30.833 46.833 35.5 76.5s7 69.167 7 118.5v825c0 50.667 -2.33301 91.667 -7 123s-16.5 58.833 -35.5 82.5s-49.167 38.5 -90.5 44.5v19h491v-19
c-58.667 -9.33301 -95.5 -33.333 -110.5 -72s-22.5 -93.667 -22.5 -165v-824z" />
    <glyph glyph-name="J" unicode="J" horiz-adv-x="1065" 
d="M666 1079c0 55.333 -2.3291 99.3291 -6.99609 131.996s-16.834 60.334 -36.501 83.001s-49.834 34.334 -90.501 35.001v19h492v-19c-58.667 -10 -95.5 -34.167 -110.5 -72.5s-22.5 -92.5 -22.5 -162.5v-666c0 -53.333 -2.66699 -98.166 -8 -134.499
s-16.833 -71 -34.5 -104s-45.167 -64.833 -82.5 -95.5c-30 -25.333 -64.333 -47.166 -103 -65.499s-80 -32.166 -124 -41.499s-85 -14 -123 -14c-86.667 0 -170.5 19.5 -251.5 58.5s-151.5 92.833 -211.5 161.5l207 339l18 -8c-18.667 -73.333 -28 -129.333 -28 -168
c0 -48.667 11.667 -94.334 35 -137.001s55.666 -76.5 96.999 -101.5s86.666 -37.5 135.999 -37.5c80.667 0 142.167 26 184.5 78s63.5 124.333 63.5 217v704z" />
    <glyph glyph-name="K" unicode="K" horiz-adv-x="1352" 
d="M174 1079c0 76 -7.49805 134.501 -22.498 175.501s-51.833 65.833 -110.5 74.5v19h491v-19c-58.667 -5.33301 -95.5 -27.5 -110.5 -66.5s-22.5 -95.167 -22.5 -168.5v-250l176 141c34.667 27.333 72.5 59 113.5 95s78.167 72.667 111.5 110s50 67.333 50 90
c0 17.333 -4.5 29.166 -13.5 35.499s-22.833 10.833 -41.5 13.5v19h493v-19c-48 -2.66699 -93.667 -13.5 -137 -32.5s-81.166 -40.333 -113.499 -64s-76.5 -58.5 -132.5 -104.5l-153 -127c70 -66 132.167 -135.167 186.5 -207.5s103.166 -148.833 146.499 -229.5
s83 -166.334 119 -257.001l39 -94c18 -45.333 32 -78.5 42 -99.5s24.667 -41.333 44 -61s42.666 -31.167 69.999 -34.5v-18h-451v18c48 8 72 34.667 72 80c0 48.667 -15.833 112.334 -47.5 191.001s-65.834 149.667 -102.501 213c-69.333 119.333 -161.333 242 -276 368
l-195 -155v-447c0 -76 7.5 -135.167 22.5 -177.5s51.833 -66.5 110.5 -72.5v-18h-491v18c41.333 6.66699 71.5 21 90.5 43s30.833 47.5 35.5 76.5s7 67.833 7 116.5v825z" />
    <glyph glyph-name="L" unicode="L" horiz-adv-x="1147" 
d="M430 236c0 -50 12.668 -86.167 38.001 -108.5s63.333 -33.5 114 -33.5c86 0 166.833 16.5 242.5 49.5s141.667 79 198 138s103.833 129.167 142.5 210.5l19 -9l-176 -510c-16.667 18 -56.334 27 -119.001 27h-817v18c58.667 8.66699 95.5 31.667 110.5 69
s22.5 93 22.5 167v825c0 50.667 -2.33301 91.667 -7 123s-16.5 58.833 -35.5 82.5s-49.167 38.5 -90.5 44.5v19h491v-19c-58.667 -5.33301 -95.5 -27.5 -110.5 -66.5s-22.5 -95.167 -22.5 -168.5v-858z" />
    <glyph glyph-name="M" unicode="M" horiz-adv-x="1638" 
d="M342 1206v-938c0 -76 7.5 -135.167 22.5 -177.5s51.833 -66.5 110.5 -72.5v-18h-399v18c58.667 8.66699 95.5 31.667 110.5 69s22.5 93 22.5 167v825c0 50.667 -2.33301 91.667 -7 123s-16.5 58.833 -35.5 82.5s-49.167 38.5 -90.5 44.5v19h518v-19
c-23.333 -5.33301 -35 -18.333 -35 -39c0 -19.333 9 -45.333 27 -78l235 -430l234 379c35.333 58 53 99.667 53 125c0 23.333 -13 37.666 -39 42.999v19h494v-19c-58.667 -9.33301 -95.5 -33.166 -110.5 -71.499s-22.5 -92.833 -22.5 -163.5v-826
c0 -73.333 7.5 -130.833 22.5 -172.5s51.833 -67.5 110.5 -77.5v-18h-492v18c41.333 4.66699 71.5 17.667 90.5 39s30.833 47 35.5 77s7 70 7 120v952l-448 -727z" />
    <glyph glyph-name="N" unicode="N" horiz-adv-x="1434" 
d="M1098 1079c0 78.667 -7.66602 138.5 -22.999 179.5s-53.333 64.5 -114 70.5v19h403v-19c-58.667 -8 -95.5 -31.5 -110.5 -70.5s-22.5 -93.833 -22.5 -164.5v-826c0 -74.667 7.66699 -132.834 23 -174.501s52 -66.834 110 -75.501v-18h-403v18
c41.333 4.66699 72 17.834 92 39.501s32.5 47.334 37.5 77.001s7.5 69.5 7.5 119.5v84c0 91.333 -2.66699 152.666 -8 183.999c-6 24.667 -17.333 45 -34 61s-40.334 36.667 -71.001 62l-647 539v-916c0 -76 7.5 -135.167 22.5 -177.5s51.833 -66.5 110.5 -72.5v-18h-399v18
c58.667 8.66699 95.5 31.834 110.5 69.501s22.5 93.167 22.5 166.5v825c0 50.667 -2.33301 91.667 -7 123s-16.5 58.833 -35.5 82.5s-49.167 38.5 -90.5 44.5v19h538v-19c-28.667 -2 -43 -10 -43 -24c0 -20 21.333 -46.667 64 -80l467 -389v243z" />
    <glyph glyph-name="O" unicode="O" horiz-adv-x="1638" 
d="M311 162c-46 44 -85.334 93.332 -118.001 147.999s-57.667 112.834 -75 174.501s-26 123.5 -26 185.5c0 133.333 32 253.833 96 361.5s151.333 191.667 262 252s231.667 90.5 363 90.5c136.667 0 261 -30.667 373 -92s199.667 -147 263 -257s95 -233.333 95 -370
c0 -128.667 -33.5 -245.167 -100.5 -349.5s-156.667 -185.833 -269 -244.5s-232.166 -88 -359.499 -88c-60.667 0 -121.167 6.66699 -181.5 20s-117.833 34.333 -172.5 63s-104.667 64 -150 106zM861.999 79.999c68 0 129.833 14 185.5 42s102 66 139 114
s64.833 102.5 83.5 163.5s28 125.833 28 194.5c0 90.667 -14 177 -42 259s-66.667 154.167 -116 216.5s-106 111 -170 146s-132 52.5 -204 52.5c-92.667 0 -171.334 -24.5 -236.001 -73.5s-112.834 -113.833 -144.501 -194.5s-47.5 -166.334 -47.5 -257.001
c0 -75.333 11.833 -153.166 35.5 -233.499s57.834 -152.833 102.501 -217.5s99.834 -116.167 165.501 -154.5s139.167 -57.5 220.5 -57.5z" />
    <glyph glyph-name="P" unicode="P" horiz-adv-x="1147" 
d="M827 1348c64 0 119 -5.83008 165 -17.4971s84 -34.334 114 -68.001s45 -81.834 45 -144.501c0 -86 -40.833 -162.5 -122.5 -229.5s-174.167 -120.833 -277.5 -161.5s-209 -76 -317 -106v-353c0 -76 7.5 -135.167 22.5 -177.5s51.833 -66.5 110.5 -72.5v-18h-491v18
c58.667 8.66699 95.5 31.667 110.5 69s22.5 93 22.5 167v825c0 51.333 -2.33301 92.666 -7 123.999s-16.667 59 -36 83s-49.333 38.333 -90 43v19h751zM434 719.003c325.333 103.333 488 225.334 488 366.001c0 63.333 -25.333 107.166 -76 131.499s-123.667 36.5 -219 36.5
c-36 0 -72 -4 -108 -12s-59.333 -23 -70 -45c-10 -20.667 -15 -67 -15 -139v-338z" />
    <glyph glyph-name="Q" unicode="Q" horiz-adv-x="1679" 
d="M1606 145c16 -38.667 24.0039 -76.667 24.0039 -114c0 -50 -10.667 -94 -32 -132s-51.5 -67.833 -90.5 -89.5s-82.167 -32.5 -129.5 -32.5c-46 0 -89.167 11.5 -129.5 34.5s-77.333 51.5 -111 85.5s-67.5 72.333 -101.5 115c-64 -26 -137.667 -39 -221 -39
c-96.667 0 -188.834 15.167 -276.501 45.5s-165.5 76.833 -233.5 139.5c-70.667 68 -124.834 147 -162.501 237s-56.5 183.667 -56.5 281c0 101.333 18.5 194.333 55.5 279s89 158.667 156 222s144.333 112 232 146s180.834 51 279.501 51
c99.333 0 193.666 -17.667 282.999 -53s167 -84.833 233 -148.5s117.667 -139 155 -226s56 -181.167 56 -282.5c0 -82 -12.833 -159.167 -38.5 -231.5s-63.167 -138.166 -112.5 -197.499s-109 -110.333 -179 -153c83.333 -86 164.666 -129 243.999 -129
c41.333 0 76.166 12.833 104.499 38.5s42.5 58.5 42.5 98.5c0 11.333 -2.66699 27.666 -8 48.999zM725.004 377c78 0 149.832 -17.833 215.499 -53.5s125.5 -84.167 179.5 -145.5c40 37.333 72.667 77.333 98 120s43.666 88.167 54.999 136.5s17 100.833 17 157.5
c0 80 -12.167 160 -36.5 240s-59.5 151.333 -105.5 214s-103.167 113.167 -171.5 151.5s-143.833 57.5 -226.5 57.5c-67.333 0 -129.666 -15.333 -186.999 -46s-105 -74 -143 -130c-32.667 -46.667 -55.5 -98.5 -68.5 -155.5s-19.5 -118.5 -19.5 -184.5
c0 -77.333 10.5 -154.333 31.5 -231s52.833 -145.667 95.5 -207c96.667 50.667 185.334 76 266.001 76zM868.003 86c33.333 0 65.665 3.99902 96.998 11.999c-48 60 -103.167 111.167 -165.5 153.5s-124.833 63.5 -187.5 63.5c-34 0 -81 -9.33301 -141 -28
c48.667 -65.333 106.834 -115.166 174.501 -149.499s141.834 -51.5 222.501 -51.5z" />
    <glyph glyph-name="R" unicode="R" horiz-adv-x="1311" 
d="M864 1348c108 0 184.167 -16.667 228.5 -50s66.5 -86.333 66.5 -159c0 -74 -27.333 -137.167 -82 -189.5s-125.667 -101.833 -213 -148.5c140 -156 259.667 -359.667 359 -611c17.333 -41.333 30.333 -70.666 39 -87.999s21.5 -34.333 38.5 -51s38.833 -27.667 65.5 -33
v-18h-432v18c50.667 10 76 36.667 76 80c0 24 -6 53.167 -18 87.5s-25.5 67.333 -40.5 99s-32.5 65.167 -52.5 100.5l-211 305l-20 27l-238 -82v-367c0 -55.333 2.33301 -98.333 7 -129s16.667 -57 36 -79s49.333 -36 90 -42v-18h-491v18c41.333 6.66699 71.5 21 90.5 43
s30.833 47.667 35.5 77s7 68.666 7 117.999v823c0 50.667 -2.33301 91.667 -7 123s-16.5 58.833 -35.5 82.5s-49.167 38.5 -90.5 44.5v19h792zM430 731c118.667 34 232.666 81.999 341.999 143.999s164 134.333 164 217c0 66 -21.667 109.333 -65 130
s-103.666 31 -180.999 31c-132 0 -210.333 -15 -235 -45c-16.667 -17.333 -25 -59.666 -25 -126.999v-350z" />
    <glyph glyph-name="S" unicode="S" 
d="M1055 958l-16.998 -4c-20.667 62 -54 116.667 -100 164s-99.833 84.166 -161.5 110.499s-125.167 39.5 -190.5 39.5c-37.333 0 -76 -6 -116 -18s-73.667 -30.667 -101 -56s-41 -57.333 -41 -96c0 -22.667 7 -42.667 21 -60s32.167 -31.666 54.5 -42.999
s46.333 -21 72 -29l63.5 -20l286 -86c53.333 -16 102.666 -34 147.999 -54s83.333 -45 114 -75c74 -70 111 -160.667 111 -272c0 -72 -16.333 -138.5 -49 -199.5s-76.5 -112.667 -131.5 -155s-117.5 -74.833 -187.5 -97.5s-140.667 -34 -212 -34
c-42 0 -77.333 3.16699 -106 9.5s-73 17.333 -133 33s-103.667 23.5 -131 23.5c-24.667 0 -48 -12.333 -70 -37l-119 512l19 6c26 -82 63.5 -155.167 112.5 -219.5s109.333 -115.166 181 -152.499s149.167 -56 232.5 -56c70.667 0 136 12.667 196 38
s107.167 59.833 141.5 103.5s51.5 90.834 51.5 141.501c0 78 -26.167 135 -78.5 171s-126.5 68.333 -222.5 97l-272 84c-94.667 29.333 -167.834 67.166 -219.501 113.499s-77.5 112.166 -77.5 197.499c0 76 23.5 139.5 70.5 190.5s106.5 88 178.5 111
s145.333 34.5 220 34.5c42.667 0 76.5 -2.33301 101.5 -7s59.667 -12.167 104 -22.5s78.166 -15.5 101.499 -15.5c28.667 0 53.334 12.333 74.001 37z" />
    <glyph glyph-name="T" unicode="T" horiz-adv-x="1188" 
d="M705 266c0 -54.667 2.33301 -98.167 7 -130.5s16.5 -59.5 35.5 -81.5s49.167 -34 90.5 -36v-18h-492v18c41.333 2 71.5 13.167 90.5 33.5s30.833 45.833 35.5 76.5s7 72.667 7 126v987c-126.667 0 -229.167 -21.667 -307.5 -65s-136.833 -114.333 -175.5 -213l-19 6
l101 405c8 -10.667 20.833 -17.667 38.5 -21s45.167 -5 82.5 -5h786c37.333 0 64.833 1.66699 82.5 5s30.5 10.333 38.5 21l100 -405l-18 -6c-38.667 98.667 -97.167 169.667 -175.5 213s-180.833 65 -307.5 65v-975z" />
    <glyph glyph-name="U" unicode="U" horiz-adv-x="1393" 
d="M184 1081c0 51.333 -2.33301 92.998 -7 124.998s-16.667 59.833 -36 83.5s-49.333 36.834 -90 39.501l-2 19h494v-19c-59.333 -0.666992 -96.333 -19.667 -111 -57s-22 -96.666 -22 -177.999v-660c0 -229.333 110.333 -344 331 -344c126.667 0 221.5 31.5 284.5 94.5
s94.5 148.833 94.5 257.5v639c0 59.333 -2.33301 105.333 -7 138s-16.5 59.167 -35.5 79.5s-49.167 30.5 -90.5 30.5v19h399v-19c-58.667 -7.33301 -95.5 -30.5 -110.5 -69.5s-22.5 -94.167 -22.5 -165.5v-568c0 -108 -13.5 -197.833 -40.5 -269.5
s-65.167 -128.334 -114.5 -170.001s-105.833 -71 -169.5 -88s-135.5 -25.5 -215.5 -25.5c-66.667 0 -134.167 8.5 -202.5 25.5s-127.833 42.167 -178.5 75.5c-59.333 37.333 -98.833 82.833 -118.5 136.5s-29.5 122.834 -29.5 207.501v663z" />
    <glyph glyph-name="V" unicode="V" horiz-adv-x="1352" 
d="M1020 1085c5.33301 14.667 11.168 31.6689 17.501 51.002s11.166 37.833 14.499 55.5s5 32.167 5 43.5c0 55.333 -30.667 86.666 -92 93.999v19h364v-19c-23.333 -2.66699 -44 -11 -62 -25s-32.667 -31.5 -44 -52.5s-21.5 -43.5 -30.5 -67.5l-25.5 -68l-352 -936
c-18 -50 -27 -83.333 -27 -100c0 -34.667 21.333 -55.334 64 -62.001v-18h-393v18c42 6.66699 63 28.667 63 66c0 20.667 -9.33301 59.667 -28 117l-316 907c-22.667 68.667 -44 121.167 -64 157.5s-50.333 57.5 -91 63.5v19h448v-19c-57.333 -12.667 -86 -44 -86 -94
c0 -12 2.33301 -28.167 7 -48.5s9.5 -37.833 14.5 -52.5l17.5 -51l283 -870z" />
    <glyph glyph-name="W" unicode="W" horiz-adv-x="1843" 
d="M1509 1100c8.66699 34.667 12.999 65.334 12.999 92.001c0 82.667 -39.667 128.334 -119 137.001v19h399v-19c-39.333 -2.66699 -70.666 -16.834 -93.999 -42.501s-40 -53.834 -50 -84.501s-21.333 -73.667 -34 -129l-190 -883c-8.66699 -32 -13 -62.667 -13 -92
c0 -47.333 18 -74 54 -80v-18h-418v18c31.333 7.33301 47 30 47 68c0 12.667 -2.66699 32.334 -8 59.001l-191 852l-180 -819c-10.667 -50 -16 -81.333 -16 -94c0 -38 18.333 -60 55 -66v-18h-422v18c39.333 9.33301 59 32 59 68c0 11.333 -2.66699 30.333 -8 57l-219 981
c-5.33301 29.333 -10 54 -14 74s-10 39.5 -18 58.5s-20.333 35.167 -37 48.5s-38 21.333 -64 24v19h442v-19c-66.667 -6.66699 -100 -43.334 -100 -110.001c0 -22.667 6.66699 -66.667 20 -132l203 -921l209 958c9.33301 45.333 14 76.333 14 93c0 64.667 -34 102 -102 112
v19h467v-19c-75.333 -5.33301 -113 -38 -113 -98c0 -22 5.66699 -56.333 17 -103l213 -962z" />
    <glyph glyph-name="X" unicode="X" horiz-adv-x="1393" 
d="M1204 174c34.667 -51.333 63.5 -88.3359 86.5 -111.003s56.5 -37.667 100.5 -45v-18h-537v18c65.333 8.66699 98 36.667 98 84c0 34 -16.333 75.667 -49 125l-264 396l-193 -287c-38 -58.667 -66.833 -106.667 -86.5 -144s-29.5 -70 -29.5 -98c0 -42.667 30 -68 90 -76
v-18h-418v18c45.333 8 81.333 26.833 108 56.5s61.667 75.834 105 138.501l358 514l-229 346l-55 82.5c-18 25.667 -38.5 51.5 -61.5 77.5s-47.667 47.833 -74 65.5s-52.833 27.834 -79.5 30.501v19h522v-19c-58.667 -8.66699 -88 -32.667 -88 -72
c0 -28 19.667 -72.333 59 -133l138 -204l135 192c53.333 76.667 80 131.334 80 164.001c0 31.333 -22 49 -66 53v19h397v-19c-40 -3.33301 -76.167 -16.333 -108.5 -39s-59.5 -48.167 -81.5 -76.5s-50 -66.833 -84 -115.5l-199 -283z" />
    <glyph glyph-name="Y" unicode="Y" horiz-adv-x="1229" 
d="M715 268c0 -79.333 7.50098 -140.002 22.501 -182.002s51.833 -64.667 110.5 -68v-18h-492v18c41.333 4.66699 71.5 17.667 90.5 39s30.833 47 35.5 77s7 70 7 120v369l-327 516c-40 63.333 -72.833 110 -98.5 140s-59.834 46.667 -102.501 50v19h528v-19
c-66.667 -3.33301 -100 -30 -100 -80c0 -45.333 27.333 -110 82 -194l191 -305l188 309c30 48.667 52.833 89.334 68.5 122.001s23.5 60.334 23.5 83.001c0 40 -30 61.667 -90 65v19h397v-19c-25.333 -2.66699 -47.666 -9.33398 -66.999 -20.001
s-35.833 -23.167 -49.5 -37.5s-27.834 -31.666 -42.501 -51.999l-46 -66.5l-329 -530v-355z" />
    <glyph glyph-name="Z" unicode="Z" horiz-adv-x="1188" 
d="M979 -27c-6.66699 11.333 -16.999 18.667 -30.999 22s-37.667 5 -71 5h-871l793 1245l-154 8c-6.66699 0.666992 -13 1.16699 -19 1.5s-13.333 0.5 -22 0.5c-76 0 -146.667 -11.333 -212 -34s-123 -58.667 -173 -108s-88.333 -110.333 -115 -183l-18 4l104 440
c8.66699 -10.667 21.5 -17.667 38.5 -21s42.5 -5 76.5 -5h819l-798 -1246l153 -8c10 0 18 -0.166992 24 -0.5s12.333 -0.833008 19 -1.5c91.333 0 177.666 14.5 258.999 43.5s154.333 72.333 219 130s117 127.5 157 209.5l19 -6z" />
    <glyph glyph-name="bracketleft" unicode="[" horiz-adv-x="614" 
d="M289 12l174.001 -179.999c17.333 -21.333 39 -39 65 -53h-221c2.66699 8 4 13.333 4 16c0 12.667 -13 34 -39 64l-96 100c-26 27.333 -47 44.333 -63 51v6c12 15.333 18 47 18 95v958c0 48 -6 79.333 -18 94v6c21.333 13.333 42.333 30.666 63 51.999l113 118l9.5 15.5
c3 5 5.83301 10.333 8.5 16s4 10.167 4 13.5s-1.33301 9 -4 17h221c-22.667 -12 -53.334 -38.667 -92.001 -80l-147 -152v-1157z" />
    <glyph glyph-name="backslash" unicode="\" horiz-adv-x="1106" 
d="M154 1348h129l563 -1348h-127z" />
    <glyph glyph-name="bracketright" unicode="]" horiz-adv-x="614" 
d="M326 1169l-174 181.001c-20 23.333 -42 40.333 -66 51h221c-2.66699 -8 -4 -13 -4 -15c0 -3.33301 1.16699 -8 3.5 -14s6 -12.333 11 -19s9.83301 -12.667 14.5 -18s8 -9.33301 10 -12l96 -100c24.667 -27.333 46 -42.333 64 -45v-7
c-12.667 -16.667 -19 -50.667 -19 -102v-958c0 -46.667 6.33301 -78.334 19 -95.001v-6c-12.667 -4 -34 -21 -64 -51l-112 -119l-10 -14.5c-3.33301 -5 -6.33301 -10.333 -9 -16s-4 -10.5 -4 -14.5c0 -2.66699 1.33301 -8 4 -16h-221c23.333 11.333 54 38 92 80l148 151
v1159z" />
    <glyph glyph-name="asciicircum" unicode="^" horiz-adv-x="1229" 
d="M662 1348l325 -709h-119l-262 571l-258 -571h-115l324 709h105z" />
    <glyph glyph-name="underscore" unicode="_" horiz-adv-x="1024" 
d="M1024 -135v-160h-1024v160h1024z" />
    <glyph glyph-name="grave" unicode="`" horiz-adv-x="655" 
d="M471 1137l-209 96c-40 18 -71.167 35.667 -93.5 53s-33.5 42 -33.5 74c0 29.333 10.333 54 31 74s45.334 30 74.001 30c37.333 0 76.666 -28.667 117.999 -86l148 -198z" />
    <glyph glyph-name="a" unicode="a" horiz-adv-x="1147" 
d="M872 0c-44 56.667 -67.0049 118.003 -69.0049 184.003c-38 -68.667 -94.167 -119.834 -168.5 -153.501s-154.166 -50.5 -239.499 -50.5c-95.333 0 -173 21.333 -233 64s-90 101 -90 175c0 75.333 24.333 139.5 73 192.5s109.5 95.5 182.5 127.5s157.667 59.833 254 83.5
l204.5 49.5v39c0 75.333 -15.333 128.166 -46 158.499s-84 45.5 -160 45.5c-98.667 0 -186 -23.667 -262 -71s-134.333 -116.333 -175 -207l33 336c24.667 -18 45.334 -27 62.001 -27c14 0 37 5.66699 69 17c66.667 23.333 125.334 40.333 176.001 51s110.334 16 179.001 16
c68 0 123.5 -6 166.5 -18s77.833 -31.333 104.5 -58s45.834 -61.334 57.501 -104.001s17.5 -97.334 17.5 -164.001v-385c0 -55.333 2.5 -100.333 7.5 -135s18.167 -65.667 39.5 -93s54 -45.666 98 -54.999v-18h-281zM785.995 588.003
c-119.333 -25.333 -229.334 -65.667 -330.001 -121s-151 -129 -151 -221c0 -46 16.333 -82.833 49 -110.5s71.667 -41.5 117 -41.5c114.667 0 195.834 41.167 243.501 123.5s71.5 188.833 71.5 319.5v51z" />
    <glyph glyph-name="b" unicode="b" horiz-adv-x="1311" 
d="M430 1401v-379l139 8c8.66699 0.666992 16.334 1.16699 23.001 1.5s14.667 0.5 24 0.5c117.333 0 221.666 -24 312.999 -72s162.5 -114.833 213.5 -200.5s76.5 -180.5 76.5 -284.5c0 -75.333 -12.167 -142.5 -36.5 -201.5s-61 -108.833 -110 -149.5
s-110.5 -71.5 -184.5 -92.5s-160.333 -31.5 -259 -31.5h-531v18c53.333 8 87.166 31.5 101.499 70.5s21.5 93.5 21.5 163.5v844c0 78 -7.16699 136.333 -21.5 175s-48.166 58 -101.499 58v19zM430 252c0 -39.333 3.83203 -69.4971 11.499 -90.4971s24.5 -36.667 50.5 -47
s65.333 -15.833 118 -16.5c82 0 152 16.167 210 48.5s102 78 132 137s45 127.5 45 205.5c0 63.333 -11.167 122.166 -33.5 176.499s-53.666 101.166 -93.999 140.499s-88.5 70.166 -144.5 92.499s-114.667 33.5 -176 33.5l-119 -8v-672z" />
    <glyph glyph-name="c" unicode="c" horiz-adv-x="1106" 
d="M973 -14c-16.667 6.66699 -31 10 -43 10l-37 -2l-59 -6l-136 -8c-110.667 0 -213 22.333 -307 67s-168.667 109.5 -224 194.5s-83 184.167 -83 297.5c0 92 20.167 175.5 60.5 250.5s97.166 133.833 170.499 176.5s156 64 248 64l146 -10l131 -12
c34 0 62.667 7.33301 86 22l59 -315l-12 -6c-34.667 70 -80.667 124.667 -138 164s-123.333 59 -198 59c-68.667 0 -128.167 -19.333 -178.5 -58s-88.5 -89.5 -114.5 -152.5s-39 -128.833 -39 -197.5c0 -116 35 -215 105 -297c37.333 -44 82.5 -79.833 135.5 -107.5
s106.833 -41.5 161.5 -41.5c72.667 0 141.834 19.167 207.501 57.5s115.167 89.5 148.5 153.5l14 -8z" />
    <glyph glyph-name="d" unicode="d" 
d="M1092 1401l0.000976562 -1149c0 -72.667 7 -129 21 -169s47.667 -61.667 101 -65v-18h-512c-46 -0 -94.167 2.33301 -144.5 7s-98.5 13.667 -144.5 27s-87.333 32.666 -124 57.999c-64 44.667 -114.167 104.667 -150.5 180s-54.5 152.666 -54.5 231.999
c0 116 24.5 213.333 73.5 292s117.5 137.334 205.5 176.001s187.667 58 299 58l221 -12v80c0 70.667 -7.33301 126.834 -22 168.501s-48.334 62.5 -101.001 62.5v19zM883.001 705c0 76 -11.001 132.834 -33.001 170.501s-76.667 56.5 -164 56.5
c-119.333 0 -212.666 -41 -279.999 -123s-101 -185 -101 -309c0 -134.667 44 -237.334 132 -308.001s200.333 -106 337 -106c32 0 68.333 4.66699 109 14v605z" />
    <glyph glyph-name="e" unicode="e" horiz-adv-x="1188" 
d="M315 461c11.333 -70 37.002 -134.166 77.002 -192.499s90.667 -104.666 152 -138.999s127 -51.5 197 -51.5c39.333 0 82.833 10 130.5 30s86.834 43.333 117.501 70c36.667 32 73 84 109 156l18 -8l-106 -338c-14.667 9.33301 -30.334 14 -47.001 14
c-10 0 -23 -1.33301 -39 -4l-215 -18c-67.333 0 -138 10.333 -212 31s-142.333 52.5 -205 95.5s-113.334 98 -152.001 165s-58 144.5 -58 232.5c0 99.333 23.833 189.166 71.5 269.499s112.667 143.166 195 188.499s173.166 68 272.499 68
c112.667 0 213.167 -31.667 301.5 -95s146.833 -149 175.5 -257zM858.002 705.001c-21.333 63.333 -53.834 117.001 -97.501 161.001s-96.5 66 -158.5 66c-64 0 -118.667 -17.667 -164 -53s-79.166 -82.833 -101.499 -142.5s-33.5 -122.834 -33.5 -189.501z" />
    <glyph glyph-name="f" unicode="f" horiz-adv-x="696" 
d="M182 903h-134.999v19c54.667 5.33301 91 21.333 109 48s28.667 70 32 130c4.66699 58 13.334 106.333 26.001 145s35.667 74.334 69 107.001c38 37.333 83.667 65.333 137 84s108 28 164 28c62 0 130 -12.333 204 -37l-67 -215l-14 2c0 48 -12.667 85 -38 111
s-60 39 -104 39c-77.333 0 -126 -27.333 -146 -82s-30 -129 -30 -223v-68h117c61.333 0 103.666 11 126.999 33l-55 -139c-6.66699 12 -30.667 18 -72 18h-115v-651c0 -52.667 2 -94.334 6 -125.001s15 -56.5 33 -77.5s46 -31.5 84 -31.5v-18h-455v18
c53.333 5.33301 87.166 27.333 101.499 66s21.5 94.667 21.5 168v651z" />
    <glyph glyph-name="g" unicode="g" horiz-adv-x="1106" 
d="M1081 1010l0.00195312 -19.001c-50.667 -2.66699 -83.834 -17.667 -99.501 -45s-23.5 -66.333 -23.5 -117v-71v-539c0 -39.333 3 -68 9 -86s22.333 -40.333 49 -67c30 -28.667 52.5 -55.667 67.5 -81s22.5 -56.666 22.5 -93.999c0 -52 -15.167 -99.667 -45.5 -143
s-71.166 -79.5 -122.499 -108.5s-110.833 -51 -178.5 -66s-135.834 -22.5 -204.501 -22.5c-104 0 -202.333 15.333 -295 46s-172.667 79.667 -240 147l230 231l10 -12c-19.333 -33.333 -29 -63.333 -29 -90c0 -67.333 30.667 -122.333 92 -165s139.333 -64 234 -64
c62 0 118.833 9.16699 170.5 27.5s91.5 43.666 119.5 75.999s42 69.5 42 111.5c0 60.667 -18.5 99.334 -55.5 116.001s-90.167 25 -159.5 25c-60 0 -114.333 2 -163 6s-96 13.333 -142 28s-89.667 36.667 -131 66c-46.667 33.333 -86 73.166 -118 119.499
s-55.833 96.833 -71.5 151.5s-23.5 110.667 -23.5 168c0 76.667 11.333 144.834 34 204.501s55.167 109 97.5 148s94.166 68.5 155.499 88.5s129.333 30 204 30h565zM750.002 761.999c0 66.667 -9.66699 111 -29 133c-28.667 22 -73.667 33 -135 33
c-74 0 -136.5 -17.833 -187.5 -53.5s-89.167 -83.167 -114.5 -142.5s-38 -125 -38 -197c0 -87.333 19 -164.5 57 -231.5s88.167 -118 150.5 -153s128.833 -52.5 199.5 -52.5l97 6v658z" />
    <glyph glyph-name="h" unicode="h" 
d="M399 1401v-602c46 45.333 91.5 84.666 136.5 117.999s93.5 60.5 145.5 81.5s105 31.5 159 31.5c85.333 0 146.166 -26.167 182.499 -78.5s54.5 -133.166 54.5 -242.499v-457c0 -72.667 7.33301 -128.834 22 -168.501s49.667 -62.167 105 -67.5v-16h-454v16
c35.333 4.66699 61.666 18.334 78.999 41.001s28.166 49.167 32.499 79.5s6.5 69.5 6.5 117.5v364c0 81.333 -8.66699 145.833 -26 193.5s-59 71.5 -125 71.5c-44 0 -89.167 -13.5 -135.5 -40.5s-83.166 -58.5 -110.499 -94.5c-31.333 -40 -51.166 -80.833 -59.499 -122.5
s-12.5 -94.5 -12.5 -158.5v-213c0 -48.667 2.16699 -88 6.5 -118s15.333 -56.333 33 -79s44.834 -36.334 81.501 -41.001v-16h-452v18c37.333 5.33301 64.833 19.5 82.5 42.5s28.667 49.333 33 79s6.5 67.834 6.5 114.501v842c0 50 -2.16699 90.167 -6.5 120.5
s-15.333 56.5 -33 78.5s-45.167 33.333 -82.5 34v19z" />
    <glyph glyph-name="i" unicode="i" horiz-adv-x="573" 
d="M391 1010v-758c0 -72.667 7 -129 21 -169s48 -61.667 102 -65v-18h-455v18c53.333 5.33301 87.166 27.5 101.499 66.5s21.5 94.833 21.5 167.5v479c0 72.667 -7.16699 128.5 -21.5 167.5s-48.166 61.167 -101.499 66.5v18zM147 1288c0 28 5.66699 53.6689 17 77.002
s27.333 41.666 48 54.999s45.667 20 75 20c38 0 70.333 -14.667 97 -44s40 -63.333 40 -102c0 -24.667 -5.66699 -49 -17 -73s-27.5 -43.333 -48.5 -58s-44.167 -22 -69.5 -22c-40.667 0 -74.5 14.167 -101.5 42.5s-40.5 63.166 -40.5 104.499z" />
    <glyph glyph-name="j" unicode="j" horiz-adv-x="655" 
d="M477 1010v-1020v-47c0 -56.667 -3.83301 -105.834 -11.5 -147.501s-24.167 -77.834 -49.5 -108.501c-34 -41.333 -80.333 -71.833 -139 -91.5s-119.667 -29.5 -183 -29.5c-40.667 0 -81.5 3.83301 -122.5 11.5s-80.333 18.834 -118 33.501s-76.167 33.667 -115.5 57
l196 250l13 -6c-18 -34.667 -27 -68 -27 -100c0 -44.667 16.667 -81.167 50 -109.5s72 -42.5 116 -42.5c55.333 0 96.166 14 122.499 42s42.833 64.833 49.5 110.5s10 106.167 10 181.5v737c0 72.667 -7.16699 128.5 -21.5 167.5s-48.166 61.167 -101.499 66.5v18zM231 1300
c0 26.667 5.66602 51.8311 16.999 75.498s27.833 42.334 49.5 56.001s46.167 20.5 73.5 20.5c38 0 70.333 -14.667 97 -44s40 -63 40 -101c0 -40 -12.667 -75.667 -38 -107s-57 -47 -95 -47c-41.333 0 -75.666 14.333 -102.999 43s-41 63.334 -41 104.001z" />
    <glyph glyph-name="k" unicode="k" horiz-adv-x="1188" 
d="M199 1096c0 50.667 -1.99902 90.9951 -5.99902 120.995s-15.167 56 -33.5 78s-46.166 33.333 -83.499 34v19l332 53v-834l270 260c50.667 47.333 76 87 76 119c0 24.667 -19.333 39.667 -58 45v19h418v-19c-35.333 -5.33301 -68.5 -15 -99.5 -29
s-60.667 -31.167 -89 -51.5s-54.333 -40.833 -78 -61.5l-87.5 -77l-51 -45c56 -53.333 107.167 -111.166 153.5 -173.499s87.166 -123.666 122.499 -183.999s77.666 -137.166 126.999 -230.499c6 -10 13.333 -23.333 22 -40s17.167 -30 25.5 -40s18.333 -18.667 30 -26
s26.834 -12.333 45.501 -15v-18h-436v18c46 9.33301 69 31.333 69 66c0 38.667 -18.167 93.834 -54.5 165.501s-79.833 141.667 -130.5 210s-93.334 115.833 -128.001 142.5l-147 -131v-217c0 -54.667 2 -97.5 6 -128.5s14.833 -56.667 32.5 -77s45.5 -30.5 83.5 -30.5v-18
h-454v18c54 6 88 28.333 102 67s21 94.334 21 167.001v844z" />
    <glyph glyph-name="l" unicode="l" horiz-adv-x="573" 
d="M391 1401v-1149c0 -72.667 7 -129 21 -169s48 -61.667 102 -65v-18h-455v18c37.333 4.66699 65.166 18.5 83.499 41.5s29.5 49 33.5 78s6 67.167 6 114.5v844c0 75.333 -7.16699 132.333 -21.5 171s-48.166 59.334 -101.499 62.001v19z" />
    <glyph glyph-name="m" unicode="m" horiz-adv-x="1925" 
d="M178 731c0 72.667 -7.16602 128.502 -21.499 167.502s-48.166 61.167 -101.499 66.5v18l279 27c30.667 -52.667 48.334 -125.667 53.001 -219c158 159.333 304.667 239 440 239c70.667 0 126.334 -20.333 167.001 -61s65 -96.667 73 -168
c48.667 44 95.5 82.167 140.5 114.5s93.5 59.5 145.5 81.5s104 33 156 33c54 0 98.167 -13 132.5 -39s59.833 -63.333 76.5 -112s25 -104.667 25 -168v-459c0 -72.667 7.16699 -129 21.5 -169s49.5 -61.667 105.5 -65v-18h-451v18c35.333 4.66699 61.166 18.167 77.499 40.5
s26.666 48.333 30.999 78s6.5 68.167 6.5 115.5v375c0 51.333 -3.5 95.666 -10.5 132.999s-22.333 67.166 -46 89.499s-58.167 33.5 -103.5 33.5s-90.5 -14.333 -135.5 -43s-81.167 -63 -108.5 -103c-29.333 -44.667 -47.5 -90.5 -54.5 -137.5s-10.5 -107.5 -10.5 -181.5
v-166c0 -72.667 7.16699 -129 21.5 -169s50.166 -61.667 107.499 -65v-18h-455v18c51.333 5.33301 83.666 27.5 96.999 66.5s20 94.833 20 167.5v375c0 80.667 -10.167 143.5 -30.5 188.5s-62.166 67.5 -125.499 67.5c-38 0 -77.333 -11 -118 -33s-75 -48 -103 -78
c-36.667 -40 -61.167 -82.167 -73.5 -126.5s-18.5 -98.5 -18.5 -162.5v-231c0 -70.667 6.83301 -126 20.5 -166s47.167 -62.667 100.5 -68v-18h-453v18c53.333 5.33301 87.166 27.5 101.499 66.5s21.5 94.833 21.5 167.5v479z" />
    <glyph glyph-name="n" unicode="n" 
d="M190 733c0 72.667 -6.83398 128.33 -20.501 166.997s-45.5 60.334 -95.5 65.001v18l274 27c31.333 -56.667 48.333 -128.334 51 -215.001c152.667 156.667 291.334 235 416.001 235c101.333 0 170.333 -29.167 207 -87.5s55 -143.166 55 -254.499v-434
c0 -49.333 2.16699 -89.166 6.5 -119.499s15.5 -56.666 33.5 -78.999s45.667 -34.833 83 -37.5v-18h-455v18c53.333 5.33301 87.166 27.5 101.499 66.5s21.5 95.5 21.5 169.5v354c0 90 -11 158.333 -33 205s-64 70 -126 70c-30 0 -60.5 -6.83301 -91.5 -20.5
s-60.333 -32.167 -88 -55.5s-50.5 -48 -68.5 -74c-27.333 -40.667 -44.5 -80.334 -51.5 -119.001s-10.5 -91.667 -10.5 -159v-201c0 -48 2.16699 -87 6.5 -117s15.333 -56.5 33 -79.5s44.834 -36.833 81.501 -41.5v-16h-452v18c54 6 87.833 28.333 101.5 67
s20.5 94.334 20.5 167.001v481z" />
    <glyph glyph-name="o" unicode="o" 
d="M74 498c0 106 25 199.502 75 280.502s118.167 143.167 204.5 186.5s182.833 65 289.5 65c80 0 153 -11.167 219 -33.5s124 -55.5 174 -99.5s88.833 -98.333 116.5 -163s41.5 -136.667 41.5 -216c0 -83.333 -14.167 -157.833 -42.5 -223.5s-68.5 -121.834 -120.5 -168.501
s-113.167 -82.667 -183.5 -108s-145.166 -38 -224.499 -38c-78.667 0 -150.834 11.667 -216.501 35s-123.667 57.666 -174 102.999s-89.333 100.5 -117 165.5s-41.5 136.5 -41.5 214.5zM307 539.002c0 -74.667 11.502 -147.332 34.502 -217.999
s59.5 -128.834 109.5 -174.501s113.333 -68.5 190 -68.5c64 0 120.5 19 169.5 57s86.333 88.833 112 152.5s38.5 130.834 38.5 201.501c0 72.667 -11.333 143 -34 211s-58.834 123.667 -108.501 167s-112.167 65 -187.5 65c-108.667 0 -189.834 -37.333 -243.501 -112
s-80.5 -168.334 -80.5 -281.001z" />
    <glyph glyph-name="p" unicode="p" 
d="M608 1010c120 0 224.332 -19.165 312.999 -57.498s157.334 -96.333 206.001 -174s73 -173.167 73 -286.5c0 -107.333 -24.333 -198 -73 -272s-116.834 -129.167 -204.501 -165.5s-187.5 -54.5 -299.5 -54.5l-224 8v-186c0 -48.667 2.16699 -88.334 6.5 -119.001
s15.333 -57.167 33 -79.5s44.834 -34.833 81.501 -37.5v-18h-454v18c54 3.33301 87.833 24.666 101.5 63.999s20.5 96 20.5 170v938c0 74 -6.83301 130.5 -20.5 169.5s-47.5 60.167 -101.5 63.5v19h542zM396.999 924.002l-0.00195312 -635
c0 -51.333 4.5 -90.833 13.5 -118.5s28.333 -48.667 58 -63s74.834 -21.5 135.501 -21.5c77.333 0 144.333 18.5 201 55.5s99.834 87.5 129.501 151.5s44.5 134.333 44.5 211c0 130 -40.667 232.5 -122 307.5s-187.333 112.5 -318 112.5h-142z" />
    <glyph glyph-name="q" unicode="q" 
d="M682 0c-121.333 0 -227.331 23.5 -317.998 70.5s-160.667 110.667 -210 191s-74 168.5 -74 264.5c0 152.667 54 275.667 162 369c28 24.667 58.167 44.5 90.5 59.5s66.666 26.5 102.999 34.5s73 13.5 110 16.5s75.833 4.5 116.5 4.5h536v-19
c-53.333 -2.66699 -87.166 -24 -101.499 -64s-21.5 -96.333 -21.5 -169v-936c0 -72.667 7.16699 -129.334 21.5 -170.001s48.166 -62.667 101.499 -66v-18h-455v18c53.333 3.33301 87.166 24.833 101.499 64.5s21.5 96.834 21.5 171.501v186zM866.002 723
c0 61.333 -3.83398 104.833 -11.501 130.5s-25.167 43.834 -52.5 54.501s-73.333 16 -138 16c-71.333 0 -134.666 -17.5 -189.999 -52.5s-98 -82.167 -128 -141.5s-45 -124.333 -45 -195c0 -82.667 18.333 -157.334 55 -224.001s89 -119.167 157 -157.5
s146.333 -57.5 235 -57.5l118 8v619z" />
    <glyph glyph-name="r" unicode="r" horiz-adv-x="778" 
d="M178 731c0 72.667 -7.16797 128.499 -21.501 167.499s-48.166 61.167 -101.499 66.5v18l283 27c29.333 -61.333 45 -136.666 47 -225.999c17.333 42 44.833 82.167 82.5 120.5s80 68.833 127 91.5s93.167 34 138.5 34l70 -12l-45 -205c-42.667 28.667 -85 43 -127 43
c-90 0 -153.167 -37.167 -189.5 -111.5s-54.5 -170.166 -54.5 -287.499v-164c0 -68.667 2 -119.334 6 -152.001s14.833 -59.667 32.5 -81s45.834 -35.333 84.501 -42v-18h-455v18c53.333 6 87.166 28.5 101.499 67.5s21.5 94.5 21.5 166.5v479z" />
    <glyph glyph-name="s" unicode="s" horiz-adv-x="1024" 
d="M877 682l-14.999 -2.00293c-8.66699 50.667 -31.167 95.334 -67.5 134.001s-80.333 68 -132 88s-103.167 30 -154.5 30c-30.667 0 -61 -4 -91 -12s-55.5 -21.667 -76.5 -41s-31.5 -44.666 -31.5 -75.999c0 -46 21.833 -78.667 65.5 -98s122.5 -45.5 236.5 -78.5
s200.333 -71 259 -114s88 -104.5 88 -184.5c0 -56 -12.667 -106 -38 -150s-59.166 -80.333 -101.499 -109s-90 -50.667 -143 -66s-106.167 -23 -159.5 -23c-52 0 -103.333 4.33301 -154 13s-99.834 18.834 -147.501 30.501s-75.5 17.5 -83.5 17.5
c-18 0 -35 -9.66699 -51 -29l-17 402l17 4c7.33301 -65.333 30 -124.333 68 -177s86.667 -93 146 -121s122.333 -42 189 -42c38.667 0 79.167 7.16699 121.5 21.5s77.166 36 104.499 65s41 63.5 41 103.5c0 51.333 -23.333 87.666 -70 108.999s-126.667 49 -240 83
s-198.333 72.167 -255 114.5s-85 104.166 -85 185.499c0 62.667 19.333 114.334 58 155.001s87.5 70 146.5 88s118.5 27 178.5 27c48 0 91.333 -3.16699 130 -9.5s79 -14.166 121 -23.499s68.333 -14 79 -14c18.667 0 35 5.33301 49 16z" />
    <glyph glyph-name="t" unicode="t" horiz-adv-x="696" 
d="M137 903h-134.998v19c55.333 13.333 97.833 44 127.5 92s44.5 102.667 44.5 164c0 22.667 -4 57.334 -12 104.001l184 82v-373h164c32 0 57.333 2 76 6s37 13.667 55 29l-57 -145c-14 14.667 -43.333 22 -88 22h-150v-598c0 -46 3.66699 -84.167 11 -114.5
s21.5 -53.333 42.5 -69s51.833 -23.5 92.5 -23.5c77.333 0 142 31.667 194 95l12 -7l-69 -168c-80 -25.333 -165.333 -38 -256 -38c-62.667 0 -111.334 12.667 -146.001 38s-58.334 59.666 -71.001 102.999s-19 96 -19 158v624z" />
    <glyph glyph-name="u" unicode="u" 
d="M918 0c-22.667 55.333 -36.332 125 -40.999 209c-52.667 -47.333 -100.667 -86.666 -144 -117.999s-90 -57.666 -140 -78.999s-101.667 -32 -155 -32c-163.333 0 -245 101.667 -245 305v446c0 72 -7 128.167 -21 168.5s-48 62.166 -102 65.499v18l331 27v-617
c0 -96.667 10.167 -165.834 30.5 -207.501s60.166 -62.5 119.499 -62.5c48 0 96.333 14.333 145 43s87 64 115 106s46 87.167 54 135.5s12 106.5 12 174.5v149c0 73.333 -7 130 -21 170s-48 61.333 -102 64v18l331 27v-762c0 -68.667 7.5 -124.167 22.5 -166.5
s49.833 -63.5 104.5 -63.5v-18h-294z" />
    <glyph glyph-name="v" unicode="v" horiz-adv-x="1106" 
d="M838 846c14.667 42.667 22.001 71.335 22.001 86.002c0 37.333 -23 57 -69 59v19h301v-19c-20 -2 -37.833 -8.66699 -53.5 -20s-28.667 -25.333 -39 -42s-21.5 -39.834 -33.5 -69.501s-18.667 -45.834 -20 -48.501l-260 -643c-19.333 -46 -29 -79.333 -29 -100
c0 -24.667 15 -41.334 45 -50.001v-18h-340v18c30.667 4.66699 46 19 46 43c0 15.333 -7.66699 43.333 -23 84l-248 684c-20.667 58.667 -37.834 100.167 -51.501 124.5s-37.5 36.833 -71.5 37.5v19h406v-19c-50.667 -5.33301 -76 -29.666 -76 -72.999c0 -24 9 -63 27 -117
l211 -635z" />
    <glyph glyph-name="w" unicode="w" horiz-adv-x="1556" 
d="M1286 791c19.333 70.667 29 114.338 29 131.005c0 42.667 -24 65.667 -72 69v19h316v-19c-24.667 0 -45.5 -6.5 -62.5 -19.5s-30.333 -28.333 -40 -46s-20.167 -43.334 -31.5 -77.001s-18 -53.834 -20 -60.501l-207 -641c-13.333 -45.333 -20 -74.666 -20 -87.999
c0 -25.333 14.333 -39 43 -41v-18h-312v18c22 2 33 13 33 33c0 17.333 -6 42.666 -18 75.999l-164 453l-162 -465c-10.667 -30.667 -16 -51.334 -16 -62.001c0 -18.667 11.333 -30.334 34 -35.001v-18h-303v18c26 6 39 21 39 45c0 16 -6 45 -18 87l-199 665
c-18 60.667 -34.667 105.167 -50 133.5s-42.333 42.5 -81 42.5v19h404v-19c-45.333 -3.33301 -68 -29.333 -68 -78c0 -22.667 6 -57.334 18 -104.001l166 -653l275 837h16l291 -805z" />
    <glyph glyph-name="x" unicode="x" horiz-adv-x="1147" 
d="M979 160l41.5029 -57.999c15.667 -22 32.667 -40.833 51 -56.5s37.833 -24.834 58.5 -27.501v-18h-423v18c42 6.66699 63 22.667 63 48c0 17.333 -7 38.333 -21 63s-33 54 -57 88l-153 232l-148 -185c-44.667 -56 -76.334 -99 -95.001 -129s-28 -54 -28 -72
c0 -23.333 20.667 -38.333 62 -45v-18h-316v18c32 6.66699 59.167 21 81.5 43s48.5 53 78.5 93l307 376l-172 248c-46.667 70 -84.334 122.5 -113.001 157.5s-61.334 53.5 -98.001 55.5v19h441v-19c-45.333 -3.33301 -68 -20.333 -68 -51c0 -28 21.333 -73 64 -135l77 -115
l93 121c29.333 40.667 49.5 69.834 60.5 87.501s16.5 34.167 16.5 49.5c0 25.333 -20.333 39.666 -61 42.999v19h342v-19c-26 -2 -51 -10.167 -75 -24.5s-46 -31 -66 -50s-40.5 -41.333 -61.5 -67l-59.5 -73.5l-137 -164z" />
    <glyph glyph-name="y" unicode="y" horiz-adv-x="1024" 
d="M766 768c0.666992 2 7.00195 18.834 19.002 50.501s20 54.667 24 69s6 27.833 6 40.5c0 36.667 -24 57.667 -72 63v19h314v-19c-29.333 -3.33301 -53.333 -14 -72 -32s-33 -37.5 -43 -58.5s-23 -52.167 -39 -93.5l-348 -911c-28.667 -72.667 -56.667 -132 -84 -178
s-63.833 -83.5 -109.5 -112.5s-102.834 -43.5 -171.501 -43.5c-35.333 0 -69.833 6.16699 -103.5 18.5s-65.834 30.5 -96.501 54.5l127 277l16 -10c-5.33301 -16.667 -8 -35.334 -8 -56.001c0 -39.333 10.5 -72.666 31.5 -99.999s50.167 -41 87.5 -41
c61.333 0 108.666 26.833 141.999 80.5s50 112.167 50 175.5c0 68 -28.667 171.667 -86 311l-219 547c-20 52 -40.167 93.667 -60.5 125s-47.166 47 -80.499 47v19h411v-19c-44.667 -5.33301 -67 -26.333 -67 -63c0 -16.667 9.33301 -52.334 28 -107.001l211 -565z" />
    <glyph glyph-name="z" unicode="z" horiz-adv-x="1024" 
d="M362 104l193 -11.999c98.667 0 186 18.333 262 55s129.333 97 160 181l16 -4l-123 -344c-28.667 13.333 -83 20 -163 20h-656l629 913l-119 5c-216 0 -349.667 -64.333 -401 -193l-17 4l68 311c12 -12.667 27.333 -20.834 46 -24.501s41.667 -5.5 69 -5.5h665z" />
    <glyph glyph-name="braceleft" unicode="{" horiz-adv-x="573" 
d="M344 -4c0 -61.333 10.165 -107.999 30.498 -139.999s58.5 -57.667 114.5 -77c-48 0 -86.167 2.5 -114.5 7.5s-57.5 18.833 -87.5 41.5c-20.667 14.667 -36.167 33.167 -46.5 55.5s-16.833 44.166 -19.5 65.499s-4 48.666 -4 81.999v354
c0 35.333 -2.16699 63.166 -6.5 83.499s-15.166 40.833 -32.499 61.5c-27.333 34 -64 55.333 -110 64c61.333 16.667 101.5 39.334 120.5 68.001s28.5 75.667 28.5 141v313c0 70.667 7.16699 126 21.5 166s41 69.833 80 89.5s95.833 29.5 170.5 29.5
c-53.333 -15.333 -90.833 -40.166 -112.5 -74.499s-32.5 -80.5 -32.5 -138.5v-334c0 -50 -3.83301 -91.5 -11.5 -124.5s-23.667 -61.167 -48 -84.5s-59.166 -40.333 -104.499 -51c63.333 -14 106.5 -40.333 129.5 -79s34.5 -93 34.5 -163v-356z" />
    <glyph glyph-name="bar" unicode="|" horiz-adv-x="1229" 
d="M555 1348h117v-1348h-117v1348z" />
    <glyph glyph-name="braceright" unicode="}" horiz-adv-x="573" 
d="M213 1188c0 58.667 -10.834 105.001 -32.501 139.001s-59.167 58.667 -112.5 74c74.667 0 131.5 -9.83301 170.5 -29.5s65.667 -49.5 80 -89.5s21.5 -95.333 21.5 -166v-313c0 -64 9.33301 -110.667 28 -140s59 -52.333 121 -69
c-44.667 -8.66699 -81.334 -30 -110.001 -64c-17.333 -22 -28.166 -42.833 -32.499 -62.5s-6.5 -47.167 -6.5 -82.5v-354c0 -47.333 -4.16699 -87.333 -12.5 -120s-27.5 -60.334 -57.5 -83.001c-28.667 -22.667 -57.5 -36.5 -86.5 -41.5s-67.5 -7.5 -115.5 -7.5
c56 19.333 94.167 45 114.5 77s30.5 78.667 30.5 140v356c0 70 11.5 124.333 34.5 163s66.167 65 129.5 79c-45.333 10.667 -80.166 27.667 -104.499 51s-40.333 51.5 -48 84.5s-11.5 74.5 -11.5 124.5v334z" />
    <glyph glyph-name="asciitilde" unicode="~" horiz-adv-x="1229" 
d="M1126 559c-28.667 -41.333 -54.999 -74.9971 -78.999 -100.997s-51.833 -47.667 -83.5 -65s-68.834 -26 -111.501 -26c-40.667 0 -78.834 5.5 -114.501 16.5s-77.667 27.167 -126 48.5s-88.833 37.666 -121.5 48.999s-66.334 17 -101.001 17
c-45.333 0 -82.666 -13 -111.999 -39s-59.666 -63.667 -90.999 -113l-86 57c40.667 64.667 83.167 115 127.5 151s99.5 54 165.5 54c34 0 71.167 -6.16699 111.5 -18.5s87 -29.333 140 -51s94.333 -37.334 124 -47.001s56.834 -14.5 81.501 -14.5
c29.333 0 55 6.16699 77 18.5s40.167 26.666 54.5 42.999s33.166 41.5 56.499 75.5z" />
    <glyph glyph-name="sterling" unicode="&#xa3;" horiz-adv-x="1065" 
d="M666 1079c0 55.333 -2.3291 99.3291 -6.99609 131.996s-16.834 60.334 -36.501 83.001s-49.834 34.334 -90.501 35.001v19h492v-19c-58.667 -10 -95.5 -34.167 -110.5 -72.5s-22.5 -92.5 -22.5 -162.5v-666c0 -53.333 -2.66699 -98.166 -8 -134.499
s-16.833 -71 -34.5 -104s-45.167 -64.833 -82.5 -95.5c-30 -25.333 -64.333 -47.166 -103 -65.499s-80 -32.166 -124 -41.499s-85 -14 -123 -14c-86.667 0 -170.5 19.5 -251.5 58.5s-151.5 92.833 -211.5 161.5l207 339l18 -8c-18.667 -73.333 -28 -129.333 -28 -168
c0 -48.667 11.667 -94.334 35 -137.001s55.666 -76.5 96.999 -101.5s86.666 -37.5 135.999 -37.5c80.667 0 142.167 26 184.5 78s63.5 124.333 63.5 217v704z" />
    <glyph glyph-name="section" unicode="&#xa4;" horiz-adv-x="1311" 
d="M262 399c-30 43.333 -52.166 85.835 -66.499 127.502s-21.5 88.834 -21.5 141.501c0 54.667 6.83301 103.167 20.5 145.5s36.167 85.166 67.5 128.499l-78 80l95 96l77 -78c81.333 60 175.666 90 282.999 90c89.333 0 178 -30 266 -90l80 78l96 -96l-80 -80
c30.667 -44.667 53.167 -89.334 67.5 -134.001s21.5 -94.334 21.5 -149.001c0 -89.333 -29.667 -176 -89 -260l80 -80l-96 -94l-80 78c-82.667 -61.333 -176.667 -92 -282 -92c-90 0 -179 30.667 -267 92l-77 -78l-95 94zM365.001 668.002
c0 -46.667 12.168 -90.5 36.501 -131.5s57 -73.833 98 -98.5s84.167 -37 129.5 -37c74 0 137.5 26.167 190.5 78.5s79.5 116.5 79.5 192.5c0 45.333 -11.5 88.833 -34.5 130.5s-54.333 75 -94 100s-82.834 37.5 -129.501 37.5c-51.333 0 -98 -12 -140 -36
s-75.167 -56.5 -99.5 -97.5s-36.5 -87.167 -36.5 -138.5z" />
    <glyph glyph-name="paragraph" unicode="&#xa6;" horiz-adv-x="1229" 
d="M555 1348h117v-449h-117v449zM555 449h117v-449h-117v449z" />
    <glyph glyph-name="germandbls" unicode="&#xa7;" horiz-adv-x="1311" 
d="M1040 1030l-12.001 -2.00195c-18 50.667 -45.667 95.334 -83 134.001s-81.833 69 -133.5 91s-104.5 33 -158.5 33c-52 0 -100.5 -11.667 -145.5 -35s-67.5 -58.666 -67.5 -105.999c0 -24 9.16699 -44.167 27.5 -60.5s38.166 -28.333 59.499 -36s50.333 -17.167 87 -28.5
l238 -72c102 -29.333 174.333 -64.666 217 -105.999c60 -56 90 -131.333 90 -226c0 -46.667 -7.83301 -89.667 -23.5 -129s-35.5 -72.666 -59.5 -99.999s-46.667 -47 -68 -59c77.333 -63.333 116 -146 116 -248c0 -78 -22.833 -147.833 -68.5 -209.5
s-105.5 -109.167 -179.5 -142.5s-151 -50 -231 -50c-23.333 0 -48.833 2.5 -76.5 7.5s-59.167 12.167 -94.5 21.5l-79 20.5c-17.333 4.33301 -36.333 6.5 -57 6.5c-17.333 0 -36.333 -10.333 -57 -31l-99 422l17 6c32.667 -104 87.167 -189 163.5 -255s166.5 -99 270.5 -99
c60.667 0 115.334 10.5 164.001 31.5s87 49.167 115 84.5s42 74.333 42 117c0 44.667 -11.667 81.5 -35 110.5s-52 51 -86 66s-76 29.833 -126 44.5l-226 70c-79.333 25.333 -140 56.833 -182 94.5s-63 92.167 -63 163.5c0 58.667 21.167 114.667 63.5 168
s114.5 90.333 216.5 111v4c-50 15.333 -92.667 32.666 -128 51.999s-63.833 45.666 -85.5 78.999s-32.5 74.333 -32.5 123c0 64 19.667 116.833 59 158.5s88.333 72 147 91s119 28.5 181 28.5c48.667 0 98.334 -6.16699 149.001 -18.5s85.667 -18.5 105 -18.5
c24 0 44.667 10.333 62 31zM896.999 388.998c29.333 15.333 51.667 37.501 67 66.501s23 65.5 23 109.5c0 51.333 -18.333 91.166 -55 119.499s-88 52.833 -154 73.5l-110 37c-53.333 -6 -99.833 -19.5 -139.5 -40.5s-70 -45 -91 -72s-31.5 -51.833 -31.5 -74.5
c0 -25.333 9.5 -46 28.5 -62s39.5 -28 61.5 -36s50 -17 84 -27z" />
    <glyph glyph-name="registered" unicode="&#xa8;" 
d="M1151 961l-15.999 -7.00098c-28 66.667 -68.667 122.334 -122 167.001s-114.333 77.834 -183 99.501s-139.334 32.5 -212.001 32.5c-74 0 -123.833 -10.667 -149.5 -32s-38.5 -68 -38.5 -140v-116h158h45c35.333 0 65.833 2.5 91.5 7.5s47.167 16.667 64.5 35
s26 44.833 26 79.5l19 7l79 -459l-16 -6c-22.667 76 -52.167 131 -88.5 165s-78 54.833 -125 62.5s-115.167 11.5 -204.5 11.5h-49v-549c0 -63.333 3.5 -109.166 10.5 -137.499s25.333 -50 55 -65s78.167 -22.5 145.5 -22.5c280 0 484.667 131.667 614 395l21 -6l-174 -510
c-8 11.333 -19.5 18.666 -34.5 21.999s-33.5 5 -55.5 5h-940v18c41.333 6.66699 71.5 21 90.5 43s30.833 47.5 35.5 76.5s7 67.833 7 116.5v825c0 75.333 -7.66699 133.666 -23 174.999s-52 66.333 -110 75v19h876c53.333 0 90.333 8 111 24zM682.001 1620
c0 30.667 10 58.168 30 82.501s44.667 36.5 74 36.5c35.333 0 62.666 -11.5 81.999 -34.5s29 -51.833 29 -86.5c0 -30 -9.83301 -56.667 -29.5 -80s-44.5 -35 -74.5 -35c-31.333 0 -57.666 11.667 -78.999 35s-32 50.666 -32 81.999zM381.001 1620
c0 30.667 10.002 58.168 30.002 82.501s44.667 36.5 74 36.5c35.333 0 62.666 -11.5 81.999 -34.5s29 -51.833 29 -86.5c0 -30 -9.83301 -56.667 -29.5 -80s-44.5 -35 -74.5 -35c-30.667 0 -56.834 11.667 -78.501 35s-32.5 50.666 -32.5 81.999z" />
    <glyph glyph-name="copyright" unicode="&#xa9;" horiz-adv-x="1556" 
d="M78 670c0 98.667 17.001 191.001 51.001 277.001s82.5 161.167 145.5 225.5s137 114 222 149s177.5 52.5 277.5 52.5c102.667 0 197.167 -17.167 283.5 -51.5s161.166 -83 224.499 -146s112 -137.5 146 -223.5s51 -179.667 51 -281c0 -103.333 -17.167 -198 -51.5 -284
s-82.833 -159.833 -145.5 -221.5s-138 -109.334 -226 -143.001s-183.333 -50.5 -286 -50.5c-134.667 0 -254.667 30 -360 90s-187 143.333 -245 250s-87 225.667 -87 357zM168.001 676.001c0 -88.667 14.667 -171.004 44 -247.004s71.5 -142.167 126.5 -198.5
s120.167 -99.666 195.5 -129.999s158.666 -45.5 249.999 -45.5c114 0 217.167 25.833 309.5 77.5s164.666 124.834 216.999 219.501s78.5 202.667 78.5 324c0 110 -25.167 212.167 -75.5 306.5s-122.166 169.5 -215.499 225.5s-200.666 84 -321.999 84
c-96.667 0 -182.5 -16.167 -257.5 -48.5s-138.667 -77.166 -191 -134.499s-92 -123.166 -119 -197.499s-40.5 -152.833 -40.5 -235.5zM1092 818.997l-63.9951 0.00292969c-0.666992 40.667 -9.33398 76.667 -26.001 108s-40.334 55.666 -71.001 72.999
s-67.334 26 -110.001 26c-54.667 0 -102.5 -15.833 -143.5 -47.5s-72.333 -73 -94 -124s-32.5 -104.5 -32.5 -160.5c0 -41.333 6.66699 -84.166 20 -128.499s32.166 -83.333 56.499 -117s54.666 -60.5 90.999 -80.5s75.5 -30 117.5 -30c100.667 0 177 47.667 229 143l49 -16
c-24 -62.667 -66.5 -110.834 -127.5 -144.501s-129.167 -50.5 -204.5 -50.5c-76.667 0 -144.667 17.667 -204 53s-105 83.666 -137 144.999s-48 129.333 -48 204c0 82 17 154.167 51 216.5s82.167 110.666 144.5 144.999s134.5 51.5 216.5 51.5
c87.333 0 183 -18.333 287 -55v-211z" />
    <glyph glyph-name="acute" unicode="&#xab;" horiz-adv-x="737" 
d="M553 778l55 -26l-84 -246l84 -252l-55 -25l-147 277zM274 778l56 -26l-84 -246l84 -252l-56 -25l-147 277z" />
    <glyph glyph-name="dieresis" unicode="&#xac;" horiz-adv-x="1229" 
d="M977 563h-842v115h957v-582h-115v467z" />
    <glyph glyph-name="notequal" unicode="&#xad;" horiz-adv-x="901" 
d="M780 1343v-120h-645v120h645z" />
    <glyph glyph-name="AE" unicode="&#xae;" horiz-adv-x="1556" 
d="M78 670c0 96.667 17.3291 187.666 51.9961 272.999s83.334 160.333 146.001 225s136.5 115.167 221.5 151.5s176.5 54.5 274.5 54.5c94.667 0 185.167 -18 271.5 -54s162 -85.333 227 -148s116 -136.5 153 -221.5s55.5 -175.833 55.5 -272.5
c0 -128.667 -31.667 -247.167 -95 -355.5s-149.166 -193.666 -257.499 -255.999s-226.5 -93.5 -354.5 -93.5c-129.333 0 -247.166 31.5 -353.499 94.5s-189.666 148.167 -249.999 255.5s-90.5 223 -90.5 347zM167.996 671.999c0 -85.333 15.501 -165.834 46.501 -241.501
s74.667 -141.5 131 -197.5s122.166 -99.667 197.499 -131s155 -47 239 -47s163 16.167 237 48.5s138.5 76.5 193.5 132.5s98.167 121.667 129.5 197s47 154.333 47 237c0 86 -16.167 167.333 -48.5 244s-77.333 143.334 -135 200.001s-123.5 100.5 -197.5 131.5
s-151.333 46.5 -232 46.5c-88.667 0 -170.5 -15.5 -245.5 -46.5s-139.5 -74.667 -193.5 -131s-95.667 -122.333 -125 -198s-44 -157.167 -44 -244.5zM767.997 1075c110.667 0 188.171 -16.167 232.504 -48.5s66.5 -80.833 66.5 -145.5
c0 -54.667 -20.167 -101.167 -60.5 -139.5s-88.5 -59.5 -144.5 -63.5c38 -8.66699 69.333 -30.834 94 -66.501s48 -79.167 70 -130.5l24.5 -50c8.33301 -17.333 15.5 -31.5 21.5 -42.5s13.333 -21.833 22 -32.5c13.333 -14.667 33 -22 59 -22v-37h-43h-43
c-38.667 0 -67.334 6.66699 -86.001 20c-12.667 10.667 -23.834 24.5 -33.501 41.5s-18.834 35.833 -27.501 56.5s-15.667 38.667 -21 54c-27.333 68.667 -53.666 114.834 -78.999 138.501s-81 35.5 -167 35.5v-225c0 -28 1.5 -48.167 4.5 -60.5s11.167 -19.5 24.5 -21.5
l59 -2v-37h-303v37h37c20.667 0 34 3.5 40 10.5s9.66699 22.5 11 46.5v598c-2.66699 17.333 -7.83398 29 -15.501 35s-20.834 10 -39.501 12l-33 2v37h330zM702.001 716.998c72.667 0 129.167 10.333 169.5 31s60.5 63.667 60.5 129c0 49.333 -13.5 88.5 -40.5 117.5
s-69.5 43.5 -127.5 43.5c-42 0 -71 -4.5 -87 -13.5s-24 -31.167 -24 -66.5v-241h49z" />
    <glyph glyph-name="Oslash" unicode="&#xaf;" horiz-adv-x="655" 
d="M440 268c0 -74 7.5 -132 22.5 -174s51.833 -67.333 110.5 -76v-18h-491v18c41.333 6 71.5 19.667 90.5 41s30.833 46.833 35.5 76.5s7 69.167 7 118.5v825c0 50.667 -2.33301 91.667 -7 123s-16.5 58.833 -35.5 82.5s-49.167 38.5 -90.5 44.5v19h491v-19
c-58.667 -9.33301 -95.5 -33.333 -110.5 -72s-22.5 -93.667 -22.5 -165v-824zM375 1620c0 30.667 10 58.168 30 82.501s44.667 36.5 74 36.5c35.333 0 62.666 -11.5 81.999 -34.5s29 -51.833 29 -86.5c0 -30 -10.167 -56.667 -30.5 -80s-45.166 -35 -74.499 -35
c-30.667 0 -56.667 11.667 -78 35s-32 50.666 -32 81.999zM74 1620c0 30.667 10 58.168 30 82.501s44.667 36.5 74 36.5c35.333 0 62.666 -11.5 81.999 -34.5s29 -51.833 29 -86.5c0 -30 -10.167 -56.667 -30.5 -80s-45.166 -35 -74.499 -35c-30 0 -55.833 11.667 -77.5 35
s-32.5 50.666 -32.5 81.999z" />
    <glyph glyph-name="infinity" unicode="&#xb0;" horiz-adv-x="819" 
d="M389 760c-55.333 0 -106.671 13.6719 -154.004 41.0049s-84.666 64.666 -111.999 111.999s-41 98.666 -41 153.999c0 54.667 13.833 105.667 41.5 153s65 84.833 112 112.5s98.167 41.5 153.5 41.5c40.667 0 79.834 -7.83301 117.501 -23.5
s70.834 -37.834 99.501 -66.501s50.834 -61.834 66.501 -99.501s23.5 -76.834 23.5 -117.501c0 -55.333 -13.833 -106.5 -41.5 -153.5s-65.167 -84.333 -112.5 -112s-98.333 -41.5 -153 -41.5zM386.995 1292c-40.667 0 -78.001 -10.165 -112.001 -30.498s-61 -48 -81 -83
s-30 -72.167 -30 -111.5c0 -40.667 10 -78.334 30 -113.001s47.333 -62 82 -82s72.334 -30 113.001 -30c39.333 0 76.5 10 111.5 30s62.667 47.167 83 81.5s30.5 72.166 30.5 113.499c0 40 -10.167 77.333 -30.5 112s-48 62.167 -83 82.5s-72.833 30.5 -113.5 30.5z" />
    <glyph glyph-name="plusminus" unicode="&#xb1;" horiz-adv-x="1229" 
d="M557 670v288h115v-288h422v-115h-422v-289h-115v289h-422v115h422zM135 115h959v-115h-959v115z" />
    <glyph glyph-name="lessequal" unicode="&#xb2;" horiz-adv-x="655" 
d="M440 268c0 -74 7.5 -132 22.5 -174s51.833 -67.333 110.5 -76v-18h-491v18c41.333 6 71.5 19.667 90.5 41s30.833 46.833 35.5 76.5s7 69.167 7 118.5v825c0 50.667 -2.33301 91.667 -7 123s-16.5 58.833 -35.5 82.5s-49.167 38.5 -90.5 44.5v19h491v-19
c-58.667 -9.33301 -95.5 -33.333 -110.5 -72s-22.5 -93.667 -22.5 -165v-824z" />
    <glyph glyph-name="greaterequal" unicode="&#xb3;" horiz-adv-x="573" 
d="M391 1010v-758c0 -72.667 7 -129 21 -169s48 -61.667 102 -65v-18h-455v18c53.333 5.33301 87.166 27.5 101.499 66.5s21.5 94.833 21.5 167.5v479c0 72.667 -7.16699 128.5 -21.5 167.5s-48.166 61.167 -101.499 66.5v18zM147 1288c0 28 5.66699 53.6689 17 77.002
s27.333 41.666 48 54.999s45.667 20 75 20c38 0 70.333 -14.667 97 -44s40 -63.333 40 -102c0 -24.667 -5.66699 -49 -17 -73s-27.5 -43.333 -48.5 -58s-44.167 -22 -69.5 -22c-40.667 0 -74.5 14.167 -101.5 42.5s-40.5 63.166 -40.5 104.499z" />
    <glyph glyph-name="mu" unicode="&#xb5;" 
d="M918 0c-22.667 55.333 -36.332 125 -40.999 209c-52.667 -47.333 -100.667 -86.666 -144 -117.999s-90 -57.666 -140 -78.999s-101.667 -32 -155 -32c-21.333 0 -37 0.666992 -47 2v-17c0 -139.333 29.333 -271.666 88 -396.999h-362
c58.667 125.333 88 257.666 88 396.999v185c-8 40 -12 85 -12 135v446c0 72 -7 128.167 -21 168.5s-48 62.166 -102 65.499v18l331 27v-617c0 -96.667 10.167 -165.834 30.5 -207.501s60.166 -62.5 119.499 -62.5c48 0 96.333 14.333 145 43s87 64 115 106
s46 87.167 54 135.5s12 106.5 12 174.5v149c0 73.333 -7 130 -21 170s-48 61.333 -102 64v18l331 27v-762c0 -68.667 7.5 -124.167 22.5 -166.5s49.833 -63.5 104.5 -63.5v-18h-294z" />
    <glyph glyph-name="partialdiff" unicode="&#xb6;" horiz-adv-x="1024" 
d="M895 23c0 -72.667 7.16797 -129.334 21.501 -170.001s48.166 -62.667 101.499 -66v-18h-256v1448h-211v-1448h-256v18c53.333 3.33301 87.166 24.833 101.499 64.5s21.5 96.834 21.5 171.501v626c-60.667 0 -118 15.833 -172 47.5s-97.167 74.334 -129.5 128.001
s-48.5 111.167 -48.5 172.5c0 113.333 33.833 200.166 101.5 260.499s170.167 90.5 307.5 90.5h541v-19c-53.333 -2.66699 -87.166 -24 -101.499 -64s-21.5 -96.333 -21.5 -169v-1073z" />
    <glyph glyph-name="product" unicode="&#xb8;" horiz-adv-x="1188" 
d="M315 461c11.333 -70 37.002 -134.166 77.002 -192.499s90.667 -104.666 152 -138.999s127 -51.5 197 -51.5c39.333 0 82.833 10 130.5 30s86.834 43.333 117.501 70c36.667 32 73 84 109 156l18 -8l-106 -338c-14.667 9.33301 -30.334 14 -47.001 14
c-10 0 -23 -1.33301 -39 -4l-215 -18c-67.333 0 -138 10.333 -212 31s-142.333 52.5 -205 95.5s-113.334 98 -152.001 165s-58 144.5 -58 232.5c0 99.333 23.833 189.166 71.5 269.499s112.667 143.166 195 188.499s173.166 68 272.499 68
c112.667 0 213.167 -31.667 301.5 -95s146.833 -149 175.5 -257zM641.002 1282c0 30.667 10 58.168 30 82.501s44.667 36.5 74 36.5c35.333 0 62.666 -11.5 81.999 -34.5s29 -51.833 29 -86.5c0 -30 -9.83301 -56.667 -29.5 -80s-44.5 -35 -74.5 -35
c-31.333 0 -57.666 11.667 -78.999 35s-32 50.666 -32 81.999zM340.002 1282c0 30.667 10.002 58.168 30.002 82.501s44.667 36.5 74 36.5c35.333 0 62.666 -11.5 81.999 -34.5s29 -51.833 29 -86.5c0 -30 -9.83301 -56.667 -29.5 -80s-44.5 -35 -74.5 -35
c-30.667 0 -56.834 11.667 -78.501 35s-32.5 50.666 -32.5 81.999zM858.004 705.003c-21.333 63.333 -53.834 117.001 -97.501 161.001s-96.5 66 -158.5 66c-64 0 -118.667 -17.667 -164 -53s-79.166 -82.833 -101.499 -142.5s-33.5 -122.834 -33.5 -189.501z" />
    <glyph glyph-name="pi" unicode="&#xb9;" horiz-adv-x="860" 
d="M123 1092c0 55.333 13.167 104.667 39.5 148s62.833 76.5 109.5 99.5s98 34.5 154 34.5c86.667 0 157.5 -24.167 212.5 -72.5s82.5 -115.5 82.5 -201.5c0 -56 -13.5 -105.833 -40.5 -149.5s-63.5 -77.167 -109.5 -100.5s-97.667 -35 -155 -35c-56.667 0 -107 11 -151 33
s-78.667 54.167 -104 96.5s-38 91.5 -38 147.5zM598 1085c0 40 -6.33301 78 -19 114s-32.5 65.333 -59.5 88s-60.833 34 -101.5 34c-57.333 0 -100.333 -19.667 -129 -59s-43 -89.333 -43 -150c0 -64 15 -120.667 45 -170s75 -74 135 -74c55.333 0 97.833 21.833 127.5 65.5
s44.5 94.167 44.5 151.5zM721 674.001v-80h-598v80h598z" />
    <glyph glyph-name="ordfeminine" unicode="&#xbb;" horiz-adv-x="737" 
d="M184 229l-55 27l84 246l-84 252l55 24l148 -276zM463 229l-55 27l84 246l-84 252l55 24l147 -276z" />
    <glyph glyph-name="ordmasculine" unicode="&#xbc;" horiz-adv-x="655" 
d="M477 1010v-1020v-47c0 -56.667 -3.83301 -105.834 -11.5 -147.501s-24.167 -77.834 -49.5 -108.501c-34 -41.333 -80.333 -71.833 -139 -91.5s-119.667 -29.5 -183 -29.5c-40.667 0 -81.5 3.83301 -122.5 11.5s-80.333 18.834 -118 33.501s-76.167 33.667 -115.5 57
l196 250l13 -6c-18 -34.667 -27 -68 -27 -100c0 -44.667 16.667 -81.167 50 -109.5s72 -42.5 116 -42.5c55.333 0 96.166 14 122.499 42s42.833 64.833 49.5 110.5s10 106.167 10 181.5v737c0 72.667 -7.16699 128.5 -21.5 167.5s-48.166 61.167 -101.499 66.5v18zM231 1300
c0 26.667 5.66602 51.8311 16.999 75.498s27.833 42.334 49.5 56.001s46.167 20.5 73.5 20.5c38 0 70.333 -14.667 97 -44s40 -63 40 -101c0 -40 -12.667 -75.667 -38 -107s-57 -47 -95 -47c-41.333 0 -75.666 14.333 -102.999 43s-41 63.334 -41 104.001z" />
    <glyph glyph-name="Omega" unicode="&#xbd;" 
d="M1055 958l-16.998 -4c-20.667 62 -54 116.667 -100 164s-99.833 84.166 -161.5 110.499s-125.167 39.5 -190.5 39.5c-37.333 0 -76 -6 -116 -18s-73.667 -30.667 -101 -56s-41 -57.333 -41 -96c0 -22.667 7 -42.667 21 -60s32.167 -31.666 54.5 -42.999
s46.333 -21 72 -29l63.5 -20l286 -86c53.333 -16 102.666 -34 147.999 -54s83.333 -45 114 -75c74 -70 111 -160.667 111 -272c0 -72 -16.333 -138.5 -49 -199.5s-76.5 -112.667 -131.5 -155s-117.5 -74.833 -187.5 -97.5s-140.667 -34 -212 -34
c-42 0 -77.333 3.16699 -106 9.5s-73 17.333 -133 33s-103.667 23.5 -131 23.5c-24.667 0 -48 -12.333 -70 -37l-119 512l19 6c26 -82 63.5 -155.167 112.5 -219.5s109.333 -115.166 181 -152.499s149.167 -56 232.5 -56c70.667 0 136 12.667 196 38
s107.167 59.833 141.5 103.5s51.5 90.834 51.5 141.501c0 78 -26.167 135 -78.5 171s-126.5 68.333 -222.5 97l-272 84c-94.667 29.333 -167.834 67.166 -219.501 113.499s-77.5 112.166 -77.5 197.499c0 76 23.5 139.5 70.5 190.5s106.5 88 178.5 111
s145.333 34.5 220 34.5c42.667 0 76.5 -2.33301 101.5 -7s59.667 -12.167 104 -22.5s78.166 -15.5 101.499 -15.5c28.667 0 53.334 12.333 74.001 37z" />
    <glyph glyph-name="ae" unicode="&#xbe;" horiz-adv-x="1024" 
d="M877 682l-14.999 -2.00293c-8.66699 50.667 -31.167 95.334 -67.5 134.001s-80.333 68 -132 88s-103.167 30 -154.5 30c-30.667 0 -61 -4 -91 -12s-55.5 -21.667 -76.5 -41s-31.5 -44.666 -31.5 -75.999c0 -46 21.833 -78.667 65.5 -98s122.5 -45.5 236.5 -78.5
s200.333 -71 259 -114s88 -104.5 88 -184.5c0 -56 -12.667 -106 -38 -150s-59.166 -80.333 -101.499 -109s-90 -50.667 -143 -66s-106.167 -23 -159.5 -23c-52 0 -103.333 4.33301 -154 13s-99.834 18.834 -147.501 30.501s-75.5 17.5 -83.5 17.5
c-18 0 -35 -9.66699 -51 -29l-17 402l17 4c7.33301 -65.333 30 -124.333 68 -177s86.667 -93 146 -121s122.333 -42 189 -42c38.667 0 79.167 7.16699 121.5 21.5s77.166 36 104.499 65s41 63.5 41 103.5c0 51.333 -23.333 87.666 -70 108.999s-126.667 49 -240 83
s-198.333 72.167 -255 114.5s-85 104.166 -85 185.499c0 62.667 19.333 114.334 58 155.001s87.5 70 146.5 88s118.5 27 178.5 27c48 0 91.333 -3.16699 130 -9.5s79 -14.166 121 -23.499s68.333 -14 79 -14c18.667 0 35 5.33301 49 16z" />
    <glyph glyph-name="oslash" unicode="&#xbf;" horiz-adv-x="573" 
d="M391 1010v-758c0 -72.667 7 -129 21 -169s48 -61.667 102 -65v-18h-455v18c53.333 5.33301 87.166 27.5 101.499 66.5s21.5 94.833 21.5 167.5v479c0 72.667 -7.16699 128.5 -21.5 167.5s-48.166 61.167 -101.499 66.5v18zM334 1282c0 30.667 10 58.168 30 82.501
s44.667 36.5 74 36.5c35.333 0 62.666 -11.5 81.999 -34.5s29 -51.833 29 -86.5c0 -30 -10.167 -56.667 -30.5 -80s-45.166 -35 -74.499 -35c-30.667 0 -56.667 11.667 -78 35s-32 50.666 -32 81.999zM33 1282c0 30.667 10 58.168 30 82.501s44.667 36.5 74 36.5
c35.333 0 62.666 -11.5 81.999 -34.5s29 -51.833 29 -86.5c0 -30 -10.167 -56.667 -30.5 -80s-45.166 -35 -74.499 -35c-30 0 -55.833 11.667 -77.5 35s-32.5 50.666 -32.5 81.999z" />
    <glyph glyph-name="questiondown" unicode="&#xc0;" horiz-adv-x="1352" 
d="M303 274c-22 -64.667 -33 -113.002 -33 -145.002c0 -30.667 10.833 -56 32.5 -76s48.5 -31.667 80.5 -35v-18h-418v18c28.667 6.66699 50.167 14.334 64.5 23.001s28.5 23 42.5 43c27.333 38.667 58 102 92 190l330 871c20 56 30 95.667 30 119c0 36 -21 57.667 -63 65
v19h454v-19c-39.333 -10.667 -59 -35.334 -59 -74.001c0 -19.333 6 -45.666 18 -78.999l351 -1008c20.667 -51.333 37.5 -86.666 50.5 -105.999s37.833 -34 74.5 -44v-18h-465v18c66.667 15.333 100 63.333 100 144c0 62.667 -24.5 128 -73.5 196
s-116.833 124.833 -203.5 170.5s-182 69.5 -286 71.5zM639 1194l-186 -492c78.667 0 154.167 -13.667 226.5 -41s134.5 -68 186.5 -122z" />
    <glyph glyph-name="exclamdown" unicode="&#xc1;" horiz-adv-x="1311" 
d="M430 248l0.00195312 -51c0 -36 3.33301 -60.5 10 -73.5s20.5 -21.167 41.5 -24.5s62.5 -5 124.5 -5c82 0 154.333 13.167 217 39.5s110.167 62 142.5 107s48.5 95.833 48.5 152.5c0 68.667 -19.833 133.167 -59.5 193.5s-103.834 109.5 -192.501 147.5
s-199.334 57 -332.001 57v-543zM205.002 1094c0 70.667 -7.50293 125.498 -22.5029 164.498s-51.167 62.5 -108.5 70.5v19h852c36.667 0 64 1.66699 82 5s31 10.333 39 21l100 -405l-19 -6c-37.333 98 -95.166 168.833 -173.499 212.5s-181.5 65.5 -309.5 65.5
c-73.333 0 -123.166 -1.33301 -149.499 -4s-44.166 -9 -53.499 -19s-14 -27 -14 -51c0.666992 -12.667 1.16699 -24.5 1.5 -35.5s0.5 -28.5 0.5 -52.5v-196c136 0 255.833 -13.667 359.5 -41s189.5 -64.166 257.5 -110.499s119 -98.833 153 -157.5s51 -121 51 -187
c0 -258 -189 -387 -567 -387h-612v18c58.667 8.66699 95.5 31.834 110.5 69.501s22.5 93.167 22.5 166.5v840z" />
    <glyph glyph-name="logicalnot" unicode="&#xc2;" horiz-adv-x="1352" 
d="M823 1348c93.333 0 171.667 -10.5029 235 -31.5029s95 -68.5 95 -142.5c0 -46.667 -15.5 -88.667 -46.5 -126s-65 -67.166 -102 -89.499s-89.167 -51.166 -156.5 -86.499c59.333 -18.667 114.666 -41.667 165.999 -69s98 -60.166 140 -98.499s75.5 -82.333 100.5 -132
s37.5 -105.167 37.5 -166.5c0 -81.333 -20.5 -153 -61.5 -215s-98.833 -107.333 -173.5 -136c-44 -16 -92 -28.333 -144 -37s-102.167 -13.834 -150.5 -15.501s-107.166 -2.5 -176.499 -2.5h-514v18c58 8.66699 94.333 31.334 109 68.001s22.667 92.667 24 168v825
c-1.33301 78.667 -9.5 138 -24.5 178s-51.167 64 -108.5 72v19h751zM430.001 810.997c67.333 19.333 136.332 43.333 206.999 72s133.667 64.5 189 107.5s83 91.167 83 144.5c0 35.333 -14.167 61.833 -42.5 79.5s-60.166 28.5 -95.499 32.5s-75.333 6 -120 6
c-112 0 -178.667 -13.667 -200 -41c-14 -18 -21 -61 -21 -129v-272zM430 255.997c0 -49.333 3.16797 -84.502 9.50098 -105.502s20.5 -35.667 42.5 -44s58 -12.5 108 -12.5c144.667 0 253 22.667 325 68c30.667 20.667 56.834 45.334 78.501 74.001s38 60 49 94
s16.5 68.667 16.5 104c0 58 -14.833 113.167 -44.5 165.5s-69.334 98.333 -119.001 138s-101.834 70.834 -156.501 93.501l-309 -116v-459z" />
    <glyph glyph-name="radical" unicode="&#xc3;" horiz-adv-x="1147" 
d="M1165 952l-16.0029 -3.99805c-17.333 51.333 -49.166 100.166 -95.499 146.499s-106 84.333 -179 114s-154.167 44.5 -243.5 44.5c-58.667 0 -101.5 -5.33301 -128.5 -16s-44.167 -27.5 -51.5 -50.5s-11 -60.833 -11 -113.5v-807c0 -52.667 2.33301 -94.834 7 -126.501
s16.834 -59 36.501 -82s50.167 -36.833 91.5 -41.5v-16h-493v18c58.667 8.66699 95.5 31.834 110.5 69.501s22.5 93.167 22.5 166.5v825c0 75.333 -7.66699 133.666 -23 174.999s-52 66.333 -110 75v19h883c30.667 0 54.334 1.66699 71.001 5s29 10.333 37 21z" />
    <glyph glyph-name="florin" unicode="&#xc4;" horiz-adv-x="1393" 
d="M451 106l354 0.000976562c48.667 0 86.834 10 114.501 30s41.5 63.333 41.5 130v807c0 69.333 -8.83301 116.666 -26.5 141.999s-64.834 38 -141.501 38c-42.667 0 -85.5 -10.5 -128.5 -31.5s-78.167 -49.833 -105.5 -86.5c-32.667 -45.333 -64.667 -99 -96 -161
s-60.833 -132.167 -88.5 -210.5s-49.167 -160 -64.5 -245s-23 -170.5 -23 -256.5c0 -47.333 6 -82.5 18 -105.5s29.167 -37.167 51.5 -42.5s53.833 -8 94.5 -8zM1341 72.001l100.999 -405.998l-19 -6c-27.333 69.333 -62.833 129.166 -106.5 179.499
s-97.167 89.666 -160.5 117.999s-135.333 42.5 -216 42.5h-594c-80.667 0 -152.667 -14.333 -216 -43s-116.833 -67.834 -160.5 -117.501s-79.167 -109.5 -106.5 -179.5l-19 6l101 406c16.667 -15.333 33 -23 49 -23c32.667 0 61.5 25.167 86.5 75.5s40.5 96.833 46.5 139.5
c22 155.333 58.833 311.333 110.5 468s124.167 301.667 217.5 435c17.333 24.667 26 52.667 26 84c0 46.667 -21 72.667 -63 78v19h901v-19c-58 -8.66699 -94.667 -34.167 -110 -76.5s-23 -100.166 -23 -173.499v-825c0 -62 8.83301 -112 26.5 -150s40.834 -57 69.501 -57
c18 0 37.667 8.33301 59 25z" />
    <glyph glyph-name="approxequal" unicode="&#xc5;" 
d="M1151 961l-15.999 -7.00098c-28 66.667 -68.667 122.334 -122 167.001s-114.333 77.834 -183 99.501s-139.334 32.5 -212.001 32.5c-74 0 -123.833 -10.667 -149.5 -32s-38.5 -68 -38.5 -140v-116h158h45c35.333 0 65.833 2.5 91.5 7.5s47.167 16.667 64.5 35
s26 44.833 26 79.5l19 7l79 -459l-16 -6c-22.667 76 -52.167 131 -88.5 165s-78 54.833 -125 62.5s-115.167 11.5 -204.5 11.5h-49v-549c0 -63.333 3.5 -109.166 10.5 -137.499s25.333 -50 55 -65s78.167 -22.5 145.5 -22.5c280 0 484.667 131.667 614 395l21 -6l-174 -510
c-8 11.333 -19.5 18.666 -34.5 21.999s-33.5 5 -55.5 5h-940v18c41.333 6.66699 71.5 21 90.5 43s30.833 47.5 35.5 76.5s7 67.833 7 116.5v825c0 75.333 -7.66699 133.666 -23 174.999s-52 66.333 -110 75v19h876c53.333 0 90.333 8 111 24z" />
    <glyph glyph-name="Delta" unicode="&#xc6;" horiz-adv-x="2089" 
d="M801 0l-0.00390625 18.0039c58.667 6 95.5 29.667 110.5 71s22.5 101 22.5 179v447l-162 151c-48 -52.667 -95.333 -110.334 -142 -173.001s-88.667 -126.334 -126 -191.001c-36.667 -66.667 -70.834 -138.5 -102.501 -215.5s-47.5 -139.833 -47.5 -188.5
c0 -22.667 6.83301 -41.667 20.5 -57s30.834 -23 51.501 -23v-18h-451v18c42 6 72.5 24.833 91.5 56.5s40.5 77.834 64.5 138.501l39 94c114 286.667 265 518 453 694l-154 127c-56 46 -100.167 80.833 -132.5 104.5s-70.166 45 -113.499 64s-89 29.833 -137 32.5v19h494
v-19c-37.333 0 -56 -16.333 -56 -49c0 -23.333 14.833 -53.333 44.5 -90s66.834 -75.834 111.501 -117.501s77.334 -70.834 98.001 -87.501l156 -141v250c0 50 -2.33301 89.833 -7 119.5s-16.5 55.334 -35.5 77.001s-49.167 34.5 -90.5 38.5v19h491v-19
c-58.667 -5.33301 -95.5 -27.5 -110.5 -66.5s-22.5 -95.167 -22.5 -168.5v-250l156 141c57.333 47.333 114 100.5 170 159.5s84 104.167 84 135.5c0 32.667 -18.667 49 -56 49v19h494v-19c-48 -2.66699 -93.667 -13.5 -137 -32.5s-81.166 -40.333 -113.499 -64
s-76.5 -58.5 -132.5 -104.5l-154 -127c188 -176 339 -407.333 453 -694l39 -94l24.5 -58.5c11 -26.333 22.167 -48.833 33.5 -67.5s25 -33.834 41 -45.501s35 -19.5 57 -23.5v-18h-451v18c21.333 0 38.666 7.66699 51.999 23s20 34.333 20 57
c0 48.667 -16.667 113.667 -50 195s-66.666 151 -99.999 209c-76.667 131.333 -166 252.666 -268 363.999l-162 -151v-447c0 -76 7.5 -135.167 22.5 -177.5s51.833 -66.5 110.5 -72.5v-18h-491z" />
    <glyph glyph-name="guillemotleft" unicode="&#xc7;" horiz-adv-x="1229" 
d="M1059 1092c0 -48 -16.3311 -92.002 -48.998 -132.002s-72.834 -73.667 -120.501 -101s-97.167 -50 -148.5 -68c130 -28 233.833 -71.5 311.5 -130.5s116.5 -143.833 116.5 -254.5c0 -86.667 -25 -162.667 -75 -228s-124.333 -115.833 -223 -151.5s-219 -53.5 -361 -53.5
c-23.333 0 -71.5 2.5 -144.5 7.5s-121.167 7.5 -144.5 7.5c-36 0 -59.667 -3.66699 -71 -11l-115 396l16 6c20.667 -50 52.834 -98.167 96.501 -144.5s94.667 -83.666 153 -111.999s119.166 -42.5 182.499 -42.5c144.667 0 256.334 27.833 335.001 83.5
s118 137.834 118 246.501c0 75.333 -23 135.5 -69 180.5s-113.333 77 -202 96s-202.334 28.5 -341.001 28.5v94c85.333 0 165.666 10.167 240.999 30.5s135.833 50.5 181.5 90.5s68.5 87.667 68.5 143c0 66 -22.333 115 -67 147s-108.334 48 -191.001 48
c-106 0 -193.167 -21.5 -261.5 -64.5s-125.833 -111.167 -172.5 -204.5l-21 9l138 383c15.333 -23.333 41 -35 77 -35c12.667 0 45.334 3.33301 98.001 10s100 10 142 10c113.333 0 207.333 -12 282 -36s130 -57.333 166 -100s54 -92 54 -148z" />
    <glyph glyph-name="guillemotright" unicode="&#xc8;" horiz-adv-x="1475" 
d="M432 268c0 -76 7.5 -135.167 22.5 -177.5s51.833 -66.5 110.5 -72.5v-18h-491v18c58.667 8.66699 95.5 31.834 110.5 69.501s22.5 93.167 22.5 166.5v825c0 50.667 -2.33301 91.667 -7 123s-16.5 58.833 -35.5 82.5s-49.167 38.5 -90.5 44.5v19h491v-19
c-41.333 -4.66699 -71.5 -17.834 -90.5 -39.501s-30.833 -47.167 -35.5 -76.5s-7 -69 -7 -119v-432l610 532c0 37.333 -7.5 67.833 -22.5 91.5s-51.833 38.167 -110.5 43.5v19h492v-19c-58.667 -7.33301 -95.5 -30.333 -110.5 -69s-22.5 -94 -22.5 -166v-826
c1.33301 -56.667 4 -99.167 8 -127.5s15.5 -54.333 34.5 -78s49.167 -38.5 90.5 -44.5v-18h-492v18c41.333 4 71.5 16.667 90.5 38s30.833 46.833 35.5 76.5s7 70.167 7 121.5v801l-610 -533v-254z" />
    <glyph glyph-name="ellipsis" unicode="&#xc9;" horiz-adv-x="1475" 
d="M512 1638c56 -76 133.666 -114.002 232.999 -114.002c40.667 0 76.167 5.66699 106.5 17s54.5 24.5 72.5 39.5s36.333 34.167 55 57.5h22c-7.33301 -69.333 -34.166 -125.166 -80.499 -167.499s-104.833 -63.5 -175.5 -63.5c-66 0 -123.833 21.833 -173.5 65.5
s-77.167 98.834 -82.5 165.501h23zM431.999 267.998c0 -76 7.5 -135.167 22.5 -177.5s51.833 -66.5 110.5 -72.5v-18h-491v18c58.667 8.66699 95.5 31.834 110.5 69.501s22.5 93.167 22.5 166.5v825c0 50.667 -2.33301 91.667 -7 123s-16.5 58.833 -35.5 82.5
s-49.167 38.5 -90.5 44.5v19h491v-19c-41.333 -4.66699 -71.5 -17.834 -90.5 -39.501s-30.833 -47.167 -35.5 -76.5s-7 -69 -7 -119v-432l610 532c0 37.333 -7.5 67.833 -22.5 91.5s-51.833 38.167 -110.5 43.5v19h492v-19c-58.667 -7.33301 -95.5 -30.333 -110.5 -69
s-22.5 -94 -22.5 -166v-826c1.33301 -56.667 4 -99.167 8 -127.5s15.5 -54.333 34.5 -78s49.167 -38.5 90.5 -44.5v-18h-492v18c41.333 4 71.5 16.667 90.5 38s30.833 46.833 35.5 76.5s7 70.167 7 121.5v801l-610 -533v-254z" />
    <glyph glyph-name="nonbreakingspace" unicode="&#xca;" horiz-adv-x="1393" 
d="M207 1079c0 76 -7.50195 134.501 -22.502 175.501s-51.833 65.833 -110.5 74.5v19h491v-19c-58.667 -5.33301 -95.5 -27.5 -110.5 -66.5s-22.5 -95.167 -22.5 -168.5v-250l176 141c34.667 27.333 72.5 59 113.5 95s78.167 72.667 111.5 110s50 67.333 50 90
c0 17.333 -4.5 29.333 -13.5 36s-23.167 11 -42.5 13v19h494v-19c-48 -2.66699 -93.667 -13.5 -137 -32.5s-81.166 -40.333 -113.499 -64s-76.5 -58.5 -132.5 -104.5l-154 -127c70 -66 131.833 -134.667 185.5 -206s101.5 -145.5 143.5 -222.5s83.333 -165.5 124 -265.5
l39 -94l24.5 -58.5c11 -26.333 22.167 -48.833 33.5 -67.5s25 -33.834 41 -45.501s35 -19.5 57 -23.5v-18h-451v18c48 8 72 34.667 72 80c0 48.667 -16.667 113.667 -50 195s-66.666 151 -99.999 209c-71.333 122 -163.333 244.667 -276 368l-195 -155v-447
c0 -76 7.5 -135.167 22.5 -177.5s51.833 -66.5 110.5 -72.5v-18h-491v18c41.333 6.66699 71.5 21 90.5 43s30.833 47.5 35.5 76.5s7 67.833 7 116.5v825z" />
    <glyph glyph-name="Agrave" unicode="&#xcb;" horiz-adv-x="1352" 
d="M752 1253c-97.333 0 -175.333 -39.3359 -234 -118.003c-32.667 -45.333 -64.667 -99 -96 -161s-60.833 -132.167 -88.5 -210.5s-49.167 -160 -64.5 -245s-23 -170.5 -23 -256.5c0 -60 14.333 -113.833 43 -161.5s75 -75.167 139 -82.5v-18h-365
c0 50.667 5 119.667 15 207s28.333 187.833 55 301.5s63 227.167 109 340.5s103.333 219.333 172 318c17.333 24.667 26 52.667 26 84c0 46.667 -21 72.667 -63 78v19h901v-19c-58 -8.66699 -94.667 -34.167 -110 -76.5s-23 -100.166 -23 -173.499v-825
c0 -71.333 7.5 -126.166 22.5 -164.499s51.833 -62.166 110.5 -71.499v-18h-494v16c60 7.33301 97.667 31.166 113 71.499s23 99.833 23 178.5v807c0 45.333 -3.33301 79.833 -10 103.5s-22 42.334 -46 56.001s-61.333 20.5 -112 20.5z" />
    <glyph glyph-name="Atilde" unicode="&#xcc;" horiz-adv-x="1618" 
d="M342 1206v-938c0 -76 7.5 -135.167 22.5 -177.5s51.833 -66.5 110.5 -72.5v-18h-399v18c58.667 8.66699 95.5 31.667 110.5 69s22.5 93 22.5 167v825c0 50.667 -2.33301 91.667 -7 123s-16.5 58.833 -35.5 82.5s-49.167 38.5 -90.5 44.5v19h518v-19
c-23.333 -5.33301 -35 -18.333 -35 -39c0 -19.333 9 -45.333 27 -78l235 -430l234 379c35.333 58 53 99.667 53 125c0 23.333 -13 37.666 -39 42.999v19h494v-19c-58.667 -9.33301 -95.5 -33.166 -110.5 -71.499s-22.5 -92.833 -22.5 -163.5v-826
c0 -73.333 7.5 -130.833 22.5 -172.5s51.833 -67.5 110.5 -77.5v-18h-492v18c41.333 4.66699 71.5 17.667 90.5 39s30.833 47 35.5 77s7 70 7 120v952l-448 -727z" />
    <glyph glyph-name="Otilde" unicode="&#xcd;" horiz-adv-x="1475" 
d="M432 268c0 -76 7.5 -135.168 22.5 -177.501s51.833 -66.5 110.5 -72.5v-18h-491v18c58.667 8.66699 95.5 31.834 110.5 69.501s22.5 93.167 22.5 166.5v825c0 50.667 -2.33301 91.667 -7 123s-16.5 58.833 -35.5 82.5s-49.167 38.5 -90.5 44.5v19h491v-19
c-41.333 -4.66699 -71.5 -17.834 -90.5 -39.501s-30.833 -47.167 -35.5 -76.5s-7 -69 -7 -119v-121h610v106c-1.33301 82 -9.33301 143 -24 183s-51 62.333 -109 67v19h492v-19c-40.667 -4.66699 -70.667 -18.167 -90 -40.5s-31 -46.666 -35 -72.999
s-6.66699 -66.833 -8 -121.5v-826c1.33301 -56.667 4 -99.167 8 -127.5s15.5 -54.333 34.5 -78s49.167 -38.5 90.5 -44.5v-18h-492v18c41.333 4 71.5 16.667 90.5 38s30.5 45.5 34.5 72.5s6.66699 68.833 8 125.5v620h-610v-606z" />
    <glyph glyph-name="OE" unicode="&#xce;" horiz-adv-x="1638" 
d="M311 162c-46 44 -85.333 93.332 -118 147.999s-57.667 112.834 -75 174.501s-26 123.5 -26 185.5c0 133.333 32.167 253.833 96.5 361.5s152 191.667 263 252s232.167 90.5 363.5 90.5c136.667 0 261 -30.667 373 -92s199.667 -147 263 -257s95 -233.333 95 -370
c0 -128.667 -33.667 -245.167 -101 -349.5s-157.333 -185.833 -270 -244.5s-232.667 -88 -360 -88c-60.667 0 -121.167 6.66699 -181.5 20s-117.833 34.333 -172.5 63s-104.667 64 -150 106zM862 79.999c91.333 0 170.33 23.8311 236.997 71.498s116.834 111 150.501 190
s50.5 163.167 50.5 252.5c0 90.667 -14 177 -42 259s-66.667 154.167 -116 216.5s-106 111 -170 146s-132 52.5 -204 52.5c-92 0 -170.667 -24.5 -236 -73.5s-114 -113.667 -146 -194s-48 -166.166 -48 -257.499c0 -75.333 11.833 -153.166 35.5 -233.499
s57.834 -152.833 102.501 -217.5s99.834 -116.167 165.501 -154.5s139.167 -57.5 220.5 -57.5z" />
    <glyph glyph-name="oe" unicode="&#xcf;" horiz-adv-x="1475" 
d="M1403 1348l-0.00195312 -19.0029c-58 -8.66699 -94.667 -34.167 -110 -76.5s-23 -100.166 -23 -173.499v-825c0 -71.333 7.5 -126.166 22.5 -164.499s51.833 -62.166 110.5 -71.499v-18h-494v16c41.333 4.66699 71.833 18.5 91.5 41.5s31.834 50.333 36.501 82
s7 73.834 7 126.501v807c0 52.667 -3.5 90.667 -10.5 114s-24 40.166 -51 50.499s-69.833 15.5 -128.5 15.5h-229c-58.667 0 -101.667 -5.16699 -129 -15.5s-44.5 -27.166 -51.5 -50.499s-10.5 -61.333 -10.5 -114v-807c0 -52.667 2.33301 -94.834 7 -126.501
s16.834 -59 36.501 -82s50.167 -36.833 91.5 -41.5v-16h-493v18c58.667 8.66699 95.5 31.834 110.5 69.501s22.5 93.167 22.5 166.5v825c0 75.333 -7.66699 133.666 -23 174.999s-52 66.333 -110 75v19h1327z" />
    <glyph glyph-name="emdash" unicode="&#xd0;" horiz-adv-x="1188" 
d="M827 1348c64 0 119 -5.83008 165 -17.4971s84 -34.334 114 -68.001s45 -81.834 45 -144.501c0 -86 -40.833 -162.5 -122.5 -229.5s-174.167 -120.833 -277.5 -161.5s-209 -76 -317 -106v-353c0 -76 7.5 -135.167 22.5 -177.5s51.833 -66.5 110.5 -72.5v-18h-491v18
c58.667 8.66699 95.5 31.667 110.5 69s22.5 93 22.5 167v825c0 51.333 -2.33301 92.666 -7 123.999s-16.667 59 -36 83s-49.333 38.333 -90 43v19h751zM434 719.003c325.333 103.333 488 225.335 488 366.002c0 63.333 -25.333 107.166 -76 131.499s-123.667 36.5 -219 36.5
c-62.667 0 -107.5 -6.16699 -134.5 -18.5s-43.5 -30.833 -49.5 -55.5s-9 -65.334 -9 -122.001v-338z" />
    <glyph glyph-name="endash" unicode="&#xd1;" horiz-adv-x="1434" 
d="M1270 -20c-14 4 -36.668 5.99805 -68.001 5.99805l-248 -13c-250.667 0 -450 61.667 -598 185c-44 36.667 -82.667 77.334 -116 122.001s-60.666 91.334 -81.999 140.001s-37.666 100.667 -48.999 156s-17 110.333 -17 165c0 61.333 7.5 121 22.5 179
s37.667 112.5 68 163.5s67.833 95.5 112.5 133.5c70 56.667 147.167 97 231.5 121s177.166 36 278.499 36l225 -18l66 -6c39.333 0 66 14.333 80 43l94 -387l-17 -7c-35.333 85.333 -94.333 151.5 -177 198.5s-173 70.5 -271 70.5c-71.333 0 -134.333 -10.333 -189 -31
s-103.667 -56.334 -147 -107.001c-43.333 -50 -76 -107.667 -98 -173s-33 -132.333 -33 -201c0 -118.667 25.5 -230 76.5 -334s123.5 -187 217.5 -249s201.333 -93 322 -93c70 0 133.667 12.833 191 38.5s108 62.834 152 111.501s80.667 105 110 169l20 -8z" />
    <glyph glyph-name="quotedblleft" unicode="&#xd2;" horiz-adv-x="1188" 
d="M705 266c0 -54.667 2.33301 -98.167 7 -130.5s16.5 -59.5 35.5 -81.5s49.167 -34 90.5 -36v-18h-492v18c41.333 2 71.5 13.167 90.5 33.5s30.833 45.833 35.5 76.5s7 72.667 7 126v987c-126.667 0 -229.167 -21.667 -307.5 -65s-136.833 -114.333 -175.5 -213l-19 6
l101 405c8 -10.667 20.833 -17.667 38.5 -21s45.167 -5 82.5 -5h786c37.333 0 64.833 1.66699 82.5 5s30.5 10.333 38.5 21l100 -405l-18 -6c-38.667 98.667 -97.167 169.667 -175.5 213s-180.833 65 -307.5 65v-975z" />
    <glyph glyph-name="quotedblright" unicode="&#xd3;" horiz-adv-x="1352" 
d="M709 324l-480.001 783.997c-40 69.333 -75.167 122.333 -105.5 159s-63.833 57.334 -100.5 62.001v19h448v-19c-28.667 -5.33301 -43 -23 -43 -53c0 -22.667 6.33301 -47.667 19 -75s33.667 -66.666 63 -117.999l305 -528l221 530c27.333 64 41 116 41 156
c0 51.333 -23.667 80.666 -71 87.999v19h364v-19c-42 -5.33301 -74.833 -25.166 -98.5 -59.499s-50.834 -85.5 -81.501 -153.5l-350 -784c-30 -67.333 -61.167 -125.666 -93.5 -174.999s-69.666 -90.5 -111.999 -123.5s-89.166 -53.167 -140.499 -60.5
c-20.667 -4 -42 -6 -64 -6c-102.667 0 -194.667 37 -276 111l151 368l21 -2c-10 -48 -15 -93.667 -15 -137c0 -144.667 58 -217 174 -217c48.667 6.66699 91.667 31.667 129 75s69 96.333 95 159z" />
    <glyph glyph-name="quoteleft" unicode="&#xd4;" horiz-adv-x="1761" 
d="M768 285l0.000976562 777.999c-67.333 -2 -128 -10.833 -182 -26.5s-100.167 -37.667 -138.5 -66s-67.833 -62.666 -88.5 -102.999s-31 -85.833 -31 -136.5c0 -72 18.333 -139 55 -201s88.167 -114.667 154.5 -158s143.166 -72.333 230.499 -87zM991.001 1063
l0.00195312 -778.001c88.667 4 166.167 18.5 232.5 43.5s118 60.833 155 107.5s55.5 103.334 55.5 170.001c0 59.333 -11.5 114.5 -34.5 165.5s-55.333 96.5 -97 136.5s-89.334 73.333 -143.001 100s-109.834 45 -168.501 55zM991.003 1149
c97.333 -4 188.165 -17.3291 272.498 -39.9961s157.333 -54.167 219 -94.5s110.167 -90.333 145.5 -150s53 -128.834 53 -207.501c0 -73.333 -18.167 -137.5 -54.5 -192.5s-86.333 -101.333 -150 -139s-136 -66.834 -217 -87.501s-170.5 -34.334 -268.5 -41.001
c0 -38.667 3.16699 -69.667 9.5 -93s19 -42 38 -56s48.167 -24 87.5 -30v-18h-493v18c40.667 6 70.667 15.667 90 29s31.666 31 36.999 53s8 54.333 8 97c-133.333 7.33301 -252.166 30.5 -356.499 69.5s-185.666 93.167 -243.999 162.5s-87.5 149.666 -87.5 240.999
c0 75.333 17.833 142 53.5 200s84.834 106.833 147.501 146.5s135.5 70.334 218.5 92.001s172.5 35.167 268.5 40.5c0 60 -8.5 103.167 -25.5 129.5s-53.5 43.166 -109.5 50.499v19h493v-19c-41.333 -6.66699 -71.5 -16.667 -90.5 -30s-31.167 -31 -36.5 -53
s-8 -54.333 -8 -97z" />
    <glyph glyph-name="quoteright" unicode="&#xd5;" horiz-adv-x="1311" 
d="M1165 174c34.667 -51.333 63.501 -88.333 86.501 -111s56.5 -37.667 100.5 -45v-26l-537 8v18c65.333 8.66699 98 36.667 98 84c0 34 -16.333 75.667 -49 125l-264 396l-192 -287c-36.667 -54 -65.334 -100.833 -86.001 -140.5s-31 -73.5 -31 -101.5
c0 -42.667 30 -68 90 -76v-18h-418v18c33.333 6 61.666 18.5 84.999 37.5s43.333 39.667 60 62l68 95.5l359 514l-230 346l-55 82.5c-18 25.667 -38.667 51.667 -62 78s-47.666 48.166 -72.999 65.499s-52 27.333 -80 30v19h522v-19c-58.667 -9.33301 -88 -33.333 -88 -72
c0 -28 19.667 -72.333 59 -133l138 -204l135 192c53.333 74.667 80 129.334 80 164.001c0 31.333 -22 49 -66 53v19h397v-19c-40 -3.33301 -76.167 -16.333 -108.5 -39s-59.5 -48.167 -81.5 -76.5s-50 -66.833 -84 -115.5l-199 -283z" />
    <glyph glyph-name="divide" unicode="&#xd6;" horiz-adv-x="1475" 
d="M76 0l-0.00195312 18.001c40.667 6.66699 70.667 22 90 46s31.333 51.667 36 83s7 71.666 7 120.999v826c0 48.667 -2.33301 87.667 -7 117s-16.667 54.833 -36 76.5s-49.333 35.5 -90 41.5v19h493v-17c-59.333 -6 -96.666 -29.833 -111.999 -71.5
s-23 -101.167 -23 -178.5v-807c0 -52.667 3.5 -90.667 10.5 -114s24.167 -40.166 51.5 -50.499s70.333 -15.5 129 -15.5h227c58.667 0 101.5 5.16699 128.5 15.5s44 27.166 51 50.499s10.5 61.333 10.5 114v807c0 79.333 -7.66699 139.333 -23 180s-52.666 64 -111.999 70
v17h494v-19c-58.667 -8 -95.5 -31.5 -110.5 -70.5s-22.5 -93.833 -22.5 -164.5v-826c0 -50 5.5 -90.5 16.5 -121.5s24.5 -53.333 40.5 -67s31.667 -20.5 47 -20.5c13.333 0 23 4.33301 29 13l100 -406l-18 -6c-27.333 70 -63 130 -107 180s-97.833 89.167 -161.5 117.5
s-135.5 42.5 -215.5 42.5h-923z" />
    <glyph glyph-name="lozenge" unicode="&#xd7;" horiz-adv-x="1434" 
d="M174 1079c0 76.667 -7.66602 135.665 -22.999 176.998s-52 65.666 -110 72.999v19h491v-19c-58.667 -5.33301 -95.5 -27.5 -110.5 -66.5s-22.5 -95.167 -22.5 -168.5v-138c0 -47.333 9.83301 -88.666 29.5 -123.999s47.167 -62.666 82.5 -81.999s76.666 -29 123.999 -29
c113.333 0 235.333 33.333 366 100v258c-1.33301 82 -9.33301 143 -24 183s-51 62.333 -109 67v19h492v-19c-40.667 -4.66699 -70.667 -18.167 -90 -40.5s-31 -46.666 -35 -72.999s-6.66699 -66.833 -8 -121.5v-826c1.33301 -56.667 4 -99.167 8 -127.5
s15.5 -54.333 34.5 -78s49.167 -38.5 90.5 -44.5v-18h-492v18c41.333 4 71.5 16.667 90.5 38s30.5 45.5 34.5 72.5s6.66699 68.833 8 125.5v469c-72 -41.333 -146.167 -74.5 -222.5 -99.5s-155.5 -37.5 -237.5 -37.5c-107.333 0 -195.333 32.667 -264 98
s-103 149.333 -103 252v143z" />
    <glyph glyph-name="ydieresis" unicode="&#xd8;" horiz-adv-x="1925" 
d="M1229 94l70.998 0.000976562c58.667 0 101.667 5.16699 129 15.5s44.5 27.166 51.5 50.499s10.5 61.333 10.5 114v807c0 79.333 -7.66699 139.333 -23 180s-52.666 64 -111.999 70v17h493v-19c-58.667 -8 -95.5 -31.5 -110.5 -70.5s-22.5 -93.833 -22.5 -164.5v-826
c0 -72.667 7.66699 -130 23 -172s52 -68 110 -78v-18h-1773v18c40.667 6.66699 70.667 22 90 46s31.333 51.667 36 83s7 71.666 7 120.999v826c0 48.667 -2.33301 87.667 -7 117s-16.667 54.833 -36 76.5s-49.333 35.5 -90 41.5v19h493v-17
c-59.333 -6 -96.666 -29.833 -111.999 -71.5s-23 -101.167 -23 -178.5v-807c0 -52.667 3.5 -90.667 10.5 -114s24.167 -40.166 51.5 -50.499s70.333 -15.5 129 -15.5h71c41.333 0 73.333 5.16699 96 15.5s38 26.833 46 49.5s12 54.334 12 95.001v825
c0 50.667 -2.33301 91.667 -7 123s-16.5 58.833 -35.5 82.5s-49.167 38.5 -90.5 44.5v19h491v-19c-58.667 -9.33301 -95.5 -33.333 -110.5 -72s-22.5 -93.667 -22.5 -165v-824c0 -46.667 3.83301 -82.334 11.5 -107.001s22.167 -42 43.5 -52s54.333 -15 99 -15z" />
    <glyph glyph-name="Ydieresis" unicode="&#xd9;" horiz-adv-x="1925" 
d="M76 0l-0.000976562 18c40.667 6.66699 70.667 22 90 46s31.333 51.667 36 83s7 71.666 7 120.999v826c0 48.667 -2.33301 87.667 -7 117s-16.667 54.833 -36 76.5s-49.333 35.5 -90 41.5v19h493v-17c-59.333 -6 -96.666 -29.833 -111.999 -71.5s-23 -101.167 -23 -178.5
v-807c0 -52.667 3.5 -90.667 10.5 -114s24.167 -40.166 51.5 -50.499s70.333 -15.5 129 -15.5h71c41.333 0 73.333 5.16699 96 15.5s38 26.833 46 49.5s12 54.334 12 95.001v825c0 50.667 -2.33301 91.667 -7 123s-16.5 58.833 -35.5 82.5s-49.167 38.5 -90.5 44.5v19h491
v-19c-58.667 -9.33301 -95.5 -33.333 -110.5 -72s-22.5 -93.667 -22.5 -165v-824c0 -46.667 3.83301 -82.334 11.5 -107.001s22.167 -42 43.5 -52s54.333 -15 99 -15h71c58.667 0 101.667 5.16699 129 15.5s44.5 27.166 51.5 50.499s10.5 61.333 10.5 114v807
c0 79.333 -7.66699 139.333 -23 180s-52.666 64 -111.999 70v17h493v-19c-58.667 -8 -95.5 -31.5 -110.5 -70.5s-22.5 -93.833 -22.5 -164.5v-826c0 -50 5.5 -90.5 16.5 -121.5s24.667 -53.333 41 -67s32.166 -20.5 47.499 -20.5c12.667 0 22 4.33301 28 13l101 -406l-19 -6
c-27.333 70 -62.833 129.833 -106.5 179.5s-97.167 88.834 -160.5 117.501s-135.333 43 -216 43h-1372z" />
    <glyph glyph-name="fraction" unicode="&#xda;" horiz-adv-x="1434" 
d="M637 248c0 -56.667 9.99902 -96.502 29.999 -119.502s69.333 -34.5 148 -34.5c109.333 0 194.333 26.5 255 79.5s91 126.167 91 219.5c0 53.333 -13 103.333 -39 150s-61.833 87.334 -107.5 122.001s-101.167 63.334 -166.5 86.001s-135.666 36 -210.999 40v-543z
M411.999 1255l-82 -0.00390625c-80 0 -146.833 -26.333 -200.5 -79s-99.5 -123.667 -137.5 -213l-19 6l101 405c8 -10.667 21 -17.667 39 -21s45.333 -5 82 -5h577v-19c-58 -5.33301 -94.667 -29.666 -110 -72.999s-23 -102.333 -23 -177l-2 -196
c139.333 -7.33301 266.333 -32.166 381 -74.499s205.5 -99.666 272.5 -171.999s100.5 -155.5 100.5 -249.5c0 -82 -21.5 -152 -64.5 -210s-106.167 -102 -189.5 -132s-185.333 -45 -306 -45h-552v18c58.667 8.66699 95.5 31.834 110.5 69.501s22.5 93.167 22.5 166.5v1001z
" />
    <glyph glyph-name="currency" unicode="&#xdb;" horiz-adv-x="1843" 
d="M1634 268c0 -74 7.5 -132 22.5 -174s51.833 -67.333 110.5 -76v-18h-491v18c41.333 6 71.5 19.667 90.5 41s30.833 46.833 35.5 76.5s7 69.167 7 118.5v825c0 50.667 -2.33301 91.667 -7 123s-16.5 58.833 -35.5 82.5s-49.167 38.5 -90.5 44.5v19h491v-19
c-58.667 -9.33301 -95.5 -33.333 -110.5 -72s-22.5 -93.667 -22.5 -165v-824zM432 248c0 -41.333 2.99902 -71.835 8.99902 -91.502s21.5 -35 46.5 -46s63.833 -16.5 116.5 -16.5c73.333 0 136.333 12 189 36s93 58.833 121 104.5s42 98.5 42 158.5
c0 53.333 -13 103.333 -39 150s-61.833 87.334 -107.5 122.001s-101.167 63.334 -166.5 86.001s-135.666 36 -210.999 40v-543zM1186 386.998c0 -82 -21.5 -152.003 -64.5 -210.003s-106.167 -102 -189.5 -132s-185 -45 -305 -45h-553v18
c58 8.66699 94.333 31.334 109 68.001s22.667 92.667 24 168v825c-1.33301 78.667 -9.5 138 -24.5 178s-51.167 64 -108.5 72v19h506v-19c-46.667 -9.33301 -80.667 -25.5 -102 -48.5s-34.333 -49.167 -39 -78.5s-7 -69 -7 -119v-200
c139.333 -7.33301 266.333 -32.166 381 -74.499s205.5 -99.666 272.5 -171.999s100.5 -155.5 100.5 -249.5z" />
    <glyph glyph-name="guilsinglleft" unicode="&#xdc;" horiz-adv-x="1229" 
d="M432 248c0 -41.333 2.99902 -71.835 8.99902 -91.502s21.5 -35 46.5 -46s63.833 -16.5 116.5 -16.5c73.333 0 136.333 12 189 36s93 58.833 121 104.5s42 98.5 42 158.5c0 53.333 -13 103.333 -39 150s-61.833 87.334 -107.5 122.001s-101.167 63.334 -166.5 86.001
s-135.666 36 -210.999 40v-543zM1186 386.998c0 -82 -21.5 -152.003 -64.5 -210.003s-106.167 -102 -189.5 -132s-185 -45 -305 -45h-553v18c58 8.66699 94.333 31.334 109 68.001s22.667 92.667 24 168v825c-1.33301 78.667 -9.5 138 -24.5 178s-51.167 64 -108.5 72v19
h506v-19c-46.667 -9.33301 -80.667 -25.5 -102 -48.5s-34.333 -49.167 -39 -78.5s-7 -69 -7 -119v-200c139.333 -7.33301 266.333 -32.166 381 -74.499s205.5 -99.666 272.5 -171.999s100.5 -155.5 100.5 -249.5z" />
    <glyph glyph-name="guilsinglright" unicode="&#xdd;" horiz-adv-x="1434" 
d="M1079 776c-19.333 95.333 -50.665 180 -93.998 254s-99 132.167 -167 174.5s-146.667 63.5 -236 63.5c-66 0 -125.667 -9.83301 -179 -29.5s-101 -49.167 -143 -88.5s-78.667 -89.666 -110 -150.999l-21 9l137 385c18 -24.667 45.333 -37 82 -37c6 0 35 3 87 9
s101 9 147 9c111.333 0 214.5 -18.667 309.5 -56s175.833 -89.833 242.5 -157.5s117.834 -148.5 153.501 -242.5s53.5 -196 53.5 -306c0 -106 -20.667 -199.167 -62 -279.5s-99 -147.333 -173 -201s-159.333 -93.5 -256 -119.5s-201 -39 -313 -39
c-16.667 0 -42.334 1 -77.001 3s-62.334 3.66699 -83.001 5l-71.5 4.5c-27 1.66699 -46.167 2.5 -57.5 2.5c-36.667 0 -60.667 -3.66699 -72 -11l-115 396l17 6c18 -42.667 43.5 -82.667 76.5 -120s70 -69.333 111 -96s85.167 -47.5 132.5 -62.5s93.666 -22.5 138.999 -22.5
c108 0 204.333 22.833 289 68.5s150.167 112.667 196.5 201s69.5 195.166 69.5 320.499h-633v108h620z" />
    <glyph glyph-name="fi" unicode="&#xde;" horiz-adv-x="2089" 
d="M1356 80c89.333 0 163.834 23.6699 223.501 71.0029s103.167 109.666 130.5 186.999s41 162.666 41 255.999c0 89.333 -12.167 175.666 -36.5 258.999s-58.333 156 -102 218s-95.5 110.333 -155.5 145s-125.667 52 -197 52c-135.333 0 -233.833 -50 -295.5 -150
s-92.5 -225 -92.5 -375c0 -79.333 9.83301 -158.5 29.5 -237.5s49.167 -150.5 88.5 -214.5s90.166 -115.167 152.499 -153.5s133.5 -57.5 213.5 -57.5zM627.001 670.003l-195.003 -0.00292969v-402c0 -76 7.5 -135.167 22.5 -177.5s51.833 -66.5 110.5 -72.5v-18h-491v18
c58.667 8.66699 95.5 31.834 110.5 69.501s22.5 93.167 22.5 166.5v825c0 50.667 -2.33301 91.667 -7 123s-16.5 58.833 -35.5 82.5s-49.167 38.5 -90.5 44.5v19h491v-19c-41.333 -4.66699 -71.5 -17.834 -90.5 -39.501s-30.833 -47.167 -35.5 -76.5s-7 -69 -7 -119v-320
h197c7.33301 84.667 28.5 163 63.5 235s82.5 135.5 142.5 190.5s129.833 97.833 209.5 128.5s167.167 46 262.5 46c104 0 198.5 -17.5 283.5 -52.5s157.667 -84.333 218 -148s106.833 -139.667 139.5 -228s49 -185.166 49 -290.499c0 -97.333 -17.667 -188 -53 -272
s-84.166 -156.667 -146.499 -218s-135.666 -108.666 -219.999 -141.999s-173.833 -50 -268.5 -50c-96 0 -184.833 18 -266.5 54s-153.167 86.333 -214.5 151s-109.166 139.334 -143.499 224.001s-53.5 174 -57.5 268z" />
    <glyph glyph-name="fl" unicode="&#xdf;" horiz-adv-x="1393" 
d="M1319 1348l0.00195312 -19.001c-58.667 -8 -95.5 -33 -110.5 -75s-22.5 -100.333 -22.5 -175v-823c0 -49.333 2.33301 -88.666 7 -117.999s16.5 -55 35.5 -77s49.167 -36.333 90.5 -43v-18h-492v18c59.333 8.66699 96.5 32.667 111.5 72s22.5 98.666 22.5 177.999v367
l-238 82c-48 -64.667 -92.333 -128.5 -133 -191.5s-77 -123.667 -109 -182s-59.333 -114.166 -82 -167.499c-12 -28.667 -18 -54.667 -18 -78c0 -43.333 25.333 -70 76 -80v-18h-432v18c28.667 8 53 28 73 60s53 95.333 99 190c43.333 91.333 93.166 182.5 149.499 273.5
s116.166 177.5 179.499 259.5c-62 34 -107.833 60 -137.5 78s-58 39.667 -85 65s-48.5 54.333 -64.5 87s-24 68.667 -24 108c0 68 27.167 119.833 81.5 155.5s130.833 53.5 229.5 53.5h793zM961.002 1081c0 63.333 -3.83301 105.333 -11.5 126s-27 33.5 -58 38.5
s-94.833 7.5 -191.5 7.5c-76.667 0 -136.334 -10.333 -179.001 -31s-64 -64 -64 -130c0 -82 54.333 -154.167 163 -216.5s222.334 -110.5 341.001 -144.5v350z" />
    <glyph glyph-name="daggerdbl" unicode="&#xe0;" horiz-adv-x="1147" 
d="M872 0c-44 56.667 -67.0049 118.003 -69.0049 184.003c-38 -68.667 -94.167 -119.834 -168.5 -153.501s-154.166 -50.5 -239.499 -50.5c-95.333 0 -173 21.333 -233 64s-90 101 -90 175c0 75.333 24.333 139.5 73 192.5s109.5 95.5 182.5 127.5s157.667 59.833 254 83.5
l204.5 49.5v39c0 75.333 -15.333 128.166 -46 158.499s-84 45.5 -160 45.5c-98.667 0 -186 -23.667 -262 -71s-134.333 -116.333 -175 -207l33 336c24.667 -18 45.334 -27 62.001 -27c14 0 37 5.66699 69 17c66.667 23.333 125.334 40.333 176.001 51s110.334 16 179.001 16
c68 0 123.5 -6 166.5 -18s77.833 -31.333 104.5 -58s45.834 -61.334 57.501 -104.001s17.5 -97.334 17.5 -164.001v-385c0 -55.333 2.5 -100.333 7.5 -135s18.167 -65.667 39.5 -93s54 -45.666 98 -54.999v-18h-281zM785.995 588.003
c-119.333 -25.333 -229.334 -65.667 -330.001 -121s-151 -129 -151 -221c0 -46 16.333 -82.833 49 -110.5s71.667 -41.5 117 -41.5c114.667 0 195.834 41.167 243.501 123.5s71.5 188.833 71.5 319.5v51z" />
    <glyph glyph-name="periodcentered" unicode="&#xe1;" 
d="M307 539c0 -74.667 11.502 -147.332 34.502 -217.999s59.5 -128.834 109.5 -174.501s113.333 -68.5 190 -68.5c64 0 120.5 19 169.5 57s86.333 88.833 112 152.5s38.5 130.834 38.5 201.501c0 72.667 -11.333 143 -34 211s-58.834 123.667 -108.501 167
s-112.167 65 -187.5 65c-108.667 0 -189.834 -37.333 -243.501 -112s-80.5 -168.334 -80.5 -281.001zM440.002 1382c45.333 20.667 97 36.668 155 48.001l193 36c70.667 12.667 126 26.334 166 41.001c29.333 11.333 52.5 26.333 69.5 45s25.5 36.667 25.5 54h10
c0 -76 -16.5 -141.5 -49.5 -196.5s-76.5 -94.167 -130.5 -117.5c-35.333 -14 -76 -26 -122 -36l-137.5 -29.5c-45.667 -9.66699 -90.5 -23.834 -134.5 -42.501c-54.667 -23.333 -103.834 -55.5 -147.501 -96.5s-79 -88.667 -106 -143s-41.5 -109.833 -43.5 -166.5
c28.667 44 65 84.667 109 122s96.167 68.333 156.5 93s123.5 37 189.5 37c80 0 153 -11.167 219 -33.5s124 -55.5 174 -99.5s88.833 -98.333 116.5 -163s41.5 -136.667 41.5 -216c0 -83.333 -14.167 -157.833 -42.5 -223.5s-68.5 -121.834 -120.5 -168.501
s-113.167 -82.667 -183.5 -108s-145.166 -38 -224.499 -38c-78.667 0 -150.834 11.667 -216.501 35s-123.667 57.666 -174 102.999s-89.333 100.5 -117 165.5s-41.5 136.5 -41.5 214.5c0 93.333 5.33301 184.5 16 273.5s29.167 173.5 55.5 253.5s63.833 151.333 112.5 214
s109.334 110.334 182.001 143.001z" />
    <glyph glyph-name="quotesinglbase" unicode="&#xe2;" horiz-adv-x="1188" 
d="M700 571l-307.001 -74.998v-240c0 -60.667 3.33301 -101.334 10 -122.001s24.334 -34.167 53.001 -40.5s83.667 -9.5 165 -9.5c84 1.33301 152.667 21.666 206 60.999s80 94 80 164c0 58.667 -19 111 -57 157s-88 81 -150 105zM624.999 1010
c117.333 0 210.499 -11.002 279.499 -33.002s103.5 -74 103.5 -156c0 -47.333 -18.833 -88.666 -56.5 -123.999s-86.5 -63 -146.5 -83c90 -18 168.5 -52 235.5 -102s100.5 -111.333 100.5 -184s-21.667 -133.5 -65 -182.5s-101.5 -85.5 -174.5 -109.5
s-153.833 -36 -242.5 -36h-598v18c38 4 66 17.333 84 40s29 48.834 33 78.501s6 68.167 6 115.5v506c0 47.333 -2.16699 85.833 -6.5 115.5s-15.666 56 -33.999 79s-45.833 35.833 -82.5 38.5v19h564zM593.998 635c128 32.667 192 88.667 192 168c0 82 -62 123 -186 123
c-74 0 -123.833 -3.16699 -149.5 -9.5s-41.667 -19.833 -48 -40.5s-9.5 -60 -9.5 -118v-172z" />
    <glyph glyph-name="quotedblbase" unicode="&#xe3;" horiz-adv-x="942" 
d="M743 1010c37.333 0 64.834 1.66699 82.501 5s30.5 10.333 38.5 21l101 -405l-19 -6c-28.667 72 -58.5 128.167 -89.5 168.5s-72 70.666 -123 90.999s-117.167 30.5 -198.5 30.5c-46 0 -78.833 -5.16699 -98.5 -15.5s-31.834 -25.5 -36.501 -45.5s-7 -52 -7 -96v-506
c0 -74 7.16699 -131.5 21.5 -172.5s48.166 -61.5 101.499 -61.5v-18h-455v18c38 4 66 16.833 84 38.5s29 47.334 33 77.001s6 69.167 6 118.5v506c0 47.333 -2.16699 85.833 -6.5 115.5s-15.666 56 -33.999 79s-45.833 35.833 -82.5 38.5v19h682z" />
    <glyph glyph-name="perthousand" unicode="&#xe4;" horiz-adv-x="1188" 
d="M414 82h235c45.333 0 81 7.33301 107 22s39 47 39 97v557c0 45.333 -2.33301 79.333 -7 102s-16.667 40.667 -36 54s-50.333 20 -93 20c-80 0 -146 -29.333 -198 -88c-28 -30 -54.5 -68.5 -79.5 -115.5s-46.5 -98.833 -64.5 -155.5s-32 -117 -42 -181
s-15 -129.667 -15 -197c0 -36 5.66699 -62.167 17 -78.5s27 -26.5 47 -30.5s50 -6 90 -6zM1126 49l101.001 -385.001l-19 -4c-22 52 -48.333 99.5 -79 142.5s-65.5 79 -104.5 108s-83 51.167 -132 66.5s-103.5 23 -163.5 23h-350c-118 0 -217.333 -30 -298 -90
s-143 -142.667 -187 -248l-17 4l100 383c18 -13.333 34.667 -20 50 -20c24 0 42.667 15.833 56 47.5s23.333 71.834 30 120.501c14.667 116 42.167 234 82.5 354s97.5 226.333 171.5 319c16 19.333 24 42 24 68c0 36.667 -19.667 55 -59 55v17h794v-17
c-52.667 0 -86.167 -20.667 -100.5 -62s-21.5 -99 -21.5 -173v-551c0 -48 5.66699 -89.667 17 -125s30 -53 56 -53c15.333 0 31.666 6.66699 48.999 20z" />
    <glyph glyph-name="Acircumflex" unicode="&#xe5;" horiz-adv-x="1147" 
d="M307 461c11.333 -70 37.001 -134.166 77.001 -192.499s90.667 -104.666 152 -138.999s127 -51.5 197 -51.5c39.333 0 82.833 10 130.5 30s86.834 43.333 117.501 70c36.667 32 73 84 109 156l18 -8l-107 -338c-14 9.33301 -29.667 14 -47 14
c-8.66699 0 -21.667 -1.33301 -39 -4l-215 -18c-66.667 0 -137 10.333 -211 31s-142.333 52.5 -205 95.5s-113.334 98 -152.001 165s-58 144.5 -58 232.5c0 99.333 23.667 189.166 71 269.499s112 143.166 194 188.499s173 68 273 68c113.333 0 214.166 -31.667 302.499 -95
s146.833 -149 175.5 -257zM850.001 705.001c-21.333 63.333 -53.834 117.001 -97.501 161.001s-96.5 66 -158.5 66c-64 0 -118.667 -17.667 -164 -53s-79.166 -82.833 -101.499 -142.5s-33.5 -122.834 -33.5 -189.501z" />
    <glyph glyph-name="Ecircumflex" unicode="&#xe6;" horiz-adv-x="1802" 
d="M674 0l0.00195312 18c38 0 66 10.167 84 30.5s29 46 33 77s6 73.833 6 128.5v217l-127 131c-34.667 -26.667 -77.5 -74.334 -128.5 -143.001s-94.667 -138.667 -131 -210s-54.5 -126.333 -54.5 -165c0 -18.667 7.16699 -34.334 21.5 -47.001s30.5 -19 48.5 -19v-18h-436
v18c18 2.66699 33.5 7.66699 46.5 15s23.333 15.833 31 25.5s15.834 23 24.501 40l21 40.5l90.5 168c23 41.333 52.833 90 89.5 146s73.667 107 111 153s74.666 86.333 111.999 121l-51 45c-87.333 75.333 -152.5 128.5 -195.5 159.5s-95.833 50.833 -158.5 59.5v19h417v-19
c-38 -5.33301 -57 -20.333 -57 -45c0 -32 25.333 -71.667 76 -119l250 -260v191c0 49.333 -2.16699 89.5 -6.5 120.5s-15.5 57.5 -33.5 79.5s-45.667 33 -83 33v19h454v-19c-52.667 0 -86.167 -20.5 -100.5 -61.5s-21.5 -98.167 -21.5 -171.5v-191l249 260
c50.667 47.333 76 87 76 119c0 24.667 -19 39.667 -57 45v19h418v-19c-35.333 -4.66699 -68.5 -14.167 -99.5 -28.5s-59.833 -30.833 -86.5 -49.5s-54.834 -41.167 -84.501 -67.5l-84.5 -73.5l-51 -45c37.333 -34.667 76.166 -76.667 116.499 -126
s76.833 -99.333 109.5 -150s62.834 -100.167 90.501 -148.5s56.834 -102.833 87.501 -163.5l19.5 -37.5c7.66699 -15 16.167 -28.333 25.5 -40s20.166 -21.167 32.499 -28.5s27.166 -12.333 44.499 -15v-18h-436v18c18 0 34.167 6.33301 48.5 19s21.5 28.334 21.5 47.001
c0 38.667 -18.167 93.834 -54.5 165.501s-79.5 141.167 -129.5 208.5s-93 115.333 -129 144l-127 -131v-217c0 -54.667 2 -97.5 6 -128.5s14.833 -56.667 32.5 -77s45.5 -30.5 83.5 -30.5v-18h-454z" />
    <glyph glyph-name="Aacute" unicode="&#xe7;" horiz-adv-x="983" 
d="M823 805c0 -36.667 -11 -70.001 -33 -100.001s-51.667 -55 -89 -75s-73.666 -33.333 -108.999 -40c102.667 -22.667 182.667 -56.667 240 -102s86 -107 86 -185c0 -62.667 -18.5 -118.167 -55.5 -166.5s-92.833 -86.166 -167.5 -113.499s-165.667 -41 -273 -41
c-22 0 -58.333 2.66699 -109 8s-88.667 8 -114 8c-38 0 -72.333 -4.66699 -103 -14l-61 295l12 4c29.333 -58 76.666 -106.667 141.999 -146s133.333 -59 204 -59c84 0 155.5 20.333 214.5 61s88.5 96 88.5 166c0 78 -30.667 134.667 -92 170s-169 53 -323 53v78
c109.333 0 188.833 14.667 238.5 44s74.5 76.333 74.5 141c0 40.667 -15 75 -45 103s-69.667 42 -119 42c-83.333 0 -149.833 -19 -199.5 -57s-96.5 -95.333 -140.5 -172l-16 6l106 325c13.333 -16 32 -24 56 -24c7.33301 0 32 2.66699 74 8s82 8 120 8
c84.667 0 156.5 -8.5 215.5 -25.5s103.333 -42.5 133 -76.5s44.5 -75 44.5 -123z" />
    <glyph glyph-name="Edieresis" unicode="&#xe8;" 
d="M877 764l-484.001 -422v-90c0 -74 7.16699 -131.5 21.5 -172.5s48.166 -61.5 101.499 -61.5v-18h-455v18c38 4 66 17.333 84 40s29 48.834 33 78.501s6 68.167 6 115.5v506c0 47.333 -2.16699 85.833 -6.5 115.5s-15.666 56 -33.999 79s-45.833 35.833 -82.5 38.5v19h455
v-19c-53.333 0 -87.166 -20.5 -101.499 -61.5s-21.5 -98.167 -21.5 -171.5v-301l484 422c-0.666992 17.333 -8.66699 39.333 -24 66s-48.333 42 -99 46v19h454v-19c-53.333 0 -87.166 -20.5 -101.499 -61.5s-21.5 -98.167 -21.5 -171.5v-506
c0 -74 7.16699 -131.5 21.5 -172.5s48.166 -61.5 101.499 -61.5v-18h-454v18c54 5.33301 88 28.166 102 68.499s21 95.5 21 165.5v512z" />
    <glyph glyph-name="Egrave" unicode="&#xe9;" 
d="M877 764l-484.001 -422v-90c0 -74 7.16699 -131.5 21.5 -172.5s48.166 -61.5 101.499 -61.5v-18h-455v18c38 4 66 17.333 84 40s29 48.834 33 78.501s6 68.167 6 115.5v506c0 47.333 -2.16699 85.833 -6.5 115.5s-15.666 56 -33.999 79s-45.833 35.833 -82.5 38.5v19h455
v-19c-53.333 0 -87.166 -20.5 -101.499 -61.5s-21.5 -98.167 -21.5 -171.5v-301l484 422c-0.666992 17.333 -8.66699 39.333 -24 66s-48.333 42 -99 46v19h454v-19c-53.333 0 -87.166 -20.5 -101.499 -61.5s-21.5 -98.167 -21.5 -171.5v-506
c0 -74 7.16699 -131.5 21.5 -172.5s48.166 -61.5 101.499 -61.5v-18h-454v18c54 5.33301 88 28.166 102 68.499s21 95.5 21 165.5v512zM400.999 1399c56.667 -76.667 134.667 -115 234 -115c58.667 0 105.5 10.667 140.5 32s65.833 49 92.5 83h23
c-7.33301 -69.333 -34.333 -125.333 -81 -168s-105 -64 -175 -64c-66 0 -124.167 22.5 -174.5 67.5s-77.5 99.833 -81.5 164.5h22z" />
    <glyph glyph-name="Iacute" unicode="&#xea;" horiz-adv-x="1229" 
d="M408 567l270.001 259.996c50.667 47.333 76 87 76 119c0 24.667 -19.333 39.667 -58 45v19h418v-19c-35.333 -5.33301 -68.5 -15 -99.5 -29s-60.667 -31.167 -89 -51.5s-54.333 -40.833 -78 -61.5l-87.5 -77l-51 -45c56 -53.333 107.167 -111.166 153.5 -173.499
s87.166 -123.666 122.499 -183.999s77.666 -137.166 126.999 -230.499c6 -10 13.333 -23.333 22 -40s17.167 -30 25.5 -40s18.333 -18.667 30 -26s26.834 -12.333 45.501 -15v-18h-436v18c18 0 34 6.16699 48 18.5s21 28.166 21 47.499
c0 38.667 -18.167 93.834 -54.5 165.501s-79.833 141.667 -130.5 210s-93.334 115.833 -128.001 142.5l-147 -131v-217c0 -54.667 2 -97.5 6 -128.5s14.833 -56.667 32.5 -77s45.5 -30.5 83.5 -30.5v-18h-454v18c54 6 88 28.333 102 67s21 94.334 21 167.001v506
c0 47.333 -2.16699 85.833 -6.5 115.5s-15.666 56 -33.999 79s-45.833 35.833 -82.5 38.5v19h454v-19c-52.667 0 -86.167 -20.5 -100.5 -61.5s-21.5 -98.167 -21.5 -171.5v-191z" />
    <glyph glyph-name="Icircumflex" unicode="&#xeb;" horiz-adv-x="1147" 
d="M618 934c-38 0 -73.834 -7.33203 -107.501 -21.999s-63.834 -36.667 -90.501 -66c-28 -30 -54.333 -68.333 -79 -115s-46.167 -99 -64.5 -157s-32.5 -118.833 -42.5 -182.5s-15 -129.167 -15 -196.5c0 -42.667 15.333 -81.5 46 -116.5s76 -55.167 136 -60.5v-18h-338
c0 72 5 152.667 15 242s34.333 190.5 73 303.5s97 221.167 175 324.5c16 25.333 24 48 24 68c0 33.333 -19 51.666 -57 54.999v17h792v-17c-52.667 0 -86.167 -20.667 -100.5 -62s-21.5 -99 -21.5 -173v-506c0 -74 7.16699 -131.5 21.5 -172.5s47.833 -61.5 100.5 -61.5v-18
h-456v18c54.667 0 89.167 20 103.5 60s21.5 98 21.5 174v506c0 45.333 -2.16699 79.333 -6.5 102s-16.166 40.667 -35.499 54s-50.666 20 -93.999 20z" />
    <glyph glyph-name="Idieresis" unicode="&#xec;" horiz-adv-x="1393" 
d="M295 868l0.000976562 -599.998c0 -47.333 2.66699 -88 8 -122s17.333 -63 36 -87s46.334 -37.667 83.001 -41v-18h-361v18c54 8.66699 87.667 31.667 101 69s20 93 20 167v487c0 50.667 -2.16699 91.667 -6.5 123s-15.333 59 -33 83s-44.834 38.667 -81.501 44v19h467
v-19c-22.667 -5.33301 -34 -18.333 -34 -39c0 -20 8.66699 -46 26 -78l170 -317l160 266c34 63.333 51 105.666 51 126.999s-12.333 35 -37 41v19h467v-19c-36.667 -6.66699 -63.834 -21 -81.501 -43s-28.667 -47.5 -33 -76.5s-6.5 -67.5 -6.5 -115.5v-488
c0 -82.667 6.66699 -143.834 20 -183.501s47 -61.834 101 -66.501v-18h-452v18c52 5.33301 85.333 27.833 100 67.5s22 95.834 22 168.501v614l-366 -616z" />
    <glyph glyph-name="Igrave" unicode="&#xed;" 
d="M877 584h-483.999v-332c0 -74 7.16699 -131.5 21.5 -172.5s48.166 -61.5 101.499 -61.5v-18h-455v18c53.333 0 87.166 20 101.499 60s21.5 98 21.5 174v506c0 49.333 -2.16699 89.5 -6.5 120.5s-15.5 57.5 -33.5 79.5s-45.667 33 -83 33v19h455v-19
c-53.333 0 -87.166 -20.5 -101.499 -61.5s-21.5 -98.167 -21.5 -171.5v-82h484v82c0 73.333 -7.16699 130.5 -21.5 171.5s-48.166 61.5 -101.499 61.5v19h454v-19c-53.333 0 -87.166 -20.5 -101.499 -61.5s-21.5 -98.167 -21.5 -171.5v-506
c0 -74 7.16699 -131.5 21.5 -172.5s48.166 -61.5 101.499 -61.5v-18h-454v18c53.333 0 87.166 20.5 101.499 61.5s21.5 98.5 21.5 172.5v332z" />
    <glyph glyph-name="Oacute" unicode="&#xee;" 
d="M74 498c0 106 24.999 199.501 74.999 280.501s118.167 143.167 204.5 186.5s182.833 65 289.5 65c104 0 198.333 -20.333 283 -61s150.834 -99.5 198.501 -176.5s71.5 -168.5 71.5 -274.5c0 -107.333 -25.167 -202 -75.5 -284s-118.666 -144.833 -204.999 -188.5
s-183.833 -65.5 -292.5 -65.5c-78.667 0 -150.834 11.667 -216.501 35s-123.667 57.666 -174 102.999s-89.333 100.5 -117 165.5s-41.5 136.5 -41.5 214.5zM306.999 539.001c0 -74.667 11.502 -147.332 34.502 -217.999s59.5 -128.834 109.5 -174.501
s113.333 -68.5 190 -68.5c64 0 120.5 19 169.5 57s86.333 88.833 112 152.5s38.5 130.834 38.5 201.501c0 72.667 -11.333 143 -34 211s-58.834 123.667 -108.501 167s-112.167 65 -187.5 65c-108.667 0 -189.834 -37.333 -243.501 -112s-80.5 -168.334 -80.5 -281.001z" />
    <glyph glyph-name="Ocircumflex" unicode="&#xef;" 
d="M516 922c-39.333 0 -67.666 -5.66699 -84.999 -17s-28 -27.5 -32 -48.5s-6 -53.833 -6 -98.5v-506c0 -74 7.16699 -131.5 21.5 -172.5s48.166 -61.5 101.499 -61.5v-18h-455v18c38 4 66 16.833 84 38.5s29 47.334 33 77.001s6 69.167 6 118.5v506
c0 47.333 -2.16699 85.833 -6.5 115.5s-15.666 56 -33.999 79s-45.833 35.833 -82.5 38.5v19h1147v-19c-53.333 0 -87.166 -20.5 -101.499 -61.5s-21.5 -98.167 -21.5 -171.5v-506c0 -74 7.16699 -131.5 21.5 -172.5s48.166 -61.5 101.499 -61.5v-18h-454v18
c54 5.33301 88 27.666 102 66.999s21 95 21 167v506c0 46 -2 79.5 -6 100.5s-14.833 36.833 -32.5 47.5s-45.834 16 -84.501 16h-238z" />
    <glyph glyph-name="apple" unicode="&#xf0;" 
d="M604 1010c120 0 224.333 -19.165 313 -57.498s157.334 -96.333 206.001 -174s73 -173.167 73 -286.5c0 -107.333 -24.333 -198 -73 -272s-116.834 -129.167 -204.501 -165.5s-187.834 -54.5 -300.501 -54.5l-223 8v-186c0 -48.667 2.16699 -88.334 6.5 -119.001
s15.333 -57.167 33 -79.5s44.834 -34.833 81.501 -37.5v-18h-455v18c53.333 3.33301 87.166 24.666 101.499 63.999s21.5 96 21.5 170v938c0 74 -7.16699 130.5 -21.5 169.5s-48.166 60.167 -101.499 63.5v19h543zM393 924.002l-0.00195312 -635
c0 -51.333 4.5 -90.833 13.5 -118.5s28.333 -48.667 58 -63s74.834 -21.5 135.501 -21.5c77.333 0 144.333 18.5 201 55.5s99.834 87.5 129.501 151.5s44.5 134.333 44.5 211c0 130 -40.667 232.5 -122 307.5s-187.333 112.5 -318 112.5h-142z" />
    <glyph glyph-name="Ograve" unicode="&#xf1;" horiz-adv-x="1106" 
d="M973 -14c-16.667 6.66699 -31 10.001 -43 10.001l-37 -2l-59 -6l-136 -8c-110.667 0 -213.834 22.5 -309.501 67.5s-172 110.167 -229 195.5s-85.5 184 -85.5 296c0 92 21.167 175.667 63.5 251s100.666 134.166 174.999 176.499s157.833 63.5 250.5 63.5l146 -10
l131 -12c34 0 62.667 7.33301 86 22l59 -315l-12 -6c-34.667 70 -80.667 124.667 -138 164s-123.333 59 -198 59c-68.667 0 -129.167 -19.5 -181.5 -58.5s-92.166 -90 -119.499 -153s-41 -128.5 -41 -196.5c0 -62.667 11.667 -121.334 35 -176.001s55.5 -102.667 96.5 -144
s86 -72.666 135 -93.999s97.5 -32 145.5 -32c72.667 0 141.834 19.167 207.501 57.5s115.167 89.5 148.5 153.5l14 -8z" />
    <glyph glyph-name="Uacute" unicode="&#xf2;" horiz-adv-x="1024" 
d="M616 252c0 -73.333 7.66699 -130 23 -170s52.333 -61.333 111 -64v-18h-476v18c58.667 2.66699 95.667 24 111 64s23 96.667 23 170v663c-82 0 -148.5 -10.167 -199.5 -30.5s-92 -50.666 -123 -90.999s-60.833 -96.5 -89.5 -168.5l-19 6l101 405
c8 -10.667 20.833 -17.667 38.5 -21s45.167 -5 82.5 -5h626c37.333 0 64.833 1.66699 82.5 5s30.5 10.333 38.5 21l101 -405l-19 -6c-28.667 72 -58.5 128.167 -89.5 168.5s-72 70.666 -123 90.999s-117.5 30.5 -199.5 30.5v-663z" />
    <glyph glyph-name="Ucircumflex" unicode="&#xf3;" horiz-adv-x="983" 
d="M737 768c12.667 36 23.001 66.332 31.001 90.999s12 47 12 67c0 38 -24.333 59.667 -73 65v19h313v-19c-29.333 -4 -53 -15 -71 -33s-31.5 -37.5 -40.5 -58.5s-20.5 -51.833 -34.5 -92.5l-317 -911c-22.667 -66.667 -47.5 -124.5 -74.5 -173.5s-62.833 -88 -107.5 -117
s-101.334 -43.5 -170.001 -43.5c-35.333 0 -70.5 6.16699 -105.5 18.5s-67.5 30.5 -97.5 54.5l117 277l16 -10c-4 -16.667 -6 -33 -6 -49c0 -40.667 11 -76.5 33 -107.5s52 -46.5 90 -46.5c60 0 105.667 27.333 137 82s47 114.667 47 180c-2 44 -11.667 91.333 -29 142
s-39.666 107 -66.999 169l-240 547c-22 52.667 -43.833 94.5 -65.5 125.5s-48.834 46.5 -81.501 46.5v19h412v-19c-44 -5.33301 -66 -25.666 -66 -60.999c0 -18.667 11 -55 33 -109l231 -565z" />
    <glyph glyph-name="Ugrave" unicode="&#xf4;" horiz-adv-x="1761" 
d="M983 289c0 -63.333 4.50195 -108.668 13.502 -136.001s24.667 -45.333 47 -54s58.833 -13 109.5 -13c49.333 0 93.5 10.833 132.5 32.5s72.167 52.167 99.5 91.5s47.666 83.833 60.999 133.5s20 103.167 20 160.5c0 64.667 -9.33301 122.5 -28 173.5
s-44.834 93.833 -78.501 128.5s-73.5 60.834 -119.5 78.501s-97 26.5 -153 26.5h-104v-622zM778.002 910.998l-103.998 -0.00195312c-72 0 -136.833 -15.667 -194.5 -47s-102.834 -77.833 -135.501 -139.5s-49 -135.167 -49 -220.5c0 -117.333 28.333 -216.333 85 -297
s132.667 -121 228 -121c51.333 0 88.166 4.33301 110.499 13s37.833 26.834 46.5 54.501s13 72.834 13 135.501v622zM776.004 1096c0 78 -7.16699 136.331 -21.5 174.998s-48.166 58 -101.499 58v19l330 53v-391h174c68 0 134.167 -11 198.5 -33
s121.166 -54.667 170.499 -98s88.666 -97.666 117.999 -162.999s44 -140 44 -224c0 -106 -23.333 -196.167 -70 -270.5s-109.167 -129.833 -187.5 -166.5s-164.833 -55 -259.5 -55l-186 10v-188c0 -48.667 2.16699 -88.334 6.5 -119.001s15.333 -57.167 33 -79.5
s44.834 -34.833 81.501 -37.5v-18h-451v18c36.667 2.66699 63.834 15.167 81.501 37.5s28.667 48.833 33 79.5s6.5 70.334 6.5 119.001v188l-186 -10c-68.667 0 -133.667 10 -195 30s-116.333 50.833 -165 92.5s-86.834 93.334 -114.501 155.001s-41.5 133.167 -41.5 214.5
c0 110 24.833 204.333 74.5 283s115 137.5 196 176.5s167.5 58.5 259.5 58.5h172v86z" />
    <glyph glyph-name="dotlessi" unicode="&#xf5;" horiz-adv-x="1147" 
d="M979 160l41.5029 -57.999c15.667 -22 32.667 -40.833 51 -56.5s37.833 -24.834 58.5 -27.501v-18h-423v18c42 6.66699 63 22.667 63 48c0 17.333 -7 38.333 -21 63s-33 54 -57 88l-153 232l-148 -185c-44.667 -56 -76.334 -99 -95.001 -129s-28 -54 -28 -72
c0 -23.333 20.667 -38.333 62 -45v-18h-316v18c32 6.66699 59.167 21 81.5 43s48.5 53 78.5 93l307 376l-172 248c-46.667 70 -84.334 122.5 -113.001 157.5s-61.334 53.5 -98.001 55.5v19h441v-19c-45.333 -3.33301 -68 -20.333 -68 -51c0 -28 21.333 -73 64 -135l77 -115
l93 121c29.333 40.667 49.5 69.834 60.5 87.501s16.5 34.167 16.5 49.5c0 25.333 -20.333 39.666 -61 42.999v19h342v-19c-26 -2 -51 -10.167 -75 -24.5s-46 -31 -66 -50s-40.5 -41.333 -61.5 -67l-59.5 -73.5l-137 -164z" />
    <glyph glyph-name="circumflex" unicode="&#xf6;" 
d="M807 0l-746.005 -0.00195312v18c38 4 66 17.333 84 40s29 48.834 33 78.501s6 68.167 6 115.5v506c0 47.333 -2.16699 85.833 -6.5 115.5s-15.666 56 -33.999 79s-45.833 35.833 -82.5 38.5v19h455v-19c-53.333 0 -87.166 -20.5 -101.499 -61.5
s-21.5 -98.167 -21.5 -171.5v-506c0 -43.333 2 -75.666 6 -96.999s14.833 -38.166 32.5 -50.499s45.834 -18.5 84.501 -18.5h238c38.667 0 66.834 6.16699 84.501 18.5s28.5 29.166 32.5 50.499s6 53.666 6 96.999v506c0 70 -7 125.167 -21 165.5s-48 62.833 -102 67.5v19
h454v-19c-53.333 0 -87.166 -20.5 -101.499 -61.5s-21.5 -98.167 -21.5 -171.5v-527c0 -130.667 26 -196 78 -196c15.333 0 30.333 5.33301 45 16l101 -385l-19 -6c-27.333 70 -62.833 129.833 -106.5 179.5s-97.167 88.834 -160.5 117.501s-135.333 43 -216 43z" />
    <glyph glyph-name="tilde" unicode="&#xf7;" horiz-adv-x="1229" 
d="M836 567c-37.333 -29.333 -78.001 -55.335 -122.001 -78.002s-90.833 -40.167 -140.5 -52.5s-98.167 -18.5 -145.5 -18.5c-86 0 -155 24.333 -207 73s-78 115 -78 199v68c0 48 -2.16699 86.833 -6.5 116.5s-15.5 55.834 -33.5 78.501s-45.667 35.334 -83 38.001v19h455
v-19c-37.333 -0.666992 -65.166 -10.167 -83.499 -28.5s-29.5 -41 -33.5 -68s-6 -65.833 -6 -116.5v-78c0 -52.667 16.667 -93.334 50 -122.001s76 -43 128 -43c49.333 0 102.166 10.5 158.499 31.5s105.5 49.167 147.5 84.5v107c0 47.333 -2.16699 85.833 -6.5 115.5
s-15.666 56 -33.999 79s-45.833 35.833 -82.5 38.5v19h454v-19c-53.333 0 -87.166 -20.5 -101.499 -61.5s-21.5 -98.167 -21.5 -171.5v-506c0 -74 7.16699 -131.5 21.5 -172.5s48.166 -61.5 101.499 -61.5v-18h-454v18c38 4 66 17.333 84 40s29 48.834 33 78.501
s6 68.167 6 115.5v315z" />
    <glyph glyph-name="macron" unicode="&#xf8;" horiz-adv-x="1843" 
d="M1149 1010l-0.00878906 -19.001c-53.333 0 -87.166 -20.5 -101.499 -61.5s-21.5 -98.167 -21.5 -171.5v-506c0 -43.333 2 -75.666 6 -96.999s14.833 -38.166 32.5 -50.499s45.834 -18.5 84.501 -18.5h178c38.667 0 66.834 6.16699 84.501 18.5s28.5 29.166 32.5 50.499
s6 53.666 6 96.999v506c0 47.333 -2.16699 85.833 -6.5 115.5s-15.666 56 -33.999 79s-45.833 35.833 -82.5 38.5v19h455v-19c-53.333 0 -87.166 -20.5 -101.499 -61.5s-21.5 -98.167 -21.5 -171.5v-506c0 -74 7.16699 -131.5 21.5 -172.5s48.166 -61.5 101.499 -61.5v-18
h-1721v18c38 4 66 17.333 84 40s29 48.834 33 78.501s6 68.167 6 115.5v506c0 47.333 -2.16699 85.833 -6.5 115.5s-15.666 56 -33.999 79s-45.833 35.833 -82.5 38.5v19h455v-19c-53.333 0 -87.166 -20.5 -101.499 -61.5s-21.5 -98.167 -21.5 -171.5v-506
c0 -43.333 2 -75.666 6 -96.999s14.833 -38.166 32.5 -50.499s45.834 -18.5 84.501 -18.5h178c38.667 0 66.834 6.16699 84.501 18.5s28.5 29.166 32.5 50.499s6 53.666 6 96.999v506c0 47.333 -2.16699 85.833 -6.5 115.5s-15.666 56 -33.999 79s-45.833 35.833 -82.5 38.5
v19h455z" />
    <glyph glyph-name="breve" unicode="&#xf9;" horiz-adv-x="1843" 
d="M1380 0l-1319.01 -0.000976562v18c38 4 66 17.333 84 40s29 48.834 33 78.501s6 68.167 6 115.5v506c0 47.333 -2.16699 85.833 -6.5 115.5s-15.666 56 -33.999 79s-45.833 35.833 -82.5 38.5v19h455v-19c-53.333 0 -87.166 -20.5 -101.499 -61.5
s-21.5 -98.167 -21.5 -171.5v-506c0 -43.333 2 -75.666 6 -96.999s14.833 -38.166 32.5 -50.499s45.834 -18.5 84.501 -18.5h178c38.667 0 66.834 6.16699 84.501 18.5s28.5 29.166 32.5 50.499s6 53.666 6 96.999v506c0 47.333 -2.16699 85.833 -6.5 115.5
s-15.666 56 -33.999 79s-45.833 35.833 -82.5 38.5v19h455v-19c-53.333 0 -87.166 -20.5 -101.499 -61.5s-21.5 -98.167 -21.5 -171.5v-506c0 -43.333 2 -75.666 6 -96.999s14.833 -38.166 32.5 -50.499s45.834 -18.5 84.501 -18.5h178c38.667 0 66.834 6.16699 84.501 18.5
s28.5 29.166 32.5 50.499s6 53.666 6 96.999v506c0 47.333 -2.16699 85.833 -6.5 115.5s-15.666 56 -33.999 79s-45.833 35.833 -82.5 38.5v19h455v-19c-53.333 0 -87.166 -20.5 -101.499 -61.5s-21.5 -98.167 -21.5 -171.5v-527c0 -130.667 26 -196 78 -196
c14 0 29 5.33301 45 16l100 -385l-18 -6c-27.333 70 -63 130 -107 180s-97.833 89.167 -161.5 117.5s-135.5 42.5 -215.5 42.5z" />
    <glyph glyph-name="dotaccent" unicode="&#xfa;" 
d="M557 250c0 -54.667 3.16797 -92.832 9.50098 -114.499s18 -35.334 35 -41.001s48.5 -8.5 94.5 -8.5c60 0 113.167 8.5 159.5 25.5s82.166 41.667 107.499 74s38 71.5 38 117.5c0 56.667 -17 106.5 -51 149.5s-84.5 76.333 -151.5 100s-147.5 35.5 -241.5 35.5v-338z
M348.001 926.002c-68 0 -125.329 -11.6729 -171.996 -35.0059s-84.5 -56.166 -113.5 -98.499s-57.5 -98.166 -85.5 -167.499l-18 6l100 405c8.66699 -10.667 23.667 -17.667 45 -21s46.666 -5 75.999 -5h520v-19c-44.667 -4 -77.334 -17 -98.001 -39
s-33.334 -48 -38.001 -78s-7 -68.667 -7 -116v-86c128.667 0 244.5 -14.167 347.5 -42.5s183.833 -70.666 242.5 -126.999s88 -124.166 88 -203.499c0 -61.333 -19.5 -114.5 -58.5 -159.5s-96.333 -79.5 -172 -103.5s-164.834 -36 -267.501 -36h-512v18
c28.667 2.66699 51 10.834 67 24.501s27.333 30.334 34 50.001s11.5 44.667 14.5 75s5.5 58.5 7.5 84.5v674z" />
    <glyph glyph-name="ring" unicode="&#xfb;" horiz-adv-x="1679" 
d="M1495 252c0 -74 7.16602 -131.501 21.499 -172.501s48.166 -61.5 101.499 -61.5v-18h-455v18c38 4 66 17.333 84 40s29 48.834 33 78.501s6 68.167 6 115.5v506c0 47.333 -2.16699 85.833 -6.5 115.5s-15.666 56 -33.999 79s-45.833 35.833 -82.5 38.5v19h455v-19
c-53.333 0 -87.166 -20.5 -101.499 -61.5s-21.5 -98.167 -21.5 -171.5v-506zM60.999 -0.000976562l0.000976562 17.9971c38 4 66 17.333 84 40s29 48.834 33 78.501s6 68.167 6 115.5v506c0 47.333 -2.16699 85.833 -6.5 115.5s-15.666 56 -33.999 79
s-45.833 35.833 -82.5 38.5v19h476v-19c-45.333 -4 -78.333 -17 -99 -39s-33.334 -48 -38.001 -78s-7 -68.667 -7 -116v-86c128.667 0 244.5 -14.167 347.5 -42.5s183.833 -70.666 242.5 -126.999s88 -124.166 88 -203.499c0 -61.333 -19.5 -114.5 -58.5 -159.5
s-96.333 -79.5 -172 -103.5s-164.834 -36 -267.501 -36h-512zM393 249.996c0 -54.667 3.33301 -93 10 -115s18.334 -35.667 35.001 -41s48 -8 94 -8c92 0 166 19.167 222 57.5s84 91.5 84 159.5c0 57.333 -17.333 107.5 -52 150.5s-85.334 76.167 -152.001 99.5
s-147 35 -241 35v-338z" />
    <glyph glyph-name="cedilla" unicode="&#xfc;" horiz-adv-x="1106" 
d="M61 0l0.000976562 17.9971c38 4 66 17.333 84 40s29 48.834 33 78.501s6 68.167 6 115.5v506c0 47.333 -2.16699 85.833 -6.5 115.5s-15.666 56 -33.999 79s-45.833 35.833 -82.5 38.5v19h476v-19c-45.333 -4 -78.333 -17 -99 -39s-33.334 -48 -38.001 -78
s-7 -68.667 -7 -116v-86c128.667 0 244.5 -14.167 347.5 -42.5s183.833 -70.666 242.5 -126.999s88 -124.166 88 -203.499c0 -61.333 -19.5 -114.5 -58.5 -159.5s-96.333 -79.5 -172 -103.5s-164.834 -36 -267.501 -36h-512zM393.001 249.997c0 -54.667 3.33301 -93 10 -115
s18.334 -35.667 35.001 -41s48 -8 94 -8c92 0 166 19.167 222 57.5s84 91.5 84 159.5c0 57.333 -17.333 107.5 -52 150.5s-85.334 76.167 -152.001 99.5s-147 35 -241 35v-338z" />
    <glyph glyph-name="hungarumlaut" unicode="&#xfd;" horiz-adv-x="1065" 
d="M770 494l-498 -0.000976562v94h490c-13.333 101.333 -50.333 184.333 -111 249s-137 97 -229 97c-78.667 0 -147.834 -20.333 -207.501 -61s-107.167 -95.334 -142.5 -164.001l-15 8l105 309c14 -8 33.667 -12 59 -12c12.667 0 43 3 91 9s87.333 9 118 9
c78 0 151.333 -13.667 220 -41s128.667 -66.166 180 -116.499s91 -109.833 119 -178.5s42 -143 42 -223c0 -98 -24.5 -184.167 -73.5 -258.5s-115.167 -131.666 -198.5 -171.999s-172.666 -60.5 -267.999 -60.5c-25.333 0 -70.333 3.66699 -135 11s-112.667 11 -144 11
c-41.333 0 -71.333 -7.33301 -90 -22l-59 301l12 6c22 -44.667 49.667 -82.667 83 -114s71.666 -55 114.999 -71s91.333 -24 144 -24c71.333 0 137.333 18.333 198 55s108.334 86 143.001 148s52 130 52 204v7z" />
    <glyph glyph-name="ogonek" unicode="&#xfe;" horiz-adv-x="1720" 
d="M797 539c0 -124.667 24.6641 -232.666 73.9971 -323.999s129 -137 239 -137c64.667 0 119.334 18.833 164.001 56.5s78.334 88.5 101.001 152.5s34 131.333 34 202c0 120.667 -24 224.667 -72 312s-127 131 -237 131c-107.333 0 -184.666 -36.833 -231.999 -110.5
s-71 -167.834 -71 -282.501zM566.997 580.001c11.333 90 42.998 169.334 94.998 238.001s117.333 121.167 196 157.5s163.334 54.5 254.001 54.5c96.667 0 185.667 -20.333 267 -61s145.5 -99.667 192.5 -177s70.5 -168.666 70.5 -273.999
c0 -108 -24.333 -202.833 -73 -284.5s-114.667 -144.334 -198 -188.001s-176.333 -65.5 -279 -65.5c-71.333 0 -139 11.667 -203 35s-120.5 57.166 -169.5 101.499s-87.333 97.666 -115 159.999s-41.5 131.833 -41.5 208.5h-170v-233c0 -74 7.16699 -131.5 21.5 -172.5
s48.166 -61.5 101.499 -61.5v-18h-455v18c38 4 66 17.333 84 40s29 48.834 33 78.501s6 68.167 6 115.5v506c0 47.333 -2.16699 85.833 -6.5 115.5s-15.666 56 -33.999 79s-45.833 35.833 -82.5 38.5v19h455v-19c-53.333 0 -87.166 -20.5 -101.499 -61.5
s-21.5 -98.167 -21.5 -171.5v-178h174z" />
    <glyph glyph-name="caron" unicode="&#xff;" horiz-adv-x="1188" 
d="M795 582v196.001c0 41.333 -1.5 70.5 -4.5 87.5s-10.833 30 -23.5 39s-32.5 14.833 -59.5 17.5s-73.833 4 -140.5 4c-132 0 -198 -41 -198 -123c0 -42.667 20 -79.834 60 -111.501s88.667 -54.5 146 -68.5zM416 575.001c-184.667 67.333 -277.002 149.333 -277.002 246
c0 56.667 20.333 98.834 61 126.501s88.334 45 143.001 52s121.334 10.5 200.001 10.5h583v-19c-52.667 0 -86.167 -21 -100.5 -63s-21.5 -98.667 -21.5 -170v-506c0 -72 7.16699 -129 21.5 -171s47.833 -63 100.5 -63v-18h-456l2 23c35.333 0 62 10.5 80 31.5
s29.667 47.833 35 80.5s8 71 8 115v239c-6.66699 2 -32 7.33301 -76 16s-75.333 15 -94 19c-31.333 -36 -61.666 -74 -90.999 -114s-56 -79.833 -80 -119.5s-45 -77.834 -63 -114.501c-13.333 -27.333 -20 -53.333 -20 -78c0 -43.333 26 -70 78 -80v-18h-439v18
c41.333 12.667 100.666 90 177.999 232c57.333 102 133.333 210.333 228 325z" />
    <glyph glyph-name="ntilde" unicode="&#x2013;" horiz-adv-x="1024" 
d="M43 604c16.667 -10.667 46 -16 88 -16h764c40.667 0 72.834 2.83301 96.501 8.5s43.5 20.5 59.5 44.5h16l-86 -229c-16.667 10.667 -46 16 -88 16h-764c-40.667 0 -72.834 -2.83301 -96.501 -8.5s-43.5 -20.5 -59.5 -44.5h-16z" />
    <glyph glyph-name="oacute" unicode="&#x2014;" horiz-adv-x="2048" 
d="M43 604c16.667 -10.667 46 -16 88 -16h1788c40.667 0 72.834 2.83301 96.501 8.5s43.5 20.5 59.5 44.5h16l-86 -229c-16.667 10.667 -46 16 -88 16h-1788c-40.667 0 -72.834 -2.83301 -96.501 -8.5s-43.5 -20.5 -59.5 -44.5h-16z" />
    <glyph glyph-name="edieresis" unicode="&#x2018;" horiz-adv-x="614" 
d="M106 934l234 413.998h168c-14.667 -12.667 -25.667 -25.167 -33 -37.5s-19 -33.5 -35 -63.5l-78 -164c-30 -69.333 -45 -111.666 -45 -126.999c0 -5.33301 3 -12.666 9 -21.999h-220z" />
    <glyph glyph-name="iacute" unicode="&#x2019;" horiz-adv-x="614" 
d="M508 1348l-234.001 -413.999h-168c22.667 19.333 45.334 52.666 68.001 99.999l78 164c30 64 45 105.667 45 125c0 10.667 -2.66699 19 -8 25h219z" />
    <glyph glyph-name="Ccedilla" unicode="&#x201a;" horiz-adv-x="655" 
d="M528 242l-233 -413.998h-168c20 17.333 42.667 50.666 68 99.999l77 164c30 61.333 45 103 45 125c0 11.333 -2.66699 19.666 -8 24.999h219z" />
    <glyph glyph-name="igrave" unicode="&#x201c;" horiz-adv-x="901" 
d="M412 934l233 414h168c-14.667 -12.667 -25.667 -25.167 -33 -37.5s-19 -33.5 -35 -63.5l-77 -164c-30 -66.667 -45 -109 -45 -127c0 -6.66699 2.66699 -14 8 -22h-219zM88 934l233.999 413.999h167c-21.333 -19.333 -43.666 -53 -66.999 -101l-78 -164
c-30 -69.333 -45 -111.666 -45 -126.999c0 -6.66699 2.66699 -14 8 -22h-219z" />
    <glyph glyph-name="icircumflex" unicode="&#x201d;" horiz-adv-x="901" 
d="M489 1348l-233 -413.999h-168c20 17.333 42.667 50.666 68 99.999l77 164c30.667 62.667 46 104.334 46 125.001c0 9.33301 -3 17.666 -9 24.999h219zM813 1348l-233 -413.999h-168c22 19.333 44.333 52.666 67 99.999l78 164c30 61.333 45 103 45 125
c0 10.667 -2.66699 19 -8 25h219z" />
    <glyph glyph-name="Ntilde" unicode="&#x201e;" horiz-adv-x="901" 
d="M489 242l-233 -414h-168c20 17.333 42.667 50.666 68 99.999l77 164c30.667 62.667 46 104.334 46 125.001c0 10.667 -3 19 -9 25h219zM813 242l-233 -413.998h-168c22 19.333 44.333 52.666 67 99.999l78 164c30 61.333 45 103 45 125
c0 11.333 -2.66699 19.666 -8 24.999h219z" />
    <glyph glyph-name="Udieresis" unicode="&#x2020;" horiz-adv-x="1352" 
d="M403 696c-28.667 -6.66699 -51.667 -10.002 -69 -10.002c-30 0 -53.5 9.83301 -70.5 29.5s-25.5 44.834 -25.5 75.501c0 31.333 8.83301 55.833 26.5 73.5s41.5 26.5 71.5 26.5c14 0 33 -2.66699 57 -8l242 -56l-57 375c-6 32.667 -9 58 -9 76c0 30 9.66699 53.5 29 70.5
s44 25.5 74 25.5c33.333 0 59 -8.83301 77 -26.5s27 -42.834 27 -75.501c0 -21.333 -2 -42.666 -6 -63.999l-57 -381l233 56c24 5.33301 48.667 8 74 8c28 0 50.667 -9.16699 68 -27.5s26 -42.5 26 -72.5s-8.33301 -55 -25 -75s-39.667 -30 -69 -30
c-18.667 0 -40.667 3.33301 -66 10l-241 49c11.333 -61.333 24.333 -115.166 39 -161.499s34.334 -89.166 59.001 -128.499c-20 -59.333 -37.167 -123 -51.5 -191s-25.333 -133.333 -33 -196s-13.5 -126.834 -17.5 -192.501s-7 -131.5 -9 -197.5h-45
c-0.666992 58.667 -3.33398 125.834 -8.00098 201.501s-11 144.5 -19 206.5s-18.833 124.167 -32.5 186.5s-30.5 123.166 -50.5 182.499c44 77.333 74 174 90 290z" />
    <glyph glyph-name="aacute" unicode="&#x2021;" horiz-adv-x="1352" 
d="M401 696c-28.667 -6.66699 -50.999 -9.99707 -66.999 -9.99707c-30.667 0 -54.334 9.5 -71.001 28.5s-25 44.5 -25 76.5c0 30.667 8.66699 55 26 73s41.333 27 72 27c12.667 0 31 -2.66699 55 -8l242 -56l-55 375c-6 30 -9 55.333 -9 76c0 30 9.66699 53.5 29 70.5
s44 25.5 74 25.5c32.667 0 58.167 -8.83301 76.5 -26.5s27.5 -42.834 27.5 -75.501c0 -14.667 -2.66699 -36 -8 -64l-57 -381l233 54c30 6.66699 54.667 10 74 10c18.667 0 35.5 -4.33301 50.5 -13s26.333 -20.5 34 -35.5s11.5 -32.167 11.5 -51.5
c0 -30 -8.33301 -55 -25 -75s-40.334 -30 -71.001 -30c-14.667 0 -36 2.66699 -64 8l-243 51c6.66699 -68 34 -140.333 82 -217c-48.667 -86 -76 -159.667 -82 -221l235 47c33.333 8.66699 57.333 13 72 13c30 0 53.5 -10.333 70.5 -31s25.5 -46 25.5 -76
c0 -28 -8.66699 -51.333 -26 -70s-40.666 -28 -69.999 -28c-18.667 0 -40.667 2 -66 6l-241 57l57 -372c5.33301 -33.333 8 -57.333 8 -72c0 -33.333 -8.83301 -58.833 -26.5 -76.5s-43.5 -26.5 -77.5 -26.5c-30.667 0 -55.5 8.83301 -74.5 26.5s-28.5 41.167 -28.5 70.5
c0 21.333 2 43 6 65l58 385l-232 -53c-28.667 -6.66699 -52.334 -10 -71.001 -10c-29.333 0 -52 9.33301 -68 28s-24 42.667 -24 72c0 31.333 8.33301 56.666 25 75.999s40.334 29 71.001 29c10.667 0 22.5 -1.33301 35.5 -4s21.5 -4.33398 25.5 -5.00098l238 -51
c-3.33301 68 -29.333 141.667 -78 221c48.667 74.667 74.667 147 78 217z" />
    <glyph glyph-name="idieresis" unicode="&#x2022;" horiz-adv-x="737" 
d="M166 672c0 61.333 19.8291 113.498 59.4961 156.498s90.167 64.5 151.5 64.5c35.333 0 67.833 -10 97.5 -30s52.834 -46.667 69.501 -80s25 -67.666 25 -102.999c0 -36.667 -9.16699 -72.667 -27.5 -108s-43.166 -63.666 -74.499 -84.999s-65.333 -32 -102 -32
c-37.333 0 -71.166 10.333 -101.499 31s-54.166 47.667 -71.499 81s-26 68.333 -26 105z" />
    <glyph glyph-name="Odieresis" unicode="&#x2026;" horiz-adv-x="2048" 
d="M207 123c0 41.333 13 76.166 39 104.499s59.333 42.5 100 42.5c38 0 69 -14.167 93 -42.5s36 -61.166 36 -98.499c0 -38.667 -13 -73.167 -39 -103.5s-58 -45.5 -96 -45.5c-36.667 0 -68 14.5 -94 43.5s-39 62.167 -39 99.5zM889 123
c0 41.333 13.001 76.166 39.001 104.499s59.333 42.5 100 42.5c37.333 0 68.166 -14.167 92.499 -42.5s36.5 -61.166 36.5 -98.499s-13.5 -71.5 -40.5 -102.5s-59.167 -46.5 -96.5 -46.5c-24 0 -46 6.66699 -66 20s-35.833 31 -47.5 53s-17.5 45.333 -17.5 70zM1571 123
c0 41.333 13.001 76.166 39.001 104.499s59.333 42.5 100 42.5c37.333 0 68.166 -14.167 92.499 -42.5s36.5 -61.166 36.5 -98.499c0 -38.667 -13 -73.167 -39 -103.5s-58 -45.5 -96 -45.5c-36.667 0 -68 14.5 -94 43.5s-39 62.167 -39 99.5z" />
    <glyph glyph-name="acircumflex" unicode="&#x2030;" horiz-adv-x="2621" 
d="M1077 1180l19 42.999c6.66699 15.333 12 28.833 16 40.5s6 21.834 6 30.501c0 23.333 -14.333 35 -43 35v19h230v-19c-20 0 -37.833 -9.83301 -53.5 -29.5s-29.5 -43.667 -41.5 -72l-30 -72.5l-432 -1024c-19.333 -46 -29 -74 -29 -84c0 -19.333 13 -29 39 -29v-18h-230
v18c16 4.66699 29 10.5 39 17.5s18 14.833 24 23.5s11.5 18.167 16.5 28.5s11.5 24.833 19.5 43.5zM748 949.999c0 -50.667 -6.5 -100.5 -19.5 -149.5s-33 -93.833 -60 -134.5s-61.333 -73.167 -103 -97.5s-89.5 -36.5 -143.5 -36.5c-75.333 0 -138.333 19.833 -189 59.5
s-87.834 91.334 -111.501 155.001s-35.5 131.5 -35.5 203.5c0 71.333 12.667 139.5 38 204.5s63.5 117.833 114.5 158.5s112.833 61 185.5 61c74.667 0 136.334 -20.167 185.001 -60.5s84 -92.333 106 -156s33 -132.834 33 -207.501zM233 925.999
c0 -79.333 13.5 -152.5 40.5 -219.5s73.833 -100.5 140.5 -100.5c50.667 0 90 21.833 118 65.5s46.333 94 55 151s13 113.167 13 168.5c0 78 -12.333 149 -37 213s-69 96 -133 96c-74.667 0 -126.167 -39 -154.5 -117s-42.5 -163.667 -42.5 -257zM1749 396.999
c0 -50.667 -6.6709 -101 -20.0039 -151s-33.166 -94.833 -59.499 -134.5s-60.666 -71.5 -102.999 -95.5s-90.166 -36 -143.499 -36c-56.667 0 -106 11.333 -148 34s-77 53.834 -105 93.501s-48.833 84.5 -62.5 134.5s-20.5 101.667 -20.5 155
c0 71.333 12.667 139.5 38 204.5s63.5 117.833 114.5 158.5s112.833 61 185.5 61c74.667 0 136.334 -20.167 185.001 -60.5s84 -92.333 106 -156s33 -132.834 33 -207.501zM1235 372.999c0 -79.333 13.5 -152.499 40.5 -219.499s73.5 -100.5 139.5 -100.5
c50.667 0 90 21.667 118 65s46.5 93.666 55.5 150.999s13.5 113.666 13.5 168.999c0 45.333 -4.66699 91.5 -14 138.5s-26.5 87.333 -51.5 121s-59.833 50.5 -104.5 50.5c-75.333 0 -127 -39.167 -155 -117.5s-42 -164.166 -42 -257.499zM2554 397
c0 -50.667 -6.66699 -101 -20 -151s-33.166 -94.833 -59.5 -134.5c-26.333 -39.667 -60.666 -71.5 -103 -95.5c-42.333 -24 -90.166 -36 -143.5 -36c-56.667 0 -106 11.333 -148 34s-77 53.834 -105 93.501s-48.833 84.5 -62.5 134.5s-20.5 101.667 -20.5 155
c0 71.333 12.667 139.5 38 204.5s63.5 117.833 114.5 158.5s112.833 61 185.5 61c74.667 0 136.334 -20.167 185 -60.5c48.667 -40.333 84 -92.333 106 -156s33 -132.834 33 -207.501zM2040 373c0 -79.333 13.167 -152.501 39.5 -219.501s73.166 -100.5 140.5 -100.5
c50.667 0 90 21.833 118 65.5s46.333 94 55 151s13 113.167 13 168.5c0 45.333 -4.5 91.333 -13.5 138s-26 87 -51 121s-60.167 51 -105.5 51c-76 0 -127.667 -39.167 -155 -117.5s-41 -164.166 -41 -257.499z" />
    <glyph glyph-name="atilde" unicode="&#x2039;" horiz-adv-x="451" 
d="M279 778l55 -26l-84 -246l84 -252l-55 -25l-148 277z" />
    <glyph glyph-name="otilde" unicode="&#x203a;" horiz-adv-x="451" 
d="M172 229l-55 27l84 246l-84 252l55 24l147 -276z" />
    <glyph glyph-name="ocircumflex" unicode="&#x2122;" horiz-adv-x="1884" 
d="M1612 1278l-4 -0.000976562l-283 -672h-16l-277 660h-4v-516c0 -40.667 5.33301 -71.334 16 -92.001s36 -31 76 -31v-19h-248v19c38.667 2 63.167 12.833 73.5 32.5s15.5 49.834 15.5 90.501v522c0 18 -5.16699 29 -15.5 33s-29.833 6 -58.5 6v37h252l219 -521l223 521
h256v-37c-44 0 -71.667 -5.33301 -83 -16s-17 -32.667 -17 -66v-492c0 -26.667 2 -47.5 6 -62.5s13.333 -26.5 28 -34.5s36.667 -12.333 66 -13v-19h-319v19c41.333 2 67.333 10.833 78 26.5s16 44.834 16 87.501v537zM520 744.999c0 -44.667 7.83301 -74.832 23.5 -90.499
s50.167 -24.834 103.5 -27.501v-19h-379v19c51.333 2 85.333 12 102 30s25 49.667 25 95v530c-55.333 0 -96.333 -2.33301 -123 -7s-46.667 -16.167 -60 -34.5s-21.333 -48.166 -24 -89.499h-45v197h629v-197h-45c0 41.333 -5.5 71.166 -16.5 89.499
s-27.667 29.833 -50 34.5s-54.833 7 -97.5 7h-43v-537z" />
    <glyph glyph-name="summation" unicode="&#x2219;" horiz-adv-x="655" 
d="M193 479c0 40.667 13 75.167 39 103.5s59.333 42.5 100 42.5c38 0 69 -14.167 93 -42.5s36 -61.5 36 -99.5c0 -38.667 -13.167 -73.167 -39.5 -103.5s-58.166 -45.5 -95.499 -45.5c-24.667 0 -47.334 7 -68.001 21s-36.667 32.167 -48 54.5s-17 45.5 -17 69.5z" />
    <glyph glyph-name=".null" horiz-adv-x="0" 
 />
    <glyph glyph-name="nonmarkingreturn" horiz-adv-x="0" 
 />
    </font>
</defs>
</svg>
